<svg xmlns="http://www.w3.org/2000/svg" viewBox="0 0 720 380" width="720" height="380">
  <rect width="720" height="380" fill="#000000"></rect>

  
  <g font-family="&#39;JetBrains Mono&#39;, monospace" font-size="11" fill="#d4a85a" letter-spacing="3">
    <text x="36" y="36">§ 04  ·  COMMIT  CLOCK  ·  24H  UTC</text>
    <text x="684" y="36" text-anchor="end" fill="#6b5a3a">LAST 90 DAYS · 558 COMMITS</text>
  </g>

  
  <g transform="translate(170 210)">
    
    <circle r="120" fill="none" stroke="#2d2210"></circle>
    <circle r="55" fill="none" stroke="#2d2210"></circle>

    
    
    <g stroke="#d4a85a" stroke-width="1">
      <line x1="0" y1="-126" x2="0" y2="-134"></line>
      <line x1="126" y1="0" x2="134" y2="0"></line>
      <line x1="0" y1="126" x2="0" y2="134"></line>
      <line x1="-126" y1="0" x2="-134" y2="0"></line>
    </g>
    <g font-family="&#39;JetBrains Mono&#39;, monospace" font-size="10" fill="#a89465" letter-spacing="2" text-anchor="middle">
      <text x="0" y="-142">00</text>
      <text x="148" y="4">06</text>
      <text x="0" y="156">12</text>
      <text x="-148" y="4">18</text>
    </g>

    
    
    <g stroke="#403014" stroke-width="0.5">
      
      <path d="M 0 -55 L 0 -110" stroke="#7d5d2a" stroke-width="6"></path>
      
      <path d="M 14.3 -53.1 L 27.0 -100.1" stroke="#7d5d2a" stroke-width="6"></path>
      
      <path d="M 27.5 -47.6 L 35.0 -60.5" stroke="#7d5d2a" stroke-width="6"></path>
      
      <path d="M 38.9 -38.9 L 41.0 -41.0" stroke="#2a1f0c" stroke-width="6"></path>
      
      <path d="M 47.6 -27.5 L 49.0 -28.3" stroke="#2a1f0c" stroke-width="6"></path>
      
      <path d="M 53.1 -14.3 L 54.0 -14.5" stroke="#2a1f0c" stroke-width="6"></path>
      
      <path d="M 55 0 L 56 0" stroke="#2a1f0c" stroke-width="6"></path>
      
      <path d="M 53.1 14.3 L 55.5 14.9" stroke="#2a1f0c" stroke-width="6"></path>
      
      <path d="M 47.6 27.5 L 51.5 29.7" stroke="#7d5d2a" stroke-width="6"></path>
      
      <path d="M 38.9 38.9 L 45.2 45.2" stroke="#7d5d2a" stroke-width="6"></path>
      
      <path d="M 27.5 47.6 L 36.8 63.7" stroke="#7d5d2a" stroke-width="6"></path>
      
      <path d="M 14.3 53.1 L 21.0 78.0" stroke="#7d5d2a" stroke-width="6"></path>
      
      <path d="M 0 55 L 0 88" stroke="#7d5d2a" stroke-width="6"></path>
      
      <path d="M -14.3 53.1 L -23.6 87.5" stroke="#7d5d2a" stroke-width="6"></path>
      
      <path d="M -27.5 47.6 L -42.5 73.6" stroke="#7d5d2a" stroke-width="6"></path>
      
      <path d="M -38.9 38.9 L -53.7 53.7" stroke="#7d5d2a" stroke-width="6"></path>
      
      <path d="M -47.6 27.5 L -65.4 37.7" stroke="#7d5d2a" stroke-width="6"></path>
      
      <path d="M -53.1 14.3 L -71.5 19.2" stroke="#7d5d2a" stroke-width="6"></path>
      
      <path d="M -55 0 L -82 0" stroke="#7d5d2a" stroke-width="6"></path>
      
      <path d="M -53.1 -14.3 L -92.0 -24.7" stroke="#d4a85a" stroke-width="6"></path>
      
      <path d="M -47.6 -27.5 L -98.1 -56.6" stroke="#d4a85a" stroke-width="6"></path>
      
      <path d="M -38.9 -38.9 L -82.0 -82.0" stroke="#f5e6b8" stroke-width="6"></path>
      
      <path d="M -27.5 -47.6 L -54.0 -93.5" stroke="#d4a85a" stroke-width="6"></path>
      
      <path d="M -14.3 -53.1 L -27.0 -100.1" stroke="#d4a85a" stroke-width="6"></path>
    </g>

    
    <circle r="38" fill="#000000" stroke="#d4a85a"></circle>
    <text y="-4" text-anchor="middle" font-family="&#39;IBM Plex Serif&#39;, Georgia, serif" font-size="22" fill="#f5e6b8" font-weight="500">21:00</text>
    <text y="14" text-anchor="middle" font-family="&#39;JetBrains Mono&#39;, monospace" font-size="8" fill="#6b5a3a" letter-spacing="3">PEAK · UTC</text>
  </g>

  
  <g transform="translate(380 110)" font-family="&#39;JetBrains Mono&#39;, monospace" fill="#a89465" font-size="10" letter-spacing="2">
    <g>
      <text fill="#6b5a3a">PRODUCTIVE WINDOW</text>
      <text y="22" font-family="&#39;IBM Plex Serif&#39;, Georgia, serif" font-size="22" fill="#f5e6b8" font-weight="500">20:00 – 23:00<tspan fill="#d4a85a" font-size="11" font-family="&#39;JetBrains Mono&#39;, monospace" letter-spacing="2">  UTC</tspan></text>
    </g>
    <g transform="translate(0 60)">
      <text fill="#6b5a3a">PEAK HOUR · 21:00</text>
      <text y="22" font-family="&#39;IBM Plex Serif&#39;, Georgia, serif" font-size="22" fill="#f5e6b8" font-weight="500">14<tspan font-size="14" fill="#a89465">% of all commits</tspan></text>
    </g>
    <g transform="translate(0 120)">
      <text fill="#6b5a3a">QUIETEST · 04–07</text>
      <text y="22" font-family="&#39;IBM Plex Serif&#39;, Georgia, serif" font-size="22" fill="#f5e6b8" font-weight="500">04 · 05 · 06</text>
    </g>
    <g transform="translate(0 190)">
      <line x1="0" y1="-4" x2="280" y2="-4" stroke="#2d2210" stroke-dasharray="2 3"></line>
      <text y="14" font-family="&#39;IBM Plex Serif&#39;, Georgia, serif" font-size="14" fill="#dcc998" font-style="italic">&#34;Night-shift operator.</text>
      <text y="34" font-family="&#39;IBM Plex Serif&#39;, Georgia, serif" font-size="14" fill="#dcc998" font-style="italic">The frontier is quieter after dark.&#34;</text>
    </g>
  </g>
</svg>