<svg xmlns="http://www.w3.org/2000/svg" viewBox="0 0 720 380" width="720" height="380">
  <rect width="720" height="380" fill="#000000"></rect>
  <g class="stars"><circle cx="583" cy="94" r="0.6" fill="#d4a85a" opacity="0.59"/><circle cx="9" cy="4" r="0.6" fill="#d4a85a" opacity="0.54"/><circle cx="11" cy="101" r="0.8" fill="#d4a85a" opacity="0.58"/><circle cx="178" cy="366" r="0.5" fill="#d4a85a" opacity="0.52"/><circle cx="156" cy="3" r="0.8" fill="#d4a85a" opacity="0.38"/><circle cx="42" cy="194" r="0.5" fill="#d4a85a" opacity="0.52"/><circle cx="548" cy="242" r="0.5" fill="#d4a85a" opacity="0.38"/><circle cx="36" cy="73" r="0.5" fill="#d4a85a" opacity="0.55"/><circle cx="688" cy="315" r="0.6" fill="#d4a85a" opacity="0.58"/><circle cx="10" cy="359" r="0.7" fill="#d4a85a" opacity="0.59"/><circle cx="130" cy="86" r="0.5" fill="#d4a85a" opacity="0.45"/><circle cx="265" cy="338" r="0.5" fill="#d4a85a" opacity="0.45"/><circle cx="486" cy="207" r="0.7" fill="#d4a85a" opacity="0.58"/><circle cx="197" cy="296" r="0.8" fill="#d4a85a" opacity="0.52"/><circle cx="697" cy="135" r="0.5" fill="#d4a85a" opacity="0.53"/></g>

  <!-- Title -->
  <g font-family="'JetBrains Mono', ui-monospace, monospace" font-size="11" fill="#d4a85a" letter-spacing="3">
    <text x="36" y="36">§ 04  ·  COMMIT  CLOCK  ·  24H  UTC</text>
    <text x="684" y="36" text-anchor="end" fill="#6b5a3a">LAST 90 DAYS · 57 COMMITS</text>
  </g>

  <!-- Clock Center -->
  <g transform="translate(170 210)">
    <circle r="120" fill="none" stroke="#0a0805"></circle>
    <circle r="55" fill="none" stroke="#0a0805"></circle>

    <!-- Clock Ticks -->
    <g stroke="#d4a85a" stroke-width="1" opacity="0.6">
      <line x1="0" y1="-126" x2="0" y2="-134"></line>
      <line x1="126" y1="0" x2="134" y2="0"></line>
      <line x1="0" y1="126" x2="0" y2="134"></line>
      <line x1="-126" y1="0" x2="-134" y2="0"></line>
    </g>
    <g font-family="'JetBrains Mono', ui-monospace, monospace" font-size="10" fill="#a89465" letter-spacing="2" text-anchor="middle">
      <text x="0" y="-142">00</text>
      <text x="148" y="4">06</text>
      <text x="0" y="156">12</text>
      <text x="-148" y="4">18</text>
    </g>

    <!-- Radial Bars -->
    <g stroke="#6b5a3a" stroke-width="0.5">
      <path d="M 0.0 -55.0 L 0.0 -59.2" stroke="#7d5d2a" stroke-width="6"></path>
      <path d="M 14.2 -53.1 L 14.2 -53.1" stroke="#2a1f0c" stroke-width="6"></path>
      <path d="M 27.5 -47.6 L 33.8 -58.6" stroke="#7d5d2a" stroke-width="6"></path>
      <path d="M 38.9 -38.9 L 41.9 -41.9" stroke="#7d5d2a" stroke-width="6"></path>
      <path d="M 47.6 -27.5 L 47.6 -27.5" stroke="#2a1f0c" stroke-width="6"></path>
      <path d="M 53.1 -14.2 L 69.5 -18.6" stroke="#7d5d2a" stroke-width="6"></path>
      <path d="M 55.0 0.0 L 71.9 0.0" stroke="#7d5d2a" stroke-width="6"></path>
      <path d="M 53.1 14.2 L 65.4 17.5" stroke="#7d5d2a" stroke-width="6"></path>
      <path d="M 47.6 27.5 L 66.0 38.1" stroke="#7d5d2a" stroke-width="6"></path>
      <path d="M 38.9 38.9 L 44.9 44.9" stroke="#7d5d2a" stroke-width="6"></path>
      <path d="M 27.5 47.6 L 27.5 47.6" stroke="#2a1f0c" stroke-width="6"></path>
      <path d="M 14.2 53.1 L 15.3 57.2" stroke="#7d5d2a" stroke-width="6"></path>
      <path d="M 0.0 55.0 L 0.0 55.0" stroke="#2a1f0c" stroke-width="6"></path>
      <path d="M -14.2 53.1 L -16.4 61.3" stroke="#7d5d2a" stroke-width="6"></path>
      <path d="M -27.5 47.6 L -29.6 51.3" stroke="#7d5d2a" stroke-width="6"></path>
      <path d="M -38.9 38.9 L -41.9 41.9" stroke="#7d5d2a" stroke-width="6"></path>
      <path d="M -47.6 27.5 L -47.6 27.5" stroke="#2a1f0c" stroke-width="6"></path>
      <path d="M -53.1 14.2 L -53.1 14.2" stroke="#2a1f0c" stroke-width="6"></path>
      <path d="M -55.0 0.0 L -55.0 0.0" stroke="#2a1f0c" stroke-width="6"></path>
      <path d="M -53.1 -14.2 L -77.6 -20.8" stroke="#7d5d2a" stroke-width="6"></path>
      <path d="M -47.6 -27.5 L -58.6 -33.8" stroke="#7d5d2a" stroke-width="6"></path>
      <path d="M -38.9 -38.9 L -38.9 -38.9" stroke="#2a1f0c" stroke-width="6"></path>
      <path d="M -27.5 -47.6 L -42.3 -73.3" stroke="#d4a85a" stroke-width="6"></path>
      <path d="M -14.2 -53.1 L -28.5 -106.3" stroke="#f5e6b8" stroke-width="6"></path>
    </g>

    <!-- Center Ring -->
    <circle r="38" fill="#000000" stroke="#d4a85a"></circle>
    <text y="-4" text-anchor="middle" font-family="'IBM Plex Serif', Georgia, serif" font-size="22" fill="#f5e6b8" font-weight="500">23:00</text>
    <text y="14" text-anchor="middle" font-family="'JetBrains Mono', ui-monospace, monospace" font-size="8" fill="#6b5a3a" letter-spacing="3">PEAK · UTC</text>
  </g>

  <!-- Right Details -->
  <g transform="translate(380 110)" font-family="'JetBrains Mono', ui-monospace, monospace" fill="#a89465" font-size="10" letter-spacing="2">
    <g>
      <text fill="#6b5a3a">PRODUCTIVE WINDOW</text>
      <text y="22" font-family="'IBM Plex Serif', Georgia, serif" font-size="22" fill="#f5e6b8" font-weight="500">22:00 – 00:00<tspan fill="#d4a85a" font-size="11" font-family="'JetBrains Mono', ui-monospace, monospace" letter-spacing="2">  UTC</tspan></text>
    </g>
    <g transform="translate(0 60)">
      <text fill="#6b5a3a">PEAK HOUR · 23:00</text>
      <text y="22" font-family="'IBM Plex Serif', Georgia, serif" font-size="22" fill="#f5e6b8" font-weight="500">23<tspan font-size="14" fill="#a89465">% of all commits</tspan></text>
    </g>
    <g transform="translate(0 120)">
      <text fill="#6b5a3a">QUIETEST · 16–18</text>
      <text y="22" font-family="'IBM Plex Serif', Georgia, serif" font-size="22" fill="#f5e6b8" font-weight="500">16 · 17 · 18</text>
    </g>
    <g transform="translate(0 190)">
      <line x1="0" y1="-4" x2="280" y2="-4" stroke="#0a0805" stroke-dasharray="2 3"></line>
      <text y="14" font-family="'IBM Plex Serif', Georgia, serif" font-size="14" fill="#dcc998" font-style="italic">"Night-shift operator.</text>
      <text y="34" font-family="'IBM Plex Serif', Georgia, serif" font-size="14" fill="#dcc998" font-style="italic">The frontier is quieter after dark."</text>
    </g>
  </g>
</svg>