<svg xmlns="http://www.w3.org/2000/svg" viewBox="0 0 1200 100" width="1200" height="100">
  <rect width="1200" height="100" fill="#000000"></rect>
  
  <g fill="#d4a85a" opacity="0.4">
    <circle cx="160" cy="30" r="0.6"></circle>
    <circle cx="430" cy="68" r="0.5"></circle>
    <circle cx="780" cy="40" r="0.7"></circle>
    <circle cx="1020" cy="72" r="0.5"></circle>
  </g>
  
  <g stroke="#d4a85a" stroke-width="0.6" fill="none">
    <path d="M 60 30 L 60 70 M 60 30 L 80 30 M 60 70 L 80 70"></path>
    <path d="M 1140 30 L 1140 70 M 1140 30 L 1120 30 M 1140 70 L 1120 70"></path>
  </g>
  
  <g transform="translate(600 50)" stroke="#d4a85a" stroke-width="0.6" fill="none">
    <circle r="8"></circle>
    <line x1="-8" y1="0" x2="8" y2="0"></line>
    <line x1="0" y1="-8" x2="0" y2="8"></line>
    <circle r="1.4" fill="#d4a85a"></circle>
    <line x1="-30" y1="0" x2="-12" y2="0" opacity="0.6"></line>
    <line x1="12" y1="0" x2="30" y2="0" opacity="0.6"></line>
  </g>
  
  <g font-family="&#39;JetBrains Mono&#39;, monospace" font-size="10" fill="#6b5a3a" letter-spacing="4" text-anchor="middle">
    <text x="600" y="86">BUILT WITH CURIOSITY  ·  POWERED BY CODE  ·  SIGNAL OUTBOUND</text>
  </g>
</svg>