<svg xmlns="http://www.w3.org/2000/svg" viewBox="0 0 1200 380" width="1200" height="380">
  <defs>
    <radialGradient id="bg" cx="50%" cy="40%" r="60%">
      <stop offset="0%" stop-color="#0a0805"></stop>
      <stop offset="100%" stop-color="#000000"></stop>
    </radialGradient>
    <pattern id="stars" width="200" height="200" patternUnits="userSpaceOnUse">
      <circle cx="14" cy="22" r="0.8" fill="#d4a85a" opacity="0.6"></circle>
      <circle cx="48" cy="86" r="0.6" fill="#f0d089" opacity="0.5"></circle>
      <circle cx="92" cy="42" r="0.5" fill="#d4a85a" opacity="0.4"></circle>
      <circle cx="128" cy="120" r="0.9" fill="#f5e6b8" opacity="0.55"></circle>
      <circle cx="160" cy="60" r="0.6" fill="#d4a85a" opacity="0.5"></circle>
      <circle cx="186" cy="158" r="0.5" fill="#a89465" opacity="0.4"></circle>
      <circle cx="24" cy="174" r="0.7" fill="#d4a85a" opacity="0.45"></circle>
      <circle cx="74" cy="148" r="0.5" fill="#f0d089" opacity="0.35"></circle>
      <circle cx="108" cy="184" r="0.6" fill="#d4a85a" opacity="0.4"></circle>
    </pattern>
  </defs>

  <rect width="1200" height="380" fill="url(#bg)"></rect>
  <rect width="1200" height="380" fill="url(#stars)"></rect>

  
  <g stroke="#d4a85a" stroke-width="0.6" opacity="0.5">
    <line x1="120" y1="20" x2="120" y2="80"></line>
    <line x1="165" y1="60" x2="165" y2="105"></line>
    <line x1="210" y1="35" x2="210" y2="120"></line>
    <line x1="80" y1="160" x2="80" y2="220"></line>
    <line x1="245" y1="190" x2="245" y2="260"></line>
  </g>

  
  <g stroke="#d4a85a" stroke-width="0.6" opacity="0.5">
    <line x1="990" y1="40" x2="990" y2="100"></line>
    <line x1="1040" y1="20" x2="1040" y2="85"></line>
    <line x1="1080" y1="60" x2="1080" y2="125"></line>
    <line x1="1130" y1="180" x2="1130" y2="245"></line>
    <line x1="945" y1="200" x2="945" y2="265"></line>
  </g>

  
  <g transform="translate(600 90)" stroke="#d4a85a" stroke-width="0.9" fill="none">
    
    <circle cx="0" cy="-50" r="1.6" fill="#d4a85a"></circle>
    <line x1="0" y1="-46" x2="0" y2="-28"></line>
    
    <circle cx="0" cy="0" r="22"></circle>
    <line x1="-22" y1="0" x2="22" y2="0"></line>
    <line x1="0" y1="-22" x2="0" y2="22"></line>
    <circle cx="-7" cy="-3" r="1.6" fill="#d4a85a"></circle>
    <circle cx="7" cy="-3" r="1.6" fill="#d4a85a"></circle>
    
    <line x1="-10" y1="32" x2="10" y2="32"></line>
    <line x1="-7" y1="40" x2="7" y2="40"></line>
    <line x1="-4" y1="48" x2="4" y2="48"></line>
    <circle cx="0" cy="56" r="3"></circle>
    
    <path d="M 0 64 L -180 200 M 0 64 L 180 200"></path>
    <path d="M -180 200 Q 0 130 180 200" stroke-width="1.1"></path>
  </g>

  
  <g font-family="&#39;IBM Plex Serif&#39;, Georgia, serif" text-anchor="middle">
    <text x="600" y="290" font-size="72" fill="#f5e6b8" font-weight="500" letter-spacing="-1.5">Deep<tspan font-style="italic" fill="#d4a85a">Extrema</tspan></text>
    <text x="600" y="335" font-size="14" fill="#a89465" font-family="&#39;JetBrains Mono&#39;, monospace" letter-spacing="6">DEEP · FRONTIER · STATUS 04</text>
  </g>
</svg>