<svg xmlns="http://www.w3.org/2000/svg" viewBox="0 0 1200 240" width="1200" height="240" role="img" aria-label="Parallax sighting simulator — click to open">
  <defs>
    <radialGradient id="vp" cx="50%" cy="50%" r="50%">
      <stop offset="0%" stop-color="#0a0805"></stop>
      <stop offset="100%" stop-color="#000000"></stop>
    </radialGradient>
    <radialGradient id="halo" cx="50%" cy="50%" r="50%">
      <stop offset="0%" stop-color="rgba(245,230,184,0.7)"></stop>
      <stop offset="40%" stop-color="rgba(212,168,90,0.25)"></stop>
      <stop offset="100%" stop-color="rgba(212,168,90,0)"></stop>
    </radialGradient>
  </defs>

  
  <rect width="1200" height="240" fill="#000000"></rect>

  
  <g font-family="&#39;JetBrains Mono&#39;, monospace" font-size="11" fill="#d4a85a" letter-spacing="3">
    <text x="36" y="32">§ 09  ·  PARALLAX  //  SIGHTING  SIMULATOR</text>
    <text x="1164" y="32" text-anchor="end" fill="#6b5a3a">CLICK TO OPEN INSTRUMENT  ↗</text>
  </g>

  
  <g transform="translate(80 130)" stroke="#d4a85a" stroke-width="0.8" fill="none">
    <circle cx="0" cy="0" r="13"></circle>
    <line x1="-13" y1="0" x2="13" y2="0"></line>
    <line x1="0" y1="-13" x2="0" y2="13"></line>
    <circle cx="-4" cy="-2" r="1.1" fill="#d4a85a"></circle>
    <circle cx="4" cy="-2" r="1.1" fill="#d4a85a"></circle>
    <line x1="-6" y1="22" x2="6" y2="22"></line>
    <line x1="-4" y1="28" x2="4" y2="28"></line>
    <line x1="-2" y1="34" x2="2" y2="34"></line>
  </g>
  <g font-family="&#39;IBM Plex Serif&#39;, Georgia, serif" fill="#dcc998">
    <text x="120" y="118" font-size="13" font-style="italic" fill="#a89465">All distance begins with two points.</text>
  </g>

  
  <g transform="translate(470 130)">
    <circle r="62" fill="url(#vp)" stroke="#d4a85a" stroke-width="0.7"></circle>
    <circle r="62" fill="none" stroke="#2d2210" stroke-width="0.4" stroke-dasharray="2 3"></circle>
    <g stroke="rgba(125,93,42,0.4)" stroke-width="0.4">
      <line x1="-62" y1="0" x2="62" y2="0"></line>
      <line x1="0" y1="-62" x2="0" y2="62"></line>
    </g>
    
    <g fill="#d4a85a">
      <circle cx="-38" cy="-22" r="0.7" opacity="0.7"></circle>
      <circle cx="-18" cy="-40" r="0.5" opacity="0.55"></circle>
      <circle cx="22" cy="-32" r="0.8" opacity="0.65"></circle>
      <circle cx="40" cy="-14" r="0.5" opacity="0.5"></circle>
      <circle cx="44" cy="14" r="0.7" opacity="0.6"></circle>
      <circle cx="18" cy="32" r="0.6" opacity="0.55"></circle>
      <circle cx="-12" cy="42" r="0.5" opacity="0.5"></circle>
      <circle cx="-46" cy="12" r="0.6" opacity="0.55"></circle>
      <circle cx="-26" cy="6" r="0.4" opacity="0.45"></circle>
      <circle cx="8" cy="-12" r="0.4" opacity="0.45"></circle>
      <circle cx="32" cy="38" r="0.5" opacity="0.5"></circle>
      <circle cx="-52" cy="-8" r="0.4" opacity="0.45"></circle>
    </g>
    
    <g>
      <circle r="9" fill="url(#halo)" cx="-8" cy="4">
        
        
      </circle>
      <circle r="2.3" fill="#f5e6b8" cx="-8" cy="4">
        
      </circle>
    </g>
    
    <g font-family="&#39;JetBrains Mono&#39;, monospace" font-size="9" fill="#a89465" letter-spacing="3" text-anchor="middle">
      <text y="-74">EARTH · JANUARY</text>
      <text y="80" fill="#6b5a3a">VIEWPORT · L</text>
    </g>
  </g>

  
  <g transform="translate(600 130)" stroke="#d4a85a" fill="#d4a85a">
    <line x1="-58" y1="0" x2="58" y2="0" stroke-width="0.5" opacity="0.5"></line>
    <circle cx="-58" cy="0" r="1.5"></circle>
    <circle cx="58" cy="0" r="1.5"></circle>
    <g font-family="&#39;JetBrains Mono&#39;, monospace" font-size="8" letter-spacing="2" text-anchor="middle" fill="#6b5a3a">
      <text y="-8">BASELINE</text>
      <text y="14" fill="#d4a85a">2 AU</text>
    </g>
  </g>

  
  <g transform="translate(730 130)">
    <circle r="62" fill="url(#vp)" stroke="#d4a85a" stroke-width="0.7"></circle>
    <circle r="62" fill="none" stroke="#2d2210" stroke-width="0.4" stroke-dasharray="2 3"></circle>
    <g stroke="rgba(125,93,42,0.4)" stroke-width="0.4">
      <line x1="-62" y1="0" x2="62" y2="0"></line>
      <line x1="0" y1="-62" x2="0" y2="62"></line>
    </g>
    
    <g fill="#d4a85a">
      <circle cx="-38" cy="-22" r="0.7" opacity="0.7"></circle>
      <circle cx="-18" cy="-40" r="0.5" opacity="0.55"></circle>
      <circle cx="22" cy="-32" r="0.8" opacity="0.65"></circle>
      <circle cx="40" cy="-14" r="0.5" opacity="0.5"></circle>
      <circle cx="44" cy="14" r="0.7" opacity="0.6"></circle>
      <circle cx="18" cy="32" r="0.6" opacity="0.55"></circle>
      <circle cx="-12" cy="42" r="0.5" opacity="0.5"></circle>
      <circle cx="-46" cy="12" r="0.6" opacity="0.55"></circle>
      <circle cx="-26" cy="6" r="0.4" opacity="0.45"></circle>
      <circle cx="8" cy="-12" r="0.4" opacity="0.45"></circle>
      <circle cx="32" cy="38" r="0.5" opacity="0.5"></circle>
      <circle cx="-52" cy="-8" r="0.4" opacity="0.45"></circle>
    </g>
    
    <g>
      <circle r="9" fill="url(#halo)" cx="18" cy="4">
        
        
      </circle>
      <circle r="2.3" fill="#f5e6b8" cx="18" cy="4">
        
      </circle>
    </g>
    <g font-family="&#39;JetBrains Mono&#39;, monospace" font-size="9" fill="#a89465" letter-spacing="3" text-anchor="middle">
      <text y="-74">EARTH · JULY</text>
      <text y="80" fill="#6b5a3a">VIEWPORT · R</text>
    </g>
  </g>

  
  <g stroke="#d4a85a" stroke-width="0.6" fill="none" opacity="0.55">
    <line x1="462" y1="134" x2="600" y2="200" stroke-dasharray="3 3"></line>
    <line x1="748" y1="134" x2="600" y2="200" stroke-dasharray="3 3"></line>
    <circle cx="600" cy="200" r="1.6" fill="#d4a85a" stroke="none">
      
    </circle>
  </g>

  
  <g transform="translate(880 80)">
    <g font-family="&#39;JetBrains Mono&#39;, monospace" font-size="9" fill="#6b5a3a" letter-spacing="2">
      <text>PARALLAX  ·  Δθ</text>
    </g>
    <text y="28" font-family="&#39;IBM Plex Serif&#39;, Georgia, serif" font-size="26" fill="#f5e6b8" font-weight="500">0.74″</text>

    <g transform="translate(0 56)">
      <text font-family="&#39;JetBrains Mono&#39;, monospace" font-size="9" fill="#6b5a3a" letter-spacing="2">DISTANCE</text>
      <text y="28" font-family="&#39;IBM Plex Serif&#39;, Georgia, serif" font-size="26" fill="#dcc998" font-weight="500">
        1.35 <tspan font-size="13" fill="#a89465" font-style="italic">pc</tspan>
        <tspan dx="6" font-size="13" fill="#6b5a3a">≈</tspan>
        <tspan dx="6" font-size="14" fill="#d4a85a">4.4 ly</tspan>
      </text>
    </g>

    
    <g transform="translate(0 124)">
      <rect width="220" height="32" fill="rgba(212,168,90,0.08)" stroke="#d4a85a" stroke-width="0.8"></rect>
      <text x="110" y="21" font-family="&#39;JetBrains Mono&#39;, monospace" font-size="11" fill="#f5e6b8" letter-spacing="4" text-anchor="middle">▸  OPEN  INSTRUMENT</text>
      
      <rect width="220" height="32" fill="rgba(212,168,90,0)" stroke="none">
        
      </rect>
    </g>
  </g>

  
  <g stroke="#2d2210" stroke-width="0.6" fill="none">
    <path d="M 24 60 L 24 200"></path>
    <path d="M 1176 60 L 1176 200"></path>
  </g>
</svg>