<svg width="1200" height="700" xmlns="http://www.w3.org/2000/svg">
  <defs>
    <filter id="glow" x="-50%" y="-50%" width="200%" height="200%">
      <feGaussianBlur stdDeviation="3" result="coloredBlur"/>
      <feMerge>
        <feMergeNode in="coloredBlur"/>
        <feMergeNode in="SourceGraphic"/>
      </feMerge>
    </filter>

    <filter id="strong-glow" x="-100%" y="-100%" width="300%" height="300%">
      <feGaussianBlur stdDeviation="5" result="coloredBlur"/>
      <feMerge>
        <feMergeNode in="coloredBlur"/>
        <feMergeNode in="coloredBlur"/>
        <feMergeNode in="SourceGraphic"/>
      </feMerge>
    </filter>
  </defs>

  <!-- Background -->
  <rect width="1200" height="700" fill="#1a1a1a"/>

  <!-- Grid -->
<line x1="0" y1="0" x2="0" y2="700" stroke="#2a2a2a" stroke-width="1" opacity="0.2"/>
<line x1="50" y1="0" x2="50" y2="700" stroke="#2a2a2a" stroke-width="1" opacity="0.2"/>
<line x1="100" y1="0" x2="100" y2="700" stroke="#2a2a2a" stroke-width="1" opacity="0.2"/>
<line x1="150" y1="0" x2="150" y2="700" stroke="#2a2a2a" stroke-width="1" opacity="0.2"/>
<line x1="200" y1="0" x2="200" y2="700" stroke="#2a2a2a" stroke-width="1" opacity="0.2"/>
<line x1="250" y1="0" x2="250" y2="700" stroke="#2a2a2a" stroke-width="1" opacity="0.2"/>
<line x1="300" y1="0" x2="300" y2="700" stroke="#2a2a2a" stroke-width="1" opacity="0.2"/>
<line x1="350" y1="0" x2="350" y2="700" stroke="#2a2a2a" stroke-width="1" opacity="0.2"/>
<line x1="400" y1="0" x2="400" y2="700" stroke="#2a2a2a" stroke-width="1" opacity="0.2"/>
<line x1="450" y1="0" x2="450" y2="700" stroke="#2a2a2a" stroke-width="1" opacity="0.2"/>
<line x1="500" y1="0" x2="500" y2="700" stroke="#2a2a2a" stroke-width="1" opacity="0.2"/>
<line x1="550" y1="0" x2="550" y2="700" stroke="#2a2a2a" stroke-width="1" opacity="0.2"/>
<line x1="600" y1="0" x2="600" y2="700" stroke="#2a2a2a" stroke-width="1" opacity="0.2"/>
<line x1="650" y1="0" x2="650" y2="700" stroke="#2a2a2a" stroke-width="1" opacity="0.2"/>
<line x1="700" y1="0" x2="700" y2="700" stroke="#2a2a2a" stroke-width="1" opacity="0.2"/>
<line x1="750" y1="0" x2="750" y2="700" stroke="#2a2a2a" stroke-width="1" opacity="0.2"/>
<line x1="800" y1="0" x2="800" y2="700" stroke="#2a2a2a" stroke-width="1" opacity="0.2"/>
<line x1="850" y1="0" x2="850" y2="700" stroke="#2a2a2a" stroke-width="1" opacity="0.2"/>
<line x1="900" y1="0" x2="900" y2="700" stroke="#2a2a2a" stroke-width="1" opacity="0.2"/>
<line x1="950" y1="0" x2="950" y2="700" stroke="#2a2a2a" stroke-width="1" opacity="0.2"/>
<line x1="1000" y1="0" x2="1000" y2="700" stroke="#2a2a2a" stroke-width="1" opacity="0.2"/>
<line x1="1050" y1="0" x2="1050" y2="700" stroke="#2a2a2a" stroke-width="1" opacity="0.2"/>
<line x1="1100" y1="0" x2="1100" y2="700" stroke="#2a2a2a" stroke-width="1" opacity="0.2"/>
<line x1="1150" y1="0" x2="1150" y2="700" stroke="#2a2a2a" stroke-width="1" opacity="0.2"/>
<line x1="0" y1="0" x2="1200" y2="0" stroke="#2a2a2a" stroke-width="1" opacity="0.2"/>
<line x1="0" y1="50" x2="1200" y2="50" stroke="#2a2a2a" stroke-width="1" opacity="0.2"/>
<line x1="0" y1="100" x2="1200" y2="100" stroke="#2a2a2a" stroke-width="1" opacity="0.2"/>
<line x1="0" y1="150" x2="1200" y2="150" stroke="#2a2a2a" stroke-width="1" opacity="0.2"/>
<line x1="0" y1="200" x2="1200" y2="200" stroke="#2a2a2a" stroke-width="1" opacity="0.2"/>
<line x1="0" y1="250" x2="1200" y2="250" stroke="#2a2a2a" stroke-width="1" opacity="0.2"/>
<line x1="0" y1="300" x2="1200" y2="300" stroke="#2a2a2a" stroke-width="1" opacity="0.2"/>
<line x1="0" y1="350" x2="1200" y2="350" stroke="#2a2a2a" stroke-width="1" opacity="0.2"/>
<line x1="0" y1="400" x2="1200" y2="400" stroke="#2a2a2a" stroke-width="1" opacity="0.2"/>
<line x1="0" y1="450" x2="1200" y2="450" stroke="#2a2a2a" stroke-width="1" opacity="0.2"/>
<line x1="0" y1="500" x2="1200" y2="500" stroke="#2a2a2a" stroke-width="1" opacity="0.2"/>
<line x1="0" y1="550" x2="1200" y2="550" stroke="#2a2a2a" stroke-width="1" opacity="0.2"/>
<line x1="0" y1="600" x2="1200" y2="600" stroke="#2a2a2a" stroke-width="1" opacity="0.2"/>
<line x1="0" y1="650" x2="1200" y2="650" stroke="#2a2a2a" stroke-width="1" opacity="0.2"/>

  <!-- Title -->
  <rect x="50" y="20" width="1100" height="50" fill="#2a2a2a" opacity="0.8"/>
  <line x1="50" y1="20" x2="1150" y2="20" stroke="#ff6b35" stroke-width="2" filter="url(#glow)"/>
  <text x="600.0" y="52" fill="#ff6b35" filter="url(#glow)"
        font-family="'Courier New', monospace" font-size="38" font-weight="bold"
        text-anchor="middle" letter-spacing="3">
    COMPLIANCE DASHBOARD
  </text>

  <!-- System Health -->
  <rect x="100" y="100" width="1000" height="120" fill="#2a2a2a" opacity="0.7"/>
  <rect x="100" y="100" width="1000" height="120" fill="none" stroke="#ef4444" stroke-width="3" filter="url(#glow)"/>

  <text x="600.0" y="140" fill="#ef4444" filter="url(#strong-glow)"
        font-family="'Courier New', monospace" font-size="38" font-weight="bold" text-anchor="middle">
    SYSTEM HEALTH: CRITICAL
  </text>

  <!-- Compliance Score -->
  <text x="600.0" y="175" fill="#cccccc"
        font-family="'Courier New', monospace" font-size="23" text-anchor="middle">
    COMPLIANCE SCORE: <tspan fill="#ef4444" font-weight="bold" font-size="38">0%</tspan>
  </text>

  <!-- Progress Bar -->
  <rect x="350" y="190" width="500" height="20" rx="10" fill="#2a2a2a"/>
  <rect x="350" y="190" width="0" height="20" rx="10" fill="#ef4444" filter="url(#glow)"/>

  <!-- Operational Metrics -->
  <rect x="60" y="250" width="530" height="180" fill="#2a2a2a" opacity="0.6"/>
  <rect x="60" y="250" width="530" height="180" fill="none" stroke="#ff8c42" stroke-width="2"/>

  <text x="90" y="280" fill="#ff6b35" filter="url(#glow)"
        font-family="'Courier New', monospace" font-size="23" font-weight="bold" letter-spacing="2">
    ▸ OPERATIONAL METRICS
  </text>

  <text x="90" y="315" fill="#cccccc"
        font-family="'Courier New', monospace" font-size="23">
    <tspan x="90" dy="0">Governed Systems: <tspan fill="#ff6b35" font-weight="bold">0</tspan></tspan>
    <tspan x="90" dy="25">Active Systems (30d): <tspan fill="#4ade80" font-weight="bold">0</tspan></tspan>
    <tspan x="90" dy="25">Total Enforcements: <tspan fill="#ff8c42" font-weight="bold">0</tspan></tspan>
    <tspan x="90" dy="25">Authority Rating: <tspan fill="#fbbf24">⭐</tspan></tspan>
  </text>

  <!-- Compliance Indicators -->
  <rect x="610" y="250" width="530" height="180" fill="#2a2a2a" opacity="0.6"/>
  <rect x="610" y="250" width="530" height="180" fill="none" stroke="#ff8c42" stroke-width="2"/>

  <text x="640" y="280" fill="#ff6b35" filter="url(#glow)"
        font-family="'Courier New', monospace" font-size="23" font-weight="bold" letter-spacing="2">
    ▸ COMPLIANCE INDICATORS
  </text>

  <text x="640" y="315" fill="#cccccc"
        font-family="'Courier New', monospace" font-size="23">
    <tspan x="640" dy="0">Workflow Success: <tspan fill="#fbbf24" font-weight="bold">75%</tspan></tspan>
    <tspan x="640" dy="25">Security Level: <tspan fill="#fbbf24" font-weight="bold">LOW</tspan></tspan>
    <tspan x="640" dy="25">Access Control: <tspan fill="#4ade80" font-weight="bold">ENFORCED</tspan></tspan>
    <tspan x="640" dy="25">Policy Adherence: <tspan fill="#4ade80" font-weight="bold">COMPLIANT</tspan></tspan>
  </text>

  <!-- Authorization Matrix -->
  <rect x="60" y="460" width="1080" height="180" fill="#2a2a2a" opacity="0.6"/>
  <rect x="60" y="460" width="1080" height="180" fill="none" stroke="#ff8c42" stroke-width="2"/>

  <text x="90" y="490" fill="#ff6b35" filter="url(#glow)"
        font-family="'Courier New', monospace" font-size="23" font-weight="bold" letter-spacing="2">
    ▸ AUTHORIZATION MATRIX
  </text>

  <text x="90" y="520" fill="#cccccc" font-family="'Courier New', monospace" font-size="16">
    🟢 ACTIVE SYSTEMS: <tspan fill="#4ade80" font-weight="bold">✓ AUTHORIZED</tspan>
  </text>

  <text x="630" y="520" fill="#cccccc" font-family="'Courier New', monospace" font-size="16">
    🟡 STANDBY SYSTEMS: <tspan fill="#fbbf24" font-weight="bold">✓ AUTHORIZED</tspan>
  </text>

  <text x="90" y="560" fill="#cccccc" font-family="'Courier New', monospace" font-size="16">
    🔴 DORMANT SYSTEMS: <tspan fill="#ef4444" font-weight="bold">⚠ REVIEW REQUIRED</tspan>
  </text>

  <text x="630" y="560" fill="#cccccc" font-family="'Courier New', monospace" font-size="16">
    🔒 RESTRICTED ACCESS: <tspan fill="#ff6b35" font-weight="bold">✓ ENFORCED</tspan>
  </text>

  <!-- Footer -->
  <rect x="0" y="660" width="1200" height="40" fill="#2a2a2a" opacity="0.8"/>
  <line x1="0" y1="660" x2="1200" y2="660" stroke="#ff6b35" stroke-width="1" opacity="0.5"/>
  <text x="600.0" y="685" fill="#cccccc"
        font-family="'Courier New', monospace" font-size="17" text-anchor="middle">
    LAST AUDIT: 2026-01-11 23:24 UTC •
    STATUS: <tspan fill="#ef4444" font-weight="bold">CRITICAL</tspan>
  </text>
</svg>