<svg width="1200" height="750" xmlns="http://www.w3.org/2000/svg">
  <defs>
    <!-- Metal gradient -->
    <linearGradient id="metalGrad" x1="0%" y1="0%" x2="0%" y2="100%">
      <stop offset="0%" style="stop-color:#2a2a2a;stop-opacity:1" />
      <stop offset="50%" style="stop-color:#1a1a1a;stop-opacity:1" />
      <stop offset="100%" style="stop-color:#252525;stop-opacity:1" />
    </linearGradient>

    <!-- Rivet gradient -->
    <radialGradient id="rivetGrad" cx="50%" cy="30%">
      <stop offset="0%" style="stop-color:#555;stop-opacity:1" />
      <stop offset="70%" style="stop-color:#333;stop-opacity:1" />
      <stop offset="100%" style="stop-color:#1a1a1a;stop-opacity:1" />
    </radialGradient>

    <!-- Subtle glow only -->
    <filter id="subtle-glow" x="-50%" y="-50%" width="200%" height="200%">
      <feGaussianBlur stdDeviation="2" result="coloredBlur"/>
      <feMerge>
        <feMergeNode in="coloredBlur"/>
        <feMergeNode in="SourceGraphic"/>
      </feMerge>
    </filter>
  </defs>

  <!-- Background -->
  <rect width="1200" height="750" fill="#0d0d0d"/>

  <!-- Very subtle grid pattern -->
<line x1="0" y1="0" x2="0" y2="750" stroke="#1a1a1a" stroke-width="1" opacity="0.3"/>
<line x1="100" y1="0" x2="100" y2="750" stroke="#1a1a1a" stroke-width="1" opacity="0.3"/>
<line x1="200" y1="0" x2="200" y2="750" stroke="#1a1a1a" stroke-width="1" opacity="0.3"/>
<line x1="300" y1="0" x2="300" y2="750" stroke="#1a1a1a" stroke-width="1" opacity="0.3"/>
<line x1="400" y1="0" x2="400" y2="750" stroke="#1a1a1a" stroke-width="1" opacity="0.3"/>
<line x1="500" y1="0" x2="500" y2="750" stroke="#1a1a1a" stroke-width="1" opacity="0.3"/>
<line x1="600" y1="0" x2="600" y2="750" stroke="#1a1a1a" stroke-width="1" opacity="0.3"/>
<line x1="700" y1="0" x2="700" y2="750" stroke="#1a1a1a" stroke-width="1" opacity="0.3"/>
<line x1="800" y1="0" x2="800" y2="750" stroke="#1a1a1a" stroke-width="1" opacity="0.3"/>
<line x1="900" y1="0" x2="900" y2="750" stroke="#1a1a1a" stroke-width="1" opacity="0.3"/>
<line x1="1000" y1="0" x2="1000" y2="750" stroke="#1a1a1a" stroke-width="1" opacity="0.3"/>
<line x1="1100" y1="0" x2="1100" y2="750" stroke="#1a1a1a" stroke-width="1" opacity="0.3"/>
<line x1="0" y1="0" x2="1200" y2="0" stroke="#1a1a1a" stroke-width="1" opacity="0.3"/>
<line x1="0" y1="100" x2="1200" y2="100" stroke="#1a1a1a" stroke-width="1" opacity="0.3"/>
<line x1="0" y1="200" x2="1200" y2="200" stroke="#1a1a1a" stroke-width="1" opacity="0.3"/>
<line x1="0" y1="300" x2="1200" y2="300" stroke="#1a1a1a" stroke-width="1" opacity="0.3"/>
<line x1="0" y1="400" x2="1200" y2="400" stroke="#1a1a1a" stroke-width="1" opacity="0.3"/>
<line x1="0" y1="500" x2="1200" y2="500" stroke="#1a1a1a" stroke-width="1" opacity="0.3"/>
<line x1="0" y1="600" x2="1200" y2="600" stroke="#1a1a1a" stroke-width="1" opacity="0.3"/>
<line x1="0" y1="700" x2="1200" y2="700" stroke="#1a1a1a" stroke-width="1" opacity="0.3"/>
  <!-- Dependency Chains -->

  <ellipse cx="610.0829037686548" cy="121.66666666666667" rx="8.0" ry="12.0"
           transform="rotate(120.00000000000001 610.0829037686548 121.66666666666667)"
           fill="#000" opacity="0.3"/>

  <ellipse cx="608.0829037686548" cy="119.66666666666667" rx="8.0" ry="12.0"
           transform="rotate(120.00000000000001 608.0829037686548 119.66666666666667)"
           fill="none" stroke="#ff6b35" stroke-width="4"
           filter="url(#subtle-glow)" opacity="0.95"/>

  <ellipse cx="608.0829037686548" cy="119.66666666666667" rx="6.0" ry="10.0"
           transform="rotate(120.00000000000001 608.0829037686548 119.66666666666667)"
           fill="none" stroke="#ff8c42" stroke-width="2" opacity="0.7"/>

  <ellipse cx="626.2487113059643" cy="131.0" rx="8.0" ry="12.0"
           transform="rotate(30.00000000000001 626.2487113059643 131.0)"
           fill="#000" opacity="0.3"/>

  <ellipse cx="624.2487113059643" cy="129.0" rx="8.0" ry="12.0"
           transform="rotate(30.00000000000001 624.2487113059643 129.0)"
           fill="none" stroke="#ff6b35" stroke-width="4"
           filter="url(#subtle-glow)" opacity="0.95"/>

  <ellipse cx="624.2487113059643" cy="129.0" rx="6.0" ry="10.0"
           transform="rotate(30.00000000000001 624.2487113059643 129.0)"
           fill="none" stroke="#ff8c42" stroke-width="2" opacity="0.7"/>

  <ellipse cx="642.4145188432738" cy="140.33333333333331" rx="8.0" ry="12.0"
           transform="rotate(120.00000000000001 642.4145188432738 140.33333333333331)"
           fill="#000" opacity="0.3"/>

  <ellipse cx="640.4145188432738" cy="138.33333333333331" rx="8.0" ry="12.0"
           transform="rotate(120.00000000000001 640.4145188432738 138.33333333333331)"
           fill="none" stroke="#ff6b35" stroke-width="4"
           filter="url(#subtle-glow)" opacity="0.95"/>

  <ellipse cx="640.4145188432738" cy="138.33333333333331" rx="6.0" ry="10.0"
           transform="rotate(120.00000000000001 640.4145188432738 138.33333333333331)"
           fill="none" stroke="#ff8c42" stroke-width="2" opacity="0.7"/>

  <ellipse cx="658.5803263805833" cy="149.66666666666666" rx="8.0" ry="12.0"
           transform="rotate(30.00000000000001 658.5803263805833 149.66666666666666)"
           fill="#000" opacity="0.3"/>

  <ellipse cx="656.5803263805833" cy="147.66666666666666" rx="8.0" ry="12.0"
           transform="rotate(30.00000000000001 656.5803263805833 147.66666666666666)"
           fill="none" stroke="#ff6b35" stroke-width="4"
           filter="url(#subtle-glow)" opacity="0.95"/>

  <ellipse cx="656.5803263805833" cy="147.66666666666666" rx="6.0" ry="10.0"
           transform="rotate(30.00000000000001 656.5803263805833 147.66666666666666)"
           fill="none" stroke="#ff8c42" stroke-width="2" opacity="0.7"/>

  <ellipse cx="674.7461339178928" cy="159.0" rx="8.0" ry="12.0"
           transform="rotate(120.00000000000001 674.7461339178928 159.0)"
           fill="#000" opacity="0.3"/>

  <ellipse cx="672.7461339178928" cy="157.0" rx="8.0" ry="12.0"
           transform="rotate(120.00000000000001 672.7461339178928 157.0)"
           fill="none" stroke="#ff6b35" stroke-width="4"
           filter="url(#subtle-glow)" opacity="0.95"/>

  <ellipse cx="672.7461339178928" cy="157.0" rx="6.0" ry="10.0"
           transform="rotate(120.00000000000001 672.7461339178928 157.0)"
           fill="none" stroke="#ff8c42" stroke-width="2" opacity="0.7"/>

  <ellipse cx="690.9119414552024" cy="168.33333333333334" rx="8.0" ry="12.0"
           transform="rotate(30.00000000000001 690.9119414552024 168.33333333333334)"
           fill="#000" opacity="0.3"/>

  <ellipse cx="688.9119414552024" cy="166.33333333333334" rx="8.0" ry="12.0"
           transform="rotate(30.00000000000001 688.9119414552024 166.33333333333334)"
           fill="none" stroke="#ff6b35" stroke-width="4"
           filter="url(#subtle-glow)" opacity="0.95"/>

  <ellipse cx="688.9119414552024" cy="166.33333333333334" rx="6.0" ry="10.0"
           transform="rotate(30.00000000000001 688.9119414552024 166.33333333333334)"
           fill="none" stroke="#ff8c42" stroke-width="2" opacity="0.7"/>

  <ellipse cx="707.0777489925118" cy="177.66666666666666" rx="8.0" ry="12.0"
           transform="rotate(120.00000000000001 707.0777489925118 177.66666666666666)"
           fill="#000" opacity="0.3"/>

  <ellipse cx="705.0777489925118" cy="175.66666666666666" rx="8.0" ry="12.0"
           transform="rotate(120.00000000000001 705.0777489925118 175.66666666666666)"
           fill="none" stroke="#ff6b35" stroke-width="4"
           filter="url(#subtle-glow)" opacity="0.95"/>

  <ellipse cx="705.0777489925118" cy="175.66666666666666" rx="6.0" ry="10.0"
           transform="rotate(120.00000000000001 705.0777489925118 175.66666666666666)"
           fill="none" stroke="#ff8c42" stroke-width="2" opacity="0.7"/>

  <ellipse cx="723.2435565298214" cy="187.0" rx="8.0" ry="12.0"
           transform="rotate(30.00000000000001 723.2435565298214 187.0)"
           fill="#000" opacity="0.3"/>

  <ellipse cx="721.2435565298214" cy="185.0" rx="8.0" ry="12.0"
           transform="rotate(30.00000000000001 721.2435565298214 185.0)"
           fill="none" stroke="#ff6b35" stroke-width="4"
           filter="url(#subtle-glow)" opacity="0.95"/>

  <ellipse cx="721.2435565298214" cy="185.0" rx="6.0" ry="10.0"
           transform="rotate(30.00000000000001 721.2435565298214 185.0)"
           fill="none" stroke="#ff8c42" stroke-width="2" opacity="0.7"/>

  <ellipse cx="739.4093640671309" cy="196.33333333333334" rx="8.0" ry="12.0"
           transform="rotate(120.00000000000001 739.4093640671309 196.33333333333334)"
           fill="#000" opacity="0.3"/>

  <ellipse cx="737.4093640671309" cy="194.33333333333334" rx="8.0" ry="12.0"
           transform="rotate(120.00000000000001 737.4093640671309 194.33333333333334)"
           fill="none" stroke="#ff6b35" stroke-width="4"
           filter="url(#subtle-glow)" opacity="0.95"/>

  <ellipse cx="737.4093640671309" cy="194.33333333333334" rx="6.0" ry="10.0"
           transform="rotate(120.00000000000001 737.4093640671309 194.33333333333334)"
           fill="none" stroke="#ff8c42" stroke-width="2" opacity="0.7"/>

  <ellipse cx="755.5751716044405" cy="205.66666666666666" rx="8.0" ry="12.0"
           transform="rotate(30.00000000000001 755.5751716044405 205.66666666666666)"
           fill="#000" opacity="0.3"/>

  <ellipse cx="753.5751716044405" cy="203.66666666666666" rx="8.0" ry="12.0"
           transform="rotate(30.00000000000001 753.5751716044405 203.66666666666666)"
           fill="none" stroke="#ff6b35" stroke-width="4"
           filter="url(#subtle-glow)" opacity="0.95"/>

  <ellipse cx="753.5751716044405" cy="203.66666666666666" rx="6.0" ry="10.0"
           transform="rotate(30.00000000000001 753.5751716044405 203.66666666666666)"
           fill="none" stroke="#ff8c42" stroke-width="2" opacity="0.7"/>

  <ellipse cx="771.7409791417499" cy="215.0" rx="8.0" ry="12.0"
           transform="rotate(120.00000000000001 771.7409791417499 215.0)"
           fill="#000" opacity="0.3"/>

  <ellipse cx="769.7409791417499" cy="213.0" rx="8.0" ry="12.0"
           transform="rotate(120.00000000000001 769.7409791417499 213.0)"
           fill="none" stroke="#ff6b35" stroke-width="4"
           filter="url(#subtle-glow)" opacity="0.95"/>

  <ellipse cx="769.7409791417499" cy="213.0" rx="6.0" ry="10.0"
           transform="rotate(120.00000000000001 769.7409791417499 213.0)"
           fill="none" stroke="#ff8c42" stroke-width="2" opacity="0.7"/>

  <ellipse cx="787.9067866790595" cy="224.33333333333334" rx="8.0" ry="12.0"
           transform="rotate(30.00000000000001 787.9067866790595 224.33333333333334)"
           fill="#000" opacity="0.3"/>

  <ellipse cx="785.9067866790595" cy="222.33333333333334" rx="8.0" ry="12.0"
           transform="rotate(30.00000000000001 785.9067866790595 222.33333333333334)"
           fill="none" stroke="#ff6b35" stroke-width="4"
           filter="url(#subtle-glow)" opacity="0.95"/>

  <ellipse cx="785.9067866790595" cy="222.33333333333334" rx="6.0" ry="10.0"
           transform="rotate(30.00000000000001 785.9067866790595 222.33333333333334)"
           fill="none" stroke="#ff8c42" stroke-width="2" opacity="0.7"/>

  <ellipse cx="804.0725942163689" cy="233.66666666666666" rx="8.0" ry="12.0"
           transform="rotate(120.00000000000001 804.0725942163689 233.66666666666666)"
           fill="#000" opacity="0.3"/>

  <ellipse cx="802.0725942163689" cy="231.66666666666666" rx="8.0" ry="12.0"
           transform="rotate(120.00000000000001 802.0725942163689 231.66666666666666)"
           fill="none" stroke="#ff6b35" stroke-width="4"
           filter="url(#subtle-glow)" opacity="0.95"/>

  <ellipse cx="802.0725942163689" cy="231.66666666666666" rx="6.0" ry="10.0"
           transform="rotate(120.00000000000001 802.0725942163689 231.66666666666666)"
           fill="none" stroke="#ff8c42" stroke-width="2" opacity="0.7"/>

  <ellipse cx="820.2384017536784" cy="243.0" rx="8.0" ry="12.0"
           transform="rotate(30.00000000000001 820.2384017536784 243.0)"
           fill="#000" opacity="0.3"/>

  <ellipse cx="818.2384017536784" cy="241.0" rx="8.0" ry="12.0"
           transform="rotate(30.00000000000001 818.2384017536784 241.0)"
           fill="none" stroke="#ff6b35" stroke-width="4"
           filter="url(#subtle-glow)" opacity="0.95"/>

  <ellipse cx="818.2384017536784" cy="241.0" rx="6.0" ry="10.0"
           transform="rotate(30.00000000000001 818.2384017536784 241.0)"
           fill="none" stroke="#ff8c42" stroke-width="2" opacity="0.7"/>

  <ellipse cx="836.404209290988" cy="252.33333333333334" rx="8.0" ry="12.0"
           transform="rotate(120.00000000000001 836.404209290988 252.33333333333334)"
           fill="#000" opacity="0.3"/>

  <ellipse cx="834.404209290988" cy="250.33333333333334" rx="8.0" ry="12.0"
           transform="rotate(120.00000000000001 834.404209290988 250.33333333333334)"
           fill="none" stroke="#ff6b35" stroke-width="4"
           filter="url(#subtle-glow)" opacity="0.95"/>

  <ellipse cx="834.404209290988" cy="250.33333333333334" rx="6.0" ry="10.0"
           transform="rotate(120.00000000000001 834.404209290988 250.33333333333334)"
           fill="none" stroke="#ff8c42" stroke-width="2" opacity="0.7"/>

  <ellipse cx="608.7357531405456" cy="128.66666666666669" rx="8.0" ry="12.0"
           transform="rotate(149.99999999999997 608.7357531405456 128.66666666666669)"
           fill="#000" opacity="0.3"/>

  <ellipse cx="606.7357531405456" cy="126.66666666666667" rx="8.0" ry="12.0"
           transform="rotate(149.99999999999997 606.7357531405456 126.66666666666667)"
           fill="none" stroke="#ff6b35" stroke-width="4"
           filter="url(#subtle-glow)" opacity="0.95"/>

  <ellipse cx="606.7357531405456" cy="126.66666666666667" rx="6.0" ry="10.0"
           transform="rotate(149.99999999999997 606.7357531405456 126.66666666666667)"
           fill="none" stroke="#ff8c42" stroke-width="2" opacity="0.7"/>

  <ellipse cx="622.2072594216369" cy="152.0" rx="8.0" ry="12.0"
           transform="rotate(59.99999999999999 622.2072594216369 152.0)"
           fill="#000" opacity="0.3"/>

  <ellipse cx="620.2072594216369" cy="150.0" rx="8.0" ry="12.0"
           transform="rotate(59.99999999999999 620.2072594216369 150.0)"
           fill="none" stroke="#ff6b35" stroke-width="4"
           filter="url(#subtle-glow)" opacity="0.95"/>

  <ellipse cx="620.2072594216369" cy="150.0" rx="6.0" ry="10.0"
           transform="rotate(59.99999999999999 620.2072594216369 150.0)"
           fill="none" stroke="#ff8c42" stroke-width="2" opacity="0.7"/>

  <ellipse cx="635.6787657027281" cy="175.33333333333331" rx="8.0" ry="12.0"
           transform="rotate(149.99999999999997 635.6787657027281 175.33333333333331)"
           fill="#000" opacity="0.3"/>

  <ellipse cx="633.6787657027281" cy="173.33333333333331" rx="8.0" ry="12.0"
           transform="rotate(149.99999999999997 633.6787657027281 173.33333333333331)"
           fill="none" stroke="#ff6b35" stroke-width="4"
           filter="url(#subtle-glow)" opacity="0.95"/>

  <ellipse cx="633.6787657027281" cy="173.33333333333331" rx="6.0" ry="10.0"
           transform="rotate(149.99999999999997 633.6787657027281 173.33333333333331)"
           fill="none" stroke="#ff8c42" stroke-width="2" opacity="0.7"/>

  <ellipse cx="649.1502719838194" cy="198.66666666666666" rx="8.0" ry="12.0"
           transform="rotate(59.99999999999999 649.1502719838194 198.66666666666666)"
           fill="#000" opacity="0.3"/>

  <ellipse cx="647.1502719838194" cy="196.66666666666666" rx="8.0" ry="12.0"
           transform="rotate(59.99999999999999 647.1502719838194 196.66666666666666)"
           fill="none" stroke="#ff6b35" stroke-width="4"
           filter="url(#subtle-glow)" opacity="0.95"/>

  <ellipse cx="647.1502719838194" cy="196.66666666666666" rx="6.0" ry="10.0"
           transform="rotate(59.99999999999999 647.1502719838194 196.66666666666666)"
           fill="none" stroke="#ff8c42" stroke-width="2" opacity="0.7"/>

  <ellipse cx="662.6217782649107" cy="221.99999999999997" rx="8.0" ry="12.0"
           transform="rotate(149.99999999999997 662.6217782649107 221.99999999999997)"
           fill="#000" opacity="0.3"/>

  <ellipse cx="660.6217782649107" cy="219.99999999999997" rx="8.0" ry="12.0"
           transform="rotate(149.99999999999997 660.6217782649107 219.99999999999997)"
           fill="none" stroke="#ff6b35" stroke-width="4"
           filter="url(#subtle-glow)" opacity="0.95"/>

  <ellipse cx="660.6217782649107" cy="219.99999999999997" rx="6.0" ry="10.0"
           transform="rotate(149.99999999999997 660.6217782649107 219.99999999999997)"
           fill="none" stroke="#ff8c42" stroke-width="2" opacity="0.7"/>

  <ellipse cx="676.093284546002" cy="245.33333333333331" rx="8.0" ry="12.0"
           transform="rotate(59.99999999999999 676.093284546002 245.33333333333331)"
           fill="#000" opacity="0.3"/>

  <ellipse cx="674.093284546002" cy="243.33333333333331" rx="8.0" ry="12.0"
           transform="rotate(59.99999999999999 674.093284546002 243.33333333333331)"
           fill="none" stroke="#ff6b35" stroke-width="4"
           filter="url(#subtle-glow)" opacity="0.95"/>

  <ellipse cx="674.093284546002" cy="243.33333333333331" rx="6.0" ry="10.0"
           transform="rotate(59.99999999999999 674.093284546002 243.33333333333331)"
           fill="none" stroke="#ff8c42" stroke-width="2" opacity="0.7"/>

  <ellipse cx="689.5647908270932" cy="268.6666666666667" rx="8.0" ry="12.0"
           transform="rotate(149.99999999999997 689.5647908270932 268.6666666666667)"
           fill="#000" opacity="0.3"/>

  <ellipse cx="687.5647908270932" cy="266.6666666666667" rx="8.0" ry="12.0"
           transform="rotate(149.99999999999997 687.5647908270932 266.6666666666667)"
           fill="none" stroke="#ff6b35" stroke-width="4"
           filter="url(#subtle-glow)" opacity="0.95"/>

  <ellipse cx="687.5647908270932" cy="266.6666666666667" rx="6.0" ry="10.0"
           transform="rotate(149.99999999999997 687.5647908270932 266.6666666666667)"
           fill="none" stroke="#ff8c42" stroke-width="2" opacity="0.7"/>

  <ellipse cx="703.0362971081845" cy="292.0" rx="8.0" ry="12.0"
           transform="rotate(59.99999999999999 703.0362971081845 292.0)"
           fill="#000" opacity="0.3"/>

  <ellipse cx="701.0362971081845" cy="290.0" rx="8.0" ry="12.0"
           transform="rotate(59.99999999999999 701.0362971081845 290.0)"
           fill="none" stroke="#ff6b35" stroke-width="4"
           filter="url(#subtle-glow)" opacity="0.95"/>

  <ellipse cx="701.0362971081845" cy="290.0" rx="6.0" ry="10.0"
           transform="rotate(59.99999999999999 701.0362971081845 290.0)"
           fill="none" stroke="#ff8c42" stroke-width="2" opacity="0.7"/>

  <ellipse cx="716.5078033892758" cy="315.3333333333333" rx="8.0" ry="12.0"
           transform="rotate(149.99999999999997 716.5078033892758 315.3333333333333)"
           fill="#000" opacity="0.3"/>

  <ellipse cx="714.5078033892758" cy="313.3333333333333" rx="8.0" ry="12.0"
           transform="rotate(149.99999999999997 714.5078033892758 313.3333333333333)"
           fill="none" stroke="#ff6b35" stroke-width="4"
           filter="url(#subtle-glow)" opacity="0.95"/>

  <ellipse cx="714.5078033892758" cy="313.3333333333333" rx="6.0" ry="10.0"
           transform="rotate(149.99999999999997 714.5078033892758 313.3333333333333)"
           fill="none" stroke="#ff8c42" stroke-width="2" opacity="0.7"/>

  <ellipse cx="729.9793096703671" cy="338.6666666666667" rx="8.0" ry="12.0"
           transform="rotate(59.99999999999999 729.9793096703671 338.6666666666667)"
           fill="#000" opacity="0.3"/>

  <ellipse cx="727.9793096703671" cy="336.6666666666667" rx="8.0" ry="12.0"
           transform="rotate(59.99999999999999 727.9793096703671 336.6666666666667)"
           fill="none" stroke="#ff6b35" stroke-width="4"
           filter="url(#subtle-glow)" opacity="0.95"/>

  <ellipse cx="727.9793096703671" cy="336.6666666666667" rx="6.0" ry="10.0"
           transform="rotate(59.99999999999999 727.9793096703671 336.6666666666667)"
           fill="none" stroke="#ff8c42" stroke-width="2" opacity="0.7"/>

  <ellipse cx="743.4508159514584" cy="362.0" rx="8.0" ry="12.0"
           transform="rotate(149.99999999999997 743.4508159514584 362.0)"
           fill="#000" opacity="0.3"/>

  <ellipse cx="741.4508159514584" cy="360.0" rx="8.0" ry="12.0"
           transform="rotate(149.99999999999997 741.4508159514584 360.0)"
           fill="none" stroke="#ff6b35" stroke-width="4"
           filter="url(#subtle-glow)" opacity="0.95"/>

  <ellipse cx="741.4508159514584" cy="360.0" rx="6.0" ry="10.0"
           transform="rotate(149.99999999999997 741.4508159514584 360.0)"
           fill="none" stroke="#ff8c42" stroke-width="2" opacity="0.7"/>

  <ellipse cx="756.9223222325496" cy="385.3333333333333" rx="8.0" ry="12.0"
           transform="rotate(59.99999999999999 756.9223222325496 385.3333333333333)"
           fill="#000" opacity="0.3"/>

  <ellipse cx="754.9223222325496" cy="383.3333333333333" rx="8.0" ry="12.0"
           transform="rotate(59.99999999999999 754.9223222325496 383.3333333333333)"
           fill="none" stroke="#ff6b35" stroke-width="4"
           filter="url(#subtle-glow)" opacity="0.95"/>

  <ellipse cx="754.9223222325496" cy="383.3333333333333" rx="6.0" ry="10.0"
           transform="rotate(59.99999999999999 754.9223222325496 383.3333333333333)"
           fill="none" stroke="#ff8c42" stroke-width="2" opacity="0.7"/>

  <ellipse cx="770.3938285136409" cy="408.6666666666667" rx="8.0" ry="12.0"
           transform="rotate(149.99999999999997 770.3938285136409 408.6666666666667)"
           fill="#000" opacity="0.3"/>

  <ellipse cx="768.3938285136409" cy="406.6666666666667" rx="8.0" ry="12.0"
           transform="rotate(149.99999999999997 768.3938285136409 406.6666666666667)"
           fill="none" stroke="#ff6b35" stroke-width="4"
           filter="url(#subtle-glow)" opacity="0.95"/>

  <ellipse cx="768.3938285136409" cy="406.6666666666667" rx="6.0" ry="10.0"
           transform="rotate(149.99999999999997 768.3938285136409 406.6666666666667)"
           fill="none" stroke="#ff8c42" stroke-width="2" opacity="0.7"/>

  <ellipse cx="783.8653347947321" cy="432.0" rx="8.0" ry="12.0"
           transform="rotate(59.99999999999999 783.8653347947321 432.0)"
           fill="#000" opacity="0.3"/>

  <ellipse cx="781.8653347947321" cy="430.0" rx="8.0" ry="12.0"
           transform="rotate(59.99999999999999 781.8653347947321 430.0)"
           fill="none" stroke="#ff6b35" stroke-width="4"
           filter="url(#subtle-glow)" opacity="0.95"/>

  <ellipse cx="781.8653347947321" cy="430.0" rx="6.0" ry="10.0"
           transform="rotate(59.99999999999999 781.8653347947321 430.0)"
           fill="none" stroke="#ff8c42" stroke-width="2" opacity="0.7"/>

  <ellipse cx="797.3368410758234" cy="455.3333333333333" rx="8.0" ry="12.0"
           transform="rotate(149.99999999999997 797.3368410758234 455.3333333333333)"
           fill="#000" opacity="0.3"/>

  <ellipse cx="795.3368410758234" cy="453.3333333333333" rx="8.0" ry="12.0"
           transform="rotate(149.99999999999997 795.3368410758234 453.3333333333333)"
           fill="none" stroke="#ff6b35" stroke-width="4"
           filter="url(#subtle-glow)" opacity="0.95"/>

  <ellipse cx="795.3368410758234" cy="453.3333333333333" rx="6.0" ry="10.0"
           transform="rotate(149.99999999999997 795.3368410758234 453.3333333333333)"
           fill="none" stroke="#ff8c42" stroke-width="2" opacity="0.7"/>

  <ellipse cx="810.8083473569146" cy="478.6666666666667" rx="8.0" ry="12.0"
           transform="rotate(59.99999999999999 810.8083473569146 478.6666666666667)"
           fill="#000" opacity="0.3"/>

  <ellipse cx="808.8083473569146" cy="476.6666666666667" rx="8.0" ry="12.0"
           transform="rotate(59.99999999999999 808.8083473569146 476.6666666666667)"
           fill="none" stroke="#ff6b35" stroke-width="4"
           filter="url(#subtle-glow)" opacity="0.95"/>

  <ellipse cx="808.8083473569146" cy="476.6666666666667" rx="6.0" ry="10.0"
           transform="rotate(59.99999999999999 808.8083473569146 476.6666666666667)"
           fill="none" stroke="#ff8c42" stroke-width="2" opacity="0.7"/>

  <ellipse cx="824.279853638006" cy="502.0" rx="8.0" ry="12.0"
           transform="rotate(149.99999999999997 824.279853638006 502.0)"
           fill="#000" opacity="0.3"/>

  <ellipse cx="822.279853638006" cy="500.0" rx="8.0" ry="12.0"
           transform="rotate(149.99999999999997 822.279853638006 500.0)"
           fill="none" stroke="#ff6b35" stroke-width="4"
           filter="url(#subtle-glow)" opacity="0.95"/>

  <ellipse cx="822.279853638006" cy="500.0" rx="6.0" ry="10.0"
           transform="rotate(149.99999999999997 822.279853638006 500.0)"
           fill="none" stroke="#ff8c42" stroke-width="2" opacity="0.7"/>

  <ellipse cx="837.7513599190972" cy="525.3333333333333" rx="8.0" ry="12.0"
           transform="rotate(59.99999999999999 837.7513599190972 525.3333333333333)"
           fill="#000" opacity="0.3"/>

  <ellipse cx="835.7513599190972" cy="523.3333333333333" rx="8.0" ry="12.0"
           transform="rotate(59.99999999999999 835.7513599190972 523.3333333333333)"
           fill="none" stroke="#ff6b35" stroke-width="4"
           filter="url(#subtle-glow)" opacity="0.95"/>

  <ellipse cx="835.7513599190972" cy="523.3333333333333" rx="6.0" ry="10.0"
           transform="rotate(59.99999999999999 835.7513599190972 523.3333333333333)"
           fill="none" stroke="#ff8c42" stroke-width="2" opacity="0.7"/>

  <ellipse cx="844.4871130596428" cy="266.3333333333333" rx="8.0" ry="12.0"
           transform="rotate(179.99999999999997 844.4871130596428 266.3333333333333)"
           fill="#000" opacity="0.3"/>

  <ellipse cx="842.4871130596428" cy="264.3333333333333" rx="8.0" ry="12.0"
           transform="rotate(179.99999999999997 842.4871130596428 264.3333333333333)"
           fill="none" stroke="#ff6b35" stroke-width="4"
           filter="url(#subtle-glow)" opacity="0.95"/>

  <ellipse cx="842.4871130596428" cy="264.3333333333333" rx="6.0" ry="10.0"
           transform="rotate(179.99999999999997 842.4871130596428 264.3333333333333)"
           fill="none" stroke="#ff8c42" stroke-width="2" opacity="0.7"/>

  <ellipse cx="844.4871130596428" cy="285.0" rx="8.0" ry="12.0"
           transform="rotate(89.99999999999997 844.4871130596428 285.0)"
           fill="#000" opacity="0.3"/>

  <ellipse cx="842.4871130596428" cy="283.0" rx="8.0" ry="12.0"
           transform="rotate(89.99999999999997 842.4871130596428 283.0)"
           fill="none" stroke="#ff6b35" stroke-width="4"
           filter="url(#subtle-glow)" opacity="0.95"/>

  <ellipse cx="842.4871130596428" cy="283.0" rx="6.0" ry="10.0"
           transform="rotate(89.99999999999997 842.4871130596428 283.0)"
           fill="none" stroke="#ff8c42" stroke-width="2" opacity="0.7"/>

  <ellipse cx="844.4871130596428" cy="303.66666666666663" rx="8.0" ry="12.0"
           transform="rotate(179.99999999999997 844.4871130596428 303.66666666666663)"
           fill="#000" opacity="0.3"/>

  <ellipse cx="842.4871130596428" cy="301.66666666666663" rx="8.0" ry="12.0"
           transform="rotate(179.99999999999997 842.4871130596428 301.66666666666663)"
           fill="none" stroke="#ff6b35" stroke-width="4"
           filter="url(#subtle-glow)" opacity="0.95"/>

  <ellipse cx="842.4871130596428" cy="301.66666666666663" rx="6.0" ry="10.0"
           transform="rotate(179.99999999999997 842.4871130596428 301.66666666666663)"
           fill="none" stroke="#ff8c42" stroke-width="2" opacity="0.7"/>

  <ellipse cx="844.4871130596428" cy="322.3333333333333" rx="8.0" ry="12.0"
           transform="rotate(89.99999999999997 844.4871130596428 322.3333333333333)"
           fill="#000" opacity="0.3"/>

  <ellipse cx="842.4871130596428" cy="320.3333333333333" rx="8.0" ry="12.0"
           transform="rotate(89.99999999999997 842.4871130596428 320.3333333333333)"
           fill="none" stroke="#ff6b35" stroke-width="4"
           filter="url(#subtle-glow)" opacity="0.95"/>

  <ellipse cx="842.4871130596428" cy="320.3333333333333" rx="6.0" ry="10.0"
           transform="rotate(89.99999999999997 842.4871130596428 320.3333333333333)"
           fill="none" stroke="#ff8c42" stroke-width="2" opacity="0.7"/>

  <ellipse cx="844.4871130596428" cy="341.0" rx="8.0" ry="12.0"
           transform="rotate(179.99999999999997 844.4871130596428 341.0)"
           fill="#000" opacity="0.3"/>

  <ellipse cx="842.4871130596428" cy="339.0" rx="8.0" ry="12.0"
           transform="rotate(179.99999999999997 842.4871130596428 339.0)"
           fill="none" stroke="#ff6b35" stroke-width="4"
           filter="url(#subtle-glow)" opacity="0.95"/>

  <ellipse cx="842.4871130596428" cy="339.0" rx="6.0" ry="10.0"
           transform="rotate(179.99999999999997 842.4871130596428 339.0)"
           fill="none" stroke="#ff8c42" stroke-width="2" opacity="0.7"/>

  <ellipse cx="844.4871130596428" cy="359.6666666666667" rx="8.0" ry="12.0"
           transform="rotate(89.99999999999997 844.4871130596428 359.6666666666667)"
           fill="#000" opacity="0.3"/>

  <ellipse cx="842.4871130596428" cy="357.6666666666667" rx="8.0" ry="12.0"
           transform="rotate(89.99999999999997 842.4871130596428 357.6666666666667)"
           fill="none" stroke="#ff6b35" stroke-width="4"
           filter="url(#subtle-glow)" opacity="0.95"/>

  <ellipse cx="842.4871130596428" cy="357.6666666666667" rx="6.0" ry="10.0"
           transform="rotate(89.99999999999997 842.4871130596428 357.6666666666667)"
           fill="none" stroke="#ff8c42" stroke-width="2" opacity="0.7"/>

  <ellipse cx="844.4871130596428" cy="378.3333333333333" rx="8.0" ry="12.0"
           transform="rotate(179.99999999999997 844.4871130596428 378.3333333333333)"
           fill="#000" opacity="0.3"/>

  <ellipse cx="842.4871130596428" cy="376.3333333333333" rx="8.0" ry="12.0"
           transform="rotate(179.99999999999997 842.4871130596428 376.3333333333333)"
           fill="none" stroke="#ff6b35" stroke-width="4"
           filter="url(#subtle-glow)" opacity="0.95"/>

  <ellipse cx="842.4871130596428" cy="376.3333333333333" rx="6.0" ry="10.0"
           transform="rotate(179.99999999999997 842.4871130596428 376.3333333333333)"
           fill="none" stroke="#ff8c42" stroke-width="2" opacity="0.7"/>

  <ellipse cx="844.4871130596428" cy="397.0" rx="8.0" ry="12.0"
           transform="rotate(89.99999999999997 844.4871130596428 397.0)"
           fill="#000" opacity="0.3"/>

  <ellipse cx="842.4871130596428" cy="395.0" rx="8.0" ry="12.0"
           transform="rotate(89.99999999999997 842.4871130596428 395.0)"
           fill="none" stroke="#ff6b35" stroke-width="4"
           filter="url(#subtle-glow)" opacity="0.95"/>

  <ellipse cx="842.4871130596428" cy="395.0" rx="6.0" ry="10.0"
           transform="rotate(89.99999999999997 842.4871130596428 395.0)"
           fill="none" stroke="#ff8c42" stroke-width="2" opacity="0.7"/>

  <ellipse cx="844.4871130596429" cy="415.6666666666667" rx="8.0" ry="12.0"
           transform="rotate(179.99999999999997 844.4871130596429 415.6666666666667)"
           fill="#000" opacity="0.3"/>

  <ellipse cx="842.4871130596429" cy="413.6666666666667" rx="8.0" ry="12.0"
           transform="rotate(179.99999999999997 842.4871130596429 413.6666666666667)"
           fill="none" stroke="#ff6b35" stroke-width="4"
           filter="url(#subtle-glow)" opacity="0.95"/>

  <ellipse cx="842.4871130596429" cy="413.6666666666667" rx="6.0" ry="10.0"
           transform="rotate(179.99999999999997 842.4871130596429 413.6666666666667)"
           fill="none" stroke="#ff8c42" stroke-width="2" opacity="0.7"/>

  <ellipse cx="844.4871130596429" cy="434.3333333333333" rx="8.0" ry="12.0"
           transform="rotate(89.99999999999997 844.4871130596429 434.3333333333333)"
           fill="#000" opacity="0.3"/>

  <ellipse cx="842.4871130596429" cy="432.3333333333333" rx="8.0" ry="12.0"
           transform="rotate(89.99999999999997 842.4871130596429 432.3333333333333)"
           fill="none" stroke="#ff6b35" stroke-width="4"
           filter="url(#subtle-glow)" opacity="0.95"/>

  <ellipse cx="842.4871130596429" cy="432.3333333333333" rx="6.0" ry="10.0"
           transform="rotate(89.99999999999997 842.4871130596429 432.3333333333333)"
           fill="none" stroke="#ff8c42" stroke-width="2" opacity="0.7"/>

  <ellipse cx="844.4871130596429" cy="453.0" rx="8.0" ry="12.0"
           transform="rotate(179.99999999999997 844.4871130596429 453.0)"
           fill="#000" opacity="0.3"/>

  <ellipse cx="842.4871130596429" cy="451.0" rx="8.0" ry="12.0"
           transform="rotate(179.99999999999997 842.4871130596429 451.0)"
           fill="none" stroke="#ff6b35" stroke-width="4"
           filter="url(#subtle-glow)" opacity="0.95"/>

  <ellipse cx="842.4871130596429" cy="451.0" rx="6.0" ry="10.0"
           transform="rotate(179.99999999999997 842.4871130596429 451.0)"
           fill="none" stroke="#ff8c42" stroke-width="2" opacity="0.7"/>

  <ellipse cx="844.4871130596429" cy="471.6666666666667" rx="8.0" ry="12.0"
           transform="rotate(89.99999999999997 844.4871130596429 471.6666666666667)"
           fill="#000" opacity="0.3"/>

  <ellipse cx="842.4871130596429" cy="469.6666666666667" rx="8.0" ry="12.0"
           transform="rotate(89.99999999999997 842.4871130596429 469.6666666666667)"
           fill="none" stroke="#ff6b35" stroke-width="4"
           filter="url(#subtle-glow)" opacity="0.95"/>

  <ellipse cx="842.4871130596429" cy="469.6666666666667" rx="6.0" ry="10.0"
           transform="rotate(89.99999999999997 842.4871130596429 469.6666666666667)"
           fill="none" stroke="#ff8c42" stroke-width="2" opacity="0.7"/>

  <ellipse cx="844.4871130596429" cy="490.3333333333333" rx="8.0" ry="12.0"
           transform="rotate(179.99999999999997 844.4871130596429 490.3333333333333)"
           fill="#000" opacity="0.3"/>

  <ellipse cx="842.4871130596429" cy="488.3333333333333" rx="8.0" ry="12.0"
           transform="rotate(179.99999999999997 842.4871130596429 488.3333333333333)"
           fill="none" stroke="#ff6b35" stroke-width="4"
           filter="url(#subtle-glow)" opacity="0.95"/>

  <ellipse cx="842.4871130596429" cy="488.3333333333333" rx="6.0" ry="10.0"
           transform="rotate(179.99999999999997 842.4871130596429 488.3333333333333)"
           fill="none" stroke="#ff8c42" stroke-width="2" opacity="0.7"/>

  <ellipse cx="844.4871130596429" cy="509.0" rx="8.0" ry="12.0"
           transform="rotate(89.99999999999997 844.4871130596429 509.0)"
           fill="#000" opacity="0.3"/>

  <ellipse cx="842.4871130596429" cy="507.0" rx="8.0" ry="12.0"
           transform="rotate(89.99999999999997 842.4871130596429 507.0)"
           fill="none" stroke="#ff6b35" stroke-width="4"
           filter="url(#subtle-glow)" opacity="0.95"/>

  <ellipse cx="842.4871130596429" cy="507.0" rx="6.0" ry="10.0"
           transform="rotate(89.99999999999997 842.4871130596429 507.0)"
           fill="none" stroke="#ff8c42" stroke-width="2" opacity="0.7"/>

  <ellipse cx="844.4871130596429" cy="527.6666666666667" rx="8.0" ry="12.0"
           transform="rotate(179.99999999999997 844.4871130596429 527.6666666666667)"
           fill="#000" opacity="0.3"/>

  <ellipse cx="842.4871130596429" cy="525.6666666666667" rx="8.0" ry="12.0"
           transform="rotate(179.99999999999997 842.4871130596429 525.6666666666667)"
           fill="none" stroke="#ff6b35" stroke-width="4"
           filter="url(#subtle-glow)" opacity="0.95"/>

  <ellipse cx="842.4871130596429" cy="525.6666666666667" rx="6.0" ry="10.0"
           transform="rotate(179.99999999999997 842.4871130596429 525.6666666666667)"
           fill="none" stroke="#ff8c42" stroke-width="2" opacity="0.7"/>

  <ellipse cx="836.4042092909881" cy="541.6666666666666" rx="8.0" ry="12.0"
           transform="rotate(240.00000000000003 836.4042092909881 541.6666666666666)"
           fill="#000" opacity="0.3"/>

  <ellipse cx="834.4042092909881" cy="539.6666666666666" rx="8.0" ry="12.0"
           transform="rotate(240.00000000000003 834.4042092909881 539.6666666666666)"
           fill="none" stroke="#ff6b35" stroke-width="4"
           filter="url(#subtle-glow)" opacity="0.95"/>

  <ellipse cx="834.4042092909881" cy="539.6666666666666" rx="6.0" ry="10.0"
           transform="rotate(240.00000000000003 834.4042092909881 539.6666666666666)"
           fill="none" stroke="#ff8c42" stroke-width="2" opacity="0.7"/>

  <ellipse cx="820.2384017536785" cy="551.0" rx="8.0" ry="12.0"
           transform="rotate(150.0 820.2384017536785 551.0)"
           fill="#000" opacity="0.3"/>

  <ellipse cx="818.2384017536785" cy="549.0" rx="8.0" ry="12.0"
           transform="rotate(150.0 818.2384017536785 549.0)"
           fill="none" stroke="#ff6b35" stroke-width="4"
           filter="url(#subtle-glow)" opacity="0.95"/>

  <ellipse cx="818.2384017536785" cy="549.0" rx="6.0" ry="10.0"
           transform="rotate(150.0 818.2384017536785 549.0)"
           fill="none" stroke="#ff8c42" stroke-width="2" opacity="0.7"/>

  <ellipse cx="804.072594216369" cy="560.3333333333333" rx="8.0" ry="12.0"
           transform="rotate(240.00000000000003 804.072594216369 560.3333333333333)"
           fill="#000" opacity="0.3"/>

  <ellipse cx="802.072594216369" cy="558.3333333333333" rx="8.0" ry="12.0"
           transform="rotate(240.00000000000003 802.072594216369 558.3333333333333)"
           fill="none" stroke="#ff6b35" stroke-width="4"
           filter="url(#subtle-glow)" opacity="0.95"/>

  <ellipse cx="802.072594216369" cy="558.3333333333333" rx="6.0" ry="10.0"
           transform="rotate(240.00000000000003 802.072594216369 558.3333333333333)"
           fill="none" stroke="#ff8c42" stroke-width="2" opacity="0.7"/>

  <ellipse cx="787.9067866790596" cy="569.6666666666666" rx="8.0" ry="12.0"
           transform="rotate(150.0 787.9067866790596 569.6666666666666)"
           fill="#000" opacity="0.3"/>

  <ellipse cx="785.9067866790596" cy="567.6666666666666" rx="8.0" ry="12.0"
           transform="rotate(150.0 785.9067866790596 567.6666666666666)"
           fill="none" stroke="#ff6b35" stroke-width="4"
           filter="url(#subtle-glow)" opacity="0.95"/>

  <ellipse cx="785.9067866790596" cy="567.6666666666666" rx="6.0" ry="10.0"
           transform="rotate(150.0 785.9067866790596 567.6666666666666)"
           fill="none" stroke="#ff8c42" stroke-width="2" opacity="0.7"/>

  <ellipse cx="771.74097914175" cy="579.0" rx="8.0" ry="12.0"
           transform="rotate(240.00000000000003 771.74097914175 579.0)"
           fill="#000" opacity="0.3"/>

  <ellipse cx="769.74097914175" cy="577.0" rx="8.0" ry="12.0"
           transform="rotate(240.00000000000003 769.74097914175 577.0)"
           fill="none" stroke="#ff6b35" stroke-width="4"
           filter="url(#subtle-glow)" opacity="0.95"/>

  <ellipse cx="769.74097914175" cy="577.0" rx="6.0" ry="10.0"
           transform="rotate(240.00000000000003 769.74097914175 577.0)"
           fill="none" stroke="#ff8c42" stroke-width="2" opacity="0.7"/>

  <ellipse cx="755.5751716044405" cy="588.3333333333333" rx="8.0" ry="12.0"
           transform="rotate(150.0 755.5751716044405 588.3333333333333)"
           fill="#000" opacity="0.3"/>

  <ellipse cx="753.5751716044405" cy="586.3333333333333" rx="8.0" ry="12.0"
           transform="rotate(150.0 753.5751716044405 586.3333333333333)"
           fill="none" stroke="#ff6b35" stroke-width="4"
           filter="url(#subtle-glow)" opacity="0.95"/>

  <ellipse cx="753.5751716044405" cy="586.3333333333333" rx="6.0" ry="10.0"
           transform="rotate(150.0 753.5751716044405 586.3333333333333)"
           fill="none" stroke="#ff8c42" stroke-width="2" opacity="0.7"/>

  <ellipse cx="739.4093640671309" cy="597.6666666666666" rx="8.0" ry="12.0"
           transform="rotate(240.00000000000003 739.4093640671309 597.6666666666666)"
           fill="#000" opacity="0.3"/>

  <ellipse cx="737.4093640671309" cy="595.6666666666666" rx="8.0" ry="12.0"
           transform="rotate(240.00000000000003 737.4093640671309 595.6666666666666)"
           fill="none" stroke="#ff6b35" stroke-width="4"
           filter="url(#subtle-glow)" opacity="0.95"/>

  <ellipse cx="737.4093640671309" cy="595.6666666666666" rx="6.0" ry="10.0"
           transform="rotate(240.00000000000003 737.4093640671309 595.6666666666666)"
           fill="none" stroke="#ff8c42" stroke-width="2" opacity="0.7"/>

  <ellipse cx="723.2435565298214" cy="607.0" rx="8.0" ry="12.0"
           transform="rotate(150.0 723.2435565298214 607.0)"
           fill="#000" opacity="0.3"/>

  <ellipse cx="721.2435565298214" cy="605.0" rx="8.0" ry="12.0"
           transform="rotate(150.0 721.2435565298214 605.0)"
           fill="none" stroke="#ff6b35" stroke-width="4"
           filter="url(#subtle-glow)" opacity="0.95"/>

  <ellipse cx="721.2435565298214" cy="605.0" rx="6.0" ry="10.0"
           transform="rotate(150.0 721.2435565298214 605.0)"
           fill="none" stroke="#ff8c42" stroke-width="2" opacity="0.7"/>

  <ellipse cx="707.0777489925118" cy="616.3333333333333" rx="8.0" ry="12.0"
           transform="rotate(240.00000000000003 707.0777489925118 616.3333333333333)"
           fill="#000" opacity="0.3"/>

  <ellipse cx="705.0777489925118" cy="614.3333333333333" rx="8.0" ry="12.0"
           transform="rotate(240.00000000000003 705.0777489925118 614.3333333333333)"
           fill="none" stroke="#ff6b35" stroke-width="4"
           filter="url(#subtle-glow)" opacity="0.95"/>

  <ellipse cx="705.0777489925118" cy="614.3333333333333" rx="6.0" ry="10.0"
           transform="rotate(240.00000000000003 705.0777489925118 614.3333333333333)"
           fill="none" stroke="#ff8c42" stroke-width="2" opacity="0.7"/>

  <ellipse cx="690.9119414552024" cy="625.6666666666666" rx="8.0" ry="12.0"
           transform="rotate(150.0 690.9119414552024 625.6666666666666)"
           fill="#000" opacity="0.3"/>

  <ellipse cx="688.9119414552024" cy="623.6666666666666" rx="8.0" ry="12.0"
           transform="rotate(150.0 688.9119414552024 623.6666666666666)"
           fill="none" stroke="#ff6b35" stroke-width="4"
           filter="url(#subtle-glow)" opacity="0.95"/>

  <ellipse cx="688.9119414552024" cy="623.6666666666666" rx="6.0" ry="10.0"
           transform="rotate(150.0 688.9119414552024 623.6666666666666)"
           fill="none" stroke="#ff8c42" stroke-width="2" opacity="0.7"/>

  <ellipse cx="674.7461339178928" cy="635.0" rx="8.0" ry="12.0"
           transform="rotate(240.00000000000003 674.7461339178928 635.0)"
           fill="#000" opacity="0.3"/>

  <ellipse cx="672.7461339178928" cy="633.0" rx="8.0" ry="12.0"
           transform="rotate(240.00000000000003 672.7461339178928 633.0)"
           fill="none" stroke="#ff6b35" stroke-width="4"
           filter="url(#subtle-glow)" opacity="0.95"/>

  <ellipse cx="672.7461339178928" cy="633.0" rx="6.0" ry="10.0"
           transform="rotate(240.00000000000003 672.7461339178928 633.0)"
           fill="none" stroke="#ff8c42" stroke-width="2" opacity="0.7"/>

  <ellipse cx="658.5803263805833" cy="644.3333333333333" rx="8.0" ry="12.0"
           transform="rotate(150.0 658.5803263805833 644.3333333333333)"
           fill="#000" opacity="0.3"/>

  <ellipse cx="656.5803263805833" cy="642.3333333333333" rx="8.0" ry="12.0"
           transform="rotate(150.0 656.5803263805833 642.3333333333333)"
           fill="none" stroke="#ff6b35" stroke-width="4"
           filter="url(#subtle-glow)" opacity="0.95"/>

  <ellipse cx="656.5803263805833" cy="642.3333333333333" rx="6.0" ry="10.0"
           transform="rotate(150.0 656.5803263805833 642.3333333333333)"
           fill="none" stroke="#ff8c42" stroke-width="2" opacity="0.7"/>

  <ellipse cx="642.4145188432738" cy="653.6666666666666" rx="8.0" ry="12.0"
           transform="rotate(240.00000000000003 642.4145188432738 653.6666666666666)"
           fill="#000" opacity="0.3"/>

  <ellipse cx="640.4145188432738" cy="651.6666666666666" rx="8.0" ry="12.0"
           transform="rotate(240.00000000000003 640.4145188432738 651.6666666666666)"
           fill="none" stroke="#ff6b35" stroke-width="4"
           filter="url(#subtle-glow)" opacity="0.95"/>

  <ellipse cx="640.4145188432738" cy="651.6666666666666" rx="6.0" ry="10.0"
           transform="rotate(240.00000000000003 640.4145188432738 651.6666666666666)"
           fill="none" stroke="#ff8c42" stroke-width="2" opacity="0.7"/>

  <ellipse cx="626.2487113059643" cy="663.0" rx="8.0" ry="12.0"
           transform="rotate(150.0 626.2487113059643 663.0)"
           fill="#000" opacity="0.3"/>

  <ellipse cx="624.2487113059643" cy="661.0" rx="8.0" ry="12.0"
           transform="rotate(150.0 624.2487113059643 661.0)"
           fill="none" stroke="#ff6b35" stroke-width="4"
           filter="url(#subtle-glow)" opacity="0.95"/>

  <ellipse cx="624.2487113059643" cy="661.0" rx="6.0" ry="10.0"
           transform="rotate(150.0 624.2487113059643 661.0)"
           fill="none" stroke="#ff8c42" stroke-width="2" opacity="0.7"/>

  <ellipse cx="610.0829037686548" cy="672.3333333333334" rx="8.0" ry="12.0"
           transform="rotate(240.00000000000003 610.0829037686548 672.3333333333334)"
           fill="#000" opacity="0.3"/>

  <ellipse cx="608.0829037686548" cy="670.3333333333334" rx="8.0" ry="12.0"
           transform="rotate(240.00000000000003 608.0829037686548 670.3333333333334)"
           fill="none" stroke="#ff6b35" stroke-width="4"
           filter="url(#subtle-glow)" opacity="0.95"/>

  <ellipse cx="608.0829037686548" cy="670.3333333333334" rx="6.0" ry="10.0"
           transform="rotate(240.00000000000003 608.0829037686548 670.3333333333334)"
           fill="none" stroke="#ff8c42" stroke-width="2" opacity="0.7"/>

  <ellipse cx="593.9170962313452" cy="672.3333333333334" rx="8.0" ry="12.0"
           transform="rotate(-60.00000000000001 593.9170962313452 672.3333333333334)"
           fill="#000" opacity="0.3"/>

  <ellipse cx="591.9170962313452" cy="670.3333333333334" rx="8.0" ry="12.0"
           transform="rotate(-60.00000000000001 591.9170962313452 670.3333333333334)"
           fill="none" stroke="#ff6b35" stroke-width="4"
           filter="url(#subtle-glow)" opacity="0.95"/>

  <ellipse cx="591.9170962313452" cy="670.3333333333334" rx="6.0" ry="10.0"
           transform="rotate(-60.00000000000001 591.9170962313452 670.3333333333334)"
           fill="none" stroke="#ff8c42" stroke-width="2" opacity="0.7"/>

  <ellipse cx="577.7512886940357" cy="663.0" rx="8.0" ry="12.0"
           transform="rotate(-150.0 577.7512886940357 663.0)"
           fill="#000" opacity="0.3"/>

  <ellipse cx="575.7512886940357" cy="661.0" rx="8.0" ry="12.0"
           transform="rotate(-150.0 575.7512886940357 661.0)"
           fill="none" stroke="#ff6b35" stroke-width="4"
           filter="url(#subtle-glow)" opacity="0.95"/>

  <ellipse cx="575.7512886940357" cy="661.0" rx="6.0" ry="10.0"
           transform="rotate(-150.0 575.7512886940357 661.0)"
           fill="none" stroke="#ff8c42" stroke-width="2" opacity="0.7"/>

  <ellipse cx="561.5854811567262" cy="653.6666666666667" rx="8.0" ry="12.0"
           transform="rotate(-60.00000000000001 561.5854811567262 653.6666666666667)"
           fill="#000" opacity="0.3"/>

  <ellipse cx="559.5854811567262" cy="651.6666666666667" rx="8.0" ry="12.0"
           transform="rotate(-60.00000000000001 559.5854811567262 651.6666666666667)"
           fill="none" stroke="#ff6b35" stroke-width="4"
           filter="url(#subtle-glow)" opacity="0.95"/>

  <ellipse cx="559.5854811567262" cy="651.6666666666667" rx="6.0" ry="10.0"
           transform="rotate(-60.00000000000001 559.5854811567262 651.6666666666667)"
           fill="none" stroke="#ff8c42" stroke-width="2" opacity="0.7"/>

  <ellipse cx="545.4196736194167" cy="644.3333333333334" rx="8.0" ry="12.0"
           transform="rotate(-150.0 545.4196736194167 644.3333333333334)"
           fill="#000" opacity="0.3"/>

  <ellipse cx="543.4196736194167" cy="642.3333333333334" rx="8.0" ry="12.0"
           transform="rotate(-150.0 543.4196736194167 642.3333333333334)"
           fill="none" stroke="#ff6b35" stroke-width="4"
           filter="url(#subtle-glow)" opacity="0.95"/>

  <ellipse cx="543.4196736194167" cy="642.3333333333334" rx="6.0" ry="10.0"
           transform="rotate(-150.0 543.4196736194167 642.3333333333334)"
           fill="none" stroke="#ff8c42" stroke-width="2" opacity="0.7"/>

  <ellipse cx="529.2538660821072" cy="635.0000000000001" rx="8.0" ry="12.0"
           transform="rotate(-60.00000000000001 529.2538660821072 635.0000000000001)"
           fill="#000" opacity="0.3"/>

  <ellipse cx="527.2538660821072" cy="633.0000000000001" rx="8.0" ry="12.0"
           transform="rotate(-60.00000000000001 527.2538660821072 633.0000000000001)"
           fill="none" stroke="#ff6b35" stroke-width="4"
           filter="url(#subtle-glow)" opacity="0.95"/>

  <ellipse cx="527.2538660821072" cy="633.0000000000001" rx="6.0" ry="10.0"
           transform="rotate(-60.00000000000001 527.2538660821072 633.0000000000001)"
           fill="none" stroke="#ff8c42" stroke-width="2" opacity="0.7"/>

  <ellipse cx="513.0880585447976" cy="625.6666666666667" rx="8.0" ry="12.0"
           transform="rotate(-150.0 513.0880585447976 625.6666666666667)"
           fill="#000" opacity="0.3"/>

  <ellipse cx="511.0880585447976" cy="623.6666666666667" rx="8.0" ry="12.0"
           transform="rotate(-150.0 511.0880585447976 623.6666666666667)"
           fill="none" stroke="#ff6b35" stroke-width="4"
           filter="url(#subtle-glow)" opacity="0.95"/>

  <ellipse cx="511.0880585447976" cy="623.6666666666667" rx="6.0" ry="10.0"
           transform="rotate(-150.0 511.0880585447976 623.6666666666667)"
           fill="none" stroke="#ff8c42" stroke-width="2" opacity="0.7"/>

  <ellipse cx="496.92225100748817" cy="616.3333333333334" rx="8.0" ry="12.0"
           transform="rotate(-60.00000000000001 496.92225100748817 616.3333333333334)"
           fill="#000" opacity="0.3"/>

  <ellipse cx="494.92225100748817" cy="614.3333333333334" rx="8.0" ry="12.0"
           transform="rotate(-60.00000000000001 494.92225100748817 614.3333333333334)"
           fill="none" stroke="#ff6b35" stroke-width="4"
           filter="url(#subtle-glow)" opacity="0.95"/>

  <ellipse cx="494.92225100748817" cy="614.3333333333334" rx="6.0" ry="10.0"
           transform="rotate(-60.00000000000001 494.92225100748817 614.3333333333334)"
           fill="none" stroke="#ff8c42" stroke-width="2" opacity="0.7"/>

  <ellipse cx="480.7564434701786" cy="607.0000000000001" rx="8.0" ry="12.0"
           transform="rotate(-150.0 480.7564434701786 607.0000000000001)"
           fill="#000" opacity="0.3"/>

  <ellipse cx="478.7564434701786" cy="605.0000000000001" rx="8.0" ry="12.0"
           transform="rotate(-150.0 478.7564434701786 605.0000000000001)"
           fill="none" stroke="#ff6b35" stroke-width="4"
           filter="url(#subtle-glow)" opacity="0.95"/>

  <ellipse cx="478.7564434701786" cy="605.0000000000001" rx="6.0" ry="10.0"
           transform="rotate(-150.0 478.7564434701786 605.0000000000001)"
           fill="none" stroke="#ff8c42" stroke-width="2" opacity="0.7"/>

  <ellipse cx="464.5906359328691" cy="597.6666666666667" rx="8.0" ry="12.0"
           transform="rotate(-60.00000000000001 464.5906359328691 597.6666666666667)"
           fill="#000" opacity="0.3"/>

  <ellipse cx="462.5906359328691" cy="595.6666666666667" rx="8.0" ry="12.0"
           transform="rotate(-60.00000000000001 462.5906359328691 595.6666666666667)"
           fill="none" stroke="#ff6b35" stroke-width="4"
           filter="url(#subtle-glow)" opacity="0.95"/>

  <ellipse cx="462.5906359328691" cy="595.6666666666667" rx="6.0" ry="10.0"
           transform="rotate(-60.00000000000001 462.5906359328691 595.6666666666667)"
           fill="none" stroke="#ff8c42" stroke-width="2" opacity="0.7"/>

  <ellipse cx="448.4248283955596" cy="588.3333333333335" rx="8.0" ry="12.0"
           transform="rotate(-150.0 448.4248283955596 588.3333333333335)"
           fill="#000" opacity="0.3"/>

  <ellipse cx="446.4248283955596" cy="586.3333333333335" rx="8.0" ry="12.0"
           transform="rotate(-150.0 446.4248283955596 586.3333333333335)"
           fill="none" stroke="#ff6b35" stroke-width="4"
           filter="url(#subtle-glow)" opacity="0.95"/>

  <ellipse cx="446.4248283955596" cy="586.3333333333335" rx="6.0" ry="10.0"
           transform="rotate(-150.0 446.4248283955596 586.3333333333335)"
           fill="none" stroke="#ff8c42" stroke-width="2" opacity="0.7"/>

  <ellipse cx="432.2590208582501" cy="579.0000000000001" rx="8.0" ry="12.0"
           transform="rotate(-60.00000000000001 432.2590208582501 579.0000000000001)"
           fill="#000" opacity="0.3"/>

  <ellipse cx="430.2590208582501" cy="577.0000000000001" rx="8.0" ry="12.0"
           transform="rotate(-60.00000000000001 430.2590208582501 577.0000000000001)"
           fill="none" stroke="#ff6b35" stroke-width="4"
           filter="url(#subtle-glow)" opacity="0.95"/>

  <ellipse cx="430.2590208582501" cy="577.0000000000001" rx="6.0" ry="10.0"
           transform="rotate(-60.00000000000001 430.2590208582501 577.0000000000001)"
           fill="none" stroke="#ff8c42" stroke-width="2" opacity="0.7"/>

  <ellipse cx="416.09321332094055" cy="569.6666666666669" rx="8.0" ry="12.0"
           transform="rotate(-150.0 416.09321332094055 569.6666666666669)"
           fill="#000" opacity="0.3"/>

  <ellipse cx="414.09321332094055" cy="567.6666666666669" rx="8.0" ry="12.0"
           transform="rotate(-150.0 414.09321332094055 567.6666666666669)"
           fill="none" stroke="#ff6b35" stroke-width="4"
           filter="url(#subtle-glow)" opacity="0.95"/>

  <ellipse cx="414.09321332094055" cy="567.6666666666669" rx="6.0" ry="10.0"
           transform="rotate(-150.0 414.09321332094055 567.6666666666669)"
           fill="none" stroke="#ff8c42" stroke-width="2" opacity="0.7"/>

  <ellipse cx="399.92740578363106" cy="560.3333333333335" rx="8.0" ry="12.0"
           transform="rotate(-60.00000000000001 399.92740578363106 560.3333333333335)"
           fill="#000" opacity="0.3"/>

  <ellipse cx="397.92740578363106" cy="558.3333333333335" rx="8.0" ry="12.0"
           transform="rotate(-60.00000000000001 397.92740578363106 558.3333333333335)"
           fill="none" stroke="#ff6b35" stroke-width="4"
           filter="url(#subtle-glow)" opacity="0.95"/>

  <ellipse cx="397.92740578363106" cy="558.3333333333335" rx="6.0" ry="10.0"
           transform="rotate(-60.00000000000001 397.92740578363106 558.3333333333335)"
           fill="none" stroke="#ff8c42" stroke-width="2" opacity="0.7"/>

  <ellipse cx="383.76159824632157" cy="551.0000000000001" rx="8.0" ry="12.0"
           transform="rotate(-150.0 383.76159824632157 551.0000000000001)"
           fill="#000" opacity="0.3"/>

  <ellipse cx="381.76159824632157" cy="549.0000000000001" rx="8.0" ry="12.0"
           transform="rotate(-150.0 381.76159824632157 549.0000000000001)"
           fill="none" stroke="#ff6b35" stroke-width="4"
           filter="url(#subtle-glow)" opacity="0.95"/>

  <ellipse cx="381.76159824632157" cy="549.0000000000001" rx="6.0" ry="10.0"
           transform="rotate(-150.0 381.76159824632157 549.0000000000001)"
           fill="none" stroke="#ff8c42" stroke-width="2" opacity="0.7"/>

  <ellipse cx="367.595790709012" cy="541.6666666666669" rx="8.0" ry="12.0"
           transform="rotate(-60.00000000000001 367.595790709012 541.6666666666669)"
           fill="#000" opacity="0.3"/>

  <ellipse cx="365.595790709012" cy="539.6666666666669" rx="8.0" ry="12.0"
           transform="rotate(-60.00000000000001 365.595790709012 539.6666666666669)"
           fill="none" stroke="#ff6b35" stroke-width="4"
           filter="url(#subtle-glow)" opacity="0.95"/>

  <ellipse cx="365.595790709012" cy="539.6666666666669" rx="6.0" ry="10.0"
           transform="rotate(-60.00000000000001 365.595790709012 539.6666666666669)"
           fill="none" stroke="#ff8c42" stroke-width="2" opacity="0.7"/>

  <ellipse cx="359.51288694035725" cy="527.6666666666667" rx="8.0" ry="12.0"
           transform="rotate(-1.2722218725854067e-14 359.51288694035725 527.6666666666667)"
           fill="#000" opacity="0.3"/>

  <ellipse cx="357.51288694035725" cy="525.6666666666667" rx="8.0" ry="12.0"
           transform="rotate(-1.2722218725854067e-14 357.51288694035725 525.6666666666667)"
           fill="none" stroke="#ff6b35" stroke-width="4"
           filter="url(#subtle-glow)" opacity="0.95"/>

  <ellipse cx="357.51288694035725" cy="525.6666666666667" rx="6.0" ry="10.0"
           transform="rotate(-1.2722218725854067e-14 357.51288694035725 525.6666666666667)"
           fill="none" stroke="#ff8c42" stroke-width="2" opacity="0.7"/>

  <ellipse cx="359.51288694035725" cy="509.00000000000017" rx="8.0" ry="12.0"
           transform="rotate(-90.00000000000001 359.51288694035725 509.00000000000017)"
           fill="#000" opacity="0.3"/>

  <ellipse cx="357.51288694035725" cy="507.00000000000017" rx="8.0" ry="12.0"
           transform="rotate(-90.00000000000001 357.51288694035725 507.00000000000017)"
           fill="none" stroke="#ff6b35" stroke-width="4"
           filter="url(#subtle-glow)" opacity="0.95"/>

  <ellipse cx="357.51288694035725" cy="507.00000000000017" rx="6.0" ry="10.0"
           transform="rotate(-90.00000000000001 357.51288694035725 507.00000000000017)"
           fill="none" stroke="#ff8c42" stroke-width="2" opacity="0.7"/>

  <ellipse cx="359.51288694035725" cy="490.3333333333334" rx="8.0" ry="12.0"
           transform="rotate(-1.2722218725854067e-14 359.51288694035725 490.3333333333334)"
           fill="#000" opacity="0.3"/>

  <ellipse cx="357.51288694035725" cy="488.3333333333334" rx="8.0" ry="12.0"
           transform="rotate(-1.2722218725854067e-14 357.51288694035725 488.3333333333334)"
           fill="none" stroke="#ff6b35" stroke-width="4"
           filter="url(#subtle-glow)" opacity="0.95"/>

  <ellipse cx="357.51288694035725" cy="488.3333333333334" rx="6.0" ry="10.0"
           transform="rotate(-1.2722218725854067e-14 357.51288694035725 488.3333333333334)"
           fill="none" stroke="#ff8c42" stroke-width="2" opacity="0.7"/>

  <ellipse cx="359.51288694035725" cy="471.6666666666668" rx="8.0" ry="12.0"
           transform="rotate(-90.00000000000001 359.51288694035725 471.6666666666668)"
           fill="#000" opacity="0.3"/>

  <ellipse cx="357.51288694035725" cy="469.6666666666668" rx="8.0" ry="12.0"
           transform="rotate(-90.00000000000001 357.51288694035725 469.6666666666668)"
           fill="none" stroke="#ff6b35" stroke-width="4"
           filter="url(#subtle-glow)" opacity="0.95"/>

  <ellipse cx="357.51288694035725" cy="469.6666666666668" rx="6.0" ry="10.0"
           transform="rotate(-90.00000000000001 357.51288694035725 469.6666666666668)"
           fill="none" stroke="#ff8c42" stroke-width="2" opacity="0.7"/>

  <ellipse cx="359.51288694035725" cy="453.0000000000001" rx="8.0" ry="12.0"
           transform="rotate(-1.2722218725854067e-14 359.51288694035725 453.0000000000001)"
           fill="#000" opacity="0.3"/>

  <ellipse cx="357.51288694035725" cy="451.0000000000001" rx="8.0" ry="12.0"
           transform="rotate(-1.2722218725854067e-14 357.51288694035725 451.0000000000001)"
           fill="none" stroke="#ff6b35" stroke-width="4"
           filter="url(#subtle-glow)" opacity="0.95"/>

  <ellipse cx="357.51288694035725" cy="451.0000000000001" rx="6.0" ry="10.0"
           transform="rotate(-1.2722218725854067e-14 357.51288694035725 451.0000000000001)"
           fill="none" stroke="#ff8c42" stroke-width="2" opacity="0.7"/>

  <ellipse cx="359.51288694035725" cy="434.3333333333334" rx="8.0" ry="12.0"
           transform="rotate(-90.00000000000001 359.51288694035725 434.3333333333334)"
           fill="#000" opacity="0.3"/>

  <ellipse cx="357.51288694035725" cy="432.3333333333334" rx="8.0" ry="12.0"
           transform="rotate(-90.00000000000001 357.51288694035725 432.3333333333334)"
           fill="none" stroke="#ff6b35" stroke-width="4"
           filter="url(#subtle-glow)" opacity="0.95"/>

  <ellipse cx="357.51288694035725" cy="432.3333333333334" rx="6.0" ry="10.0"
           transform="rotate(-90.00000000000001 357.51288694035725 432.3333333333334)"
           fill="none" stroke="#ff8c42" stroke-width="2" opacity="0.7"/>

  <ellipse cx="359.51288694035725" cy="415.66666666666674" rx="8.0" ry="12.0"
           transform="rotate(-1.2722218725854067e-14 359.51288694035725 415.66666666666674)"
           fill="#000" opacity="0.3"/>

  <ellipse cx="357.51288694035725" cy="413.66666666666674" rx="8.0" ry="12.0"
           transform="rotate(-1.2722218725854067e-14 357.51288694035725 413.66666666666674)"
           fill="none" stroke="#ff6b35" stroke-width="4"
           filter="url(#subtle-glow)" opacity="0.95"/>

  <ellipse cx="357.51288694035725" cy="413.66666666666674" rx="6.0" ry="10.0"
           transform="rotate(-1.2722218725854067e-14 357.51288694035725 413.66666666666674)"
           fill="none" stroke="#ff8c42" stroke-width="2" opacity="0.7"/>

  <ellipse cx="359.51288694035725" cy="397.00000000000006" rx="8.0" ry="12.0"
           transform="rotate(-90.00000000000001 359.51288694035725 397.00000000000006)"
           fill="#000" opacity="0.3"/>

  <ellipse cx="357.51288694035725" cy="395.00000000000006" rx="8.0" ry="12.0"
           transform="rotate(-90.00000000000001 357.51288694035725 395.00000000000006)"
           fill="none" stroke="#ff6b35" stroke-width="4"
           filter="url(#subtle-glow)" opacity="0.95"/>

  <ellipse cx="357.51288694035725" cy="395.00000000000006" rx="6.0" ry="10.0"
           transform="rotate(-90.00000000000001 357.51288694035725 395.00000000000006)"
           fill="none" stroke="#ff8c42" stroke-width="2" opacity="0.7"/>

  <ellipse cx="359.5128869403572" cy="378.3333333333334" rx="8.0" ry="12.0"
           transform="rotate(-1.2722218725854067e-14 359.5128869403572 378.3333333333334)"
           fill="#000" opacity="0.3"/>

  <ellipse cx="357.5128869403572" cy="376.3333333333334" rx="8.0" ry="12.0"
           transform="rotate(-1.2722218725854067e-14 357.5128869403572 376.3333333333334)"
           fill="none" stroke="#ff6b35" stroke-width="4"
           filter="url(#subtle-glow)" opacity="0.95"/>

  <ellipse cx="357.5128869403572" cy="376.3333333333334" rx="6.0" ry="10.0"
           transform="rotate(-1.2722218725854067e-14 357.5128869403572 376.3333333333334)"
           fill="none" stroke="#ff8c42" stroke-width="2" opacity="0.7"/>

  <ellipse cx="359.5128869403572" cy="359.6666666666667" rx="8.0" ry="12.0"
           transform="rotate(-90.00000000000001 359.5128869403572 359.6666666666667)"
           fill="#000" opacity="0.3"/>

  <ellipse cx="357.5128869403572" cy="357.6666666666667" rx="8.0" ry="12.0"
           transform="rotate(-90.00000000000001 357.5128869403572 357.6666666666667)"
           fill="none" stroke="#ff6b35" stroke-width="4"
           filter="url(#subtle-glow)" opacity="0.95"/>

  <ellipse cx="357.5128869403572" cy="357.6666666666667" rx="6.0" ry="10.0"
           transform="rotate(-90.00000000000001 357.5128869403572 357.6666666666667)"
           fill="none" stroke="#ff8c42" stroke-width="2" opacity="0.7"/>

  <ellipse cx="359.5128869403572" cy="341.00000000000006" rx="8.0" ry="12.0"
           transform="rotate(-1.2722218725854067e-14 359.5128869403572 341.00000000000006)"
           fill="#000" opacity="0.3"/>

  <ellipse cx="357.5128869403572" cy="339.00000000000006" rx="8.0" ry="12.0"
           transform="rotate(-1.2722218725854067e-14 357.5128869403572 339.00000000000006)"
           fill="none" stroke="#ff6b35" stroke-width="4"
           filter="url(#subtle-glow)" opacity="0.95"/>

  <ellipse cx="357.5128869403572" cy="339.00000000000006" rx="6.0" ry="10.0"
           transform="rotate(-1.2722218725854067e-14 357.5128869403572 339.00000000000006)"
           fill="none" stroke="#ff8c42" stroke-width="2" opacity="0.7"/>

  <ellipse cx="359.5128869403572" cy="322.33333333333337" rx="8.0" ry="12.0"
           transform="rotate(-90.00000000000001 359.5128869403572 322.33333333333337)"
           fill="#000" opacity="0.3"/>

  <ellipse cx="357.5128869403572" cy="320.33333333333337" rx="8.0" ry="12.0"
           transform="rotate(-90.00000000000001 357.5128869403572 320.33333333333337)"
           fill="none" stroke="#ff6b35" stroke-width="4"
           filter="url(#subtle-glow)" opacity="0.95"/>

  <ellipse cx="357.5128869403572" cy="320.33333333333337" rx="6.0" ry="10.0"
           transform="rotate(-90.00000000000001 357.5128869403572 320.33333333333337)"
           fill="none" stroke="#ff8c42" stroke-width="2" opacity="0.7"/>

  <ellipse cx="359.5128869403572" cy="303.6666666666667" rx="8.0" ry="12.0"
           transform="rotate(-1.2722218725854067e-14 359.5128869403572 303.6666666666667)"
           fill="#000" opacity="0.3"/>

  <ellipse cx="357.5128869403572" cy="301.6666666666667" rx="8.0" ry="12.0"
           transform="rotate(-1.2722218725854067e-14 357.5128869403572 301.6666666666667)"
           fill="none" stroke="#ff6b35" stroke-width="4"
           filter="url(#subtle-glow)" opacity="0.95"/>

  <ellipse cx="357.5128869403572" cy="301.6666666666667" rx="6.0" ry="10.0"
           transform="rotate(-1.2722218725854067e-14 357.5128869403572 301.6666666666667)"
           fill="none" stroke="#ff8c42" stroke-width="2" opacity="0.7"/>

  <ellipse cx="359.5128869403572" cy="285.00000000000006" rx="8.0" ry="12.0"
           transform="rotate(-90.00000000000001 359.5128869403572 285.00000000000006)"
           fill="#000" opacity="0.3"/>

  <ellipse cx="357.5128869403572" cy="283.00000000000006" rx="8.0" ry="12.0"
           transform="rotate(-90.00000000000001 357.5128869403572 283.00000000000006)"
           fill="none" stroke="#ff6b35" stroke-width="4"
           filter="url(#subtle-glow)" opacity="0.95"/>

  <ellipse cx="357.5128869403572" cy="283.00000000000006" rx="6.0" ry="10.0"
           transform="rotate(-90.00000000000001 357.5128869403572 283.00000000000006)"
           fill="none" stroke="#ff8c42" stroke-width="2" opacity="0.7"/>

  <ellipse cx="359.5128869403572" cy="266.33333333333337" rx="8.0" ry="12.0"
           transform="rotate(-1.2722218725854067e-14 359.5128869403572 266.33333333333337)"
           fill="#000" opacity="0.3"/>

  <ellipse cx="357.5128869403572" cy="264.33333333333337" rx="8.0" ry="12.0"
           transform="rotate(-1.2722218725854067e-14 357.5128869403572 264.33333333333337)"
           fill="none" stroke="#ff6b35" stroke-width="4"
           filter="url(#subtle-glow)" opacity="0.95"/>

  <ellipse cx="357.5128869403572" cy="264.33333333333337" rx="6.0" ry="10.0"
           transform="rotate(-1.2722218725854067e-14 357.5128869403572 264.33333333333337)"
           fill="none" stroke="#ff8c42" stroke-width="2" opacity="0.7"/>

  <ellipse cx="367.59579070901196" cy="252.33333333333331" rx="8.0" ry="12.0"
           transform="rotate(60.00000000000001 367.59579070901196 252.33333333333331)"
           fill="#000" opacity="0.3"/>

  <ellipse cx="365.59579070901196" cy="250.33333333333331" rx="8.0" ry="12.0"
           transform="rotate(60.00000000000001 365.59579070901196 250.33333333333331)"
           fill="none" stroke="#ff6b35" stroke-width="4"
           filter="url(#subtle-glow)" opacity="0.95"/>

  <ellipse cx="365.59579070901196" cy="250.33333333333331" rx="6.0" ry="10.0"
           transform="rotate(60.00000000000001 365.59579070901196 250.33333333333331)"
           fill="none" stroke="#ff8c42" stroke-width="2" opacity="0.7"/>

  <ellipse cx="383.7615982463215" cy="242.99999999999997" rx="8.0" ry="12.0"
           transform="rotate(-29.999999999999996 383.7615982463215 242.99999999999997)"
           fill="#000" opacity="0.3"/>

  <ellipse cx="381.7615982463215" cy="240.99999999999997" rx="8.0" ry="12.0"
           transform="rotate(-29.999999999999996 381.7615982463215 240.99999999999997)"
           fill="none" stroke="#ff6b35" stroke-width="4"
           filter="url(#subtle-glow)" opacity="0.95"/>

  <ellipse cx="381.7615982463215" cy="240.99999999999997" rx="6.0" ry="10.0"
           transform="rotate(-29.999999999999996 381.7615982463215 240.99999999999997)"
           fill="none" stroke="#ff8c42" stroke-width="2" opacity="0.7"/>

  <ellipse cx="399.927405783631" cy="233.66666666666666" rx="8.0" ry="12.0"
           transform="rotate(60.00000000000001 399.927405783631 233.66666666666666)"
           fill="#000" opacity="0.3"/>

  <ellipse cx="397.927405783631" cy="231.66666666666666" rx="8.0" ry="12.0"
           transform="rotate(60.00000000000001 397.927405783631 231.66666666666666)"
           fill="none" stroke="#ff6b35" stroke-width="4"
           filter="url(#subtle-glow)" opacity="0.95"/>

  <ellipse cx="397.927405783631" cy="231.66666666666666" rx="6.0" ry="10.0"
           transform="rotate(60.00000000000001 397.927405783631 231.66666666666666)"
           fill="none" stroke="#ff8c42" stroke-width="2" opacity="0.7"/>

  <ellipse cx="416.09321332094055" cy="224.33333333333331" rx="8.0" ry="12.0"
           transform="rotate(-29.999999999999996 416.09321332094055 224.33333333333331)"
           fill="#000" opacity="0.3"/>

  <ellipse cx="414.09321332094055" cy="222.33333333333331" rx="8.0" ry="12.0"
           transform="rotate(-29.999999999999996 414.09321332094055 222.33333333333331)"
           fill="none" stroke="#ff6b35" stroke-width="4"
           filter="url(#subtle-glow)" opacity="0.95"/>

  <ellipse cx="414.09321332094055" cy="222.33333333333331" rx="6.0" ry="10.0"
           transform="rotate(-29.999999999999996 414.09321332094055 222.33333333333331)"
           fill="none" stroke="#ff8c42" stroke-width="2" opacity="0.7"/>

  <ellipse cx="432.25902085825004" cy="214.99999999999997" rx="8.0" ry="12.0"
           transform="rotate(60.00000000000001 432.25902085825004 214.99999999999997)"
           fill="#000" opacity="0.3"/>

  <ellipse cx="430.25902085825004" cy="212.99999999999997" rx="8.0" ry="12.0"
           transform="rotate(60.00000000000001 430.25902085825004 212.99999999999997)"
           fill="none" stroke="#ff6b35" stroke-width="4"
           filter="url(#subtle-glow)" opacity="0.95"/>

  <ellipse cx="430.25902085825004" cy="212.99999999999997" rx="6.0" ry="10.0"
           transform="rotate(60.00000000000001 430.25902085825004 212.99999999999997)"
           fill="none" stroke="#ff8c42" stroke-width="2" opacity="0.7"/>

  <ellipse cx="448.4248283955596" cy="205.66666666666666" rx="8.0" ry="12.0"
           transform="rotate(-29.999999999999996 448.4248283955596 205.66666666666666)"
           fill="#000" opacity="0.3"/>

  <ellipse cx="446.4248283955596" cy="203.66666666666666" rx="8.0" ry="12.0"
           transform="rotate(-29.999999999999996 446.4248283955596 203.66666666666666)"
           fill="none" stroke="#ff6b35" stroke-width="4"
           filter="url(#subtle-glow)" opacity="0.95"/>

  <ellipse cx="446.4248283955596" cy="203.66666666666666" rx="6.0" ry="10.0"
           transform="rotate(-29.999999999999996 446.4248283955596 203.66666666666666)"
           fill="none" stroke="#ff8c42" stroke-width="2" opacity="0.7"/>

  <ellipse cx="464.5906359328691" cy="196.33333333333331" rx="8.0" ry="12.0"
           transform="rotate(60.00000000000001 464.5906359328691 196.33333333333331)"
           fill="#000" opacity="0.3"/>

  <ellipse cx="462.5906359328691" cy="194.33333333333331" rx="8.0" ry="12.0"
           transform="rotate(60.00000000000001 462.5906359328691 194.33333333333331)"
           fill="none" stroke="#ff6b35" stroke-width="4"
           filter="url(#subtle-glow)" opacity="0.95"/>

  <ellipse cx="462.5906359328691" cy="194.33333333333331" rx="6.0" ry="10.0"
           transform="rotate(60.00000000000001 462.5906359328691 194.33333333333331)"
           fill="none" stroke="#ff8c42" stroke-width="2" opacity="0.7"/>

  <ellipse cx="480.7564434701786" cy="186.99999999999997" rx="8.0" ry="12.0"
           transform="rotate(-29.999999999999996 480.7564434701786 186.99999999999997)"
           fill="#000" opacity="0.3"/>

  <ellipse cx="478.7564434701786" cy="184.99999999999997" rx="8.0" ry="12.0"
           transform="rotate(-29.999999999999996 478.7564434701786 184.99999999999997)"
           fill="none" stroke="#ff6b35" stroke-width="4"
           filter="url(#subtle-glow)" opacity="0.95"/>

  <ellipse cx="478.7564434701786" cy="184.99999999999997" rx="6.0" ry="10.0"
           transform="rotate(-29.999999999999996 478.7564434701786 184.99999999999997)"
           fill="none" stroke="#ff8c42" stroke-width="2" opacity="0.7"/>

  <ellipse cx="496.92225100748817" cy="177.66666666666666" rx="8.0" ry="12.0"
           transform="rotate(60.00000000000001 496.92225100748817 177.66666666666666)"
           fill="#000" opacity="0.3"/>

  <ellipse cx="494.92225100748817" cy="175.66666666666666" rx="8.0" ry="12.0"
           transform="rotate(60.00000000000001 494.92225100748817 175.66666666666666)"
           fill="none" stroke="#ff6b35" stroke-width="4"
           filter="url(#subtle-glow)" opacity="0.95"/>

  <ellipse cx="494.92225100748817" cy="175.66666666666666" rx="6.0" ry="10.0"
           transform="rotate(60.00000000000001 494.92225100748817 175.66666666666666)"
           fill="none" stroke="#ff8c42" stroke-width="2" opacity="0.7"/>

  <ellipse cx="513.0880585447976" cy="168.33333333333334" rx="8.0" ry="12.0"
           transform="rotate(-29.999999999999996 513.0880585447976 168.33333333333334)"
           fill="#000" opacity="0.3"/>

  <ellipse cx="511.08805854479766" cy="166.33333333333334" rx="8.0" ry="12.0"
           transform="rotate(-29.999999999999996 511.08805854479766 166.33333333333334)"
           fill="none" stroke="#ff6b35" stroke-width="4"
           filter="url(#subtle-glow)" opacity="0.95"/>

  <ellipse cx="511.08805854479766" cy="166.33333333333334" rx="6.0" ry="10.0"
           transform="rotate(-29.999999999999996 511.08805854479766 166.33333333333334)"
           fill="none" stroke="#ff8c42" stroke-width="2" opacity="0.7"/>

  <ellipse cx="529.2538660821072" cy="159.0" rx="8.0" ry="12.0"
           transform="rotate(60.00000000000001 529.2538660821072 159.0)"
           fill="#000" opacity="0.3"/>

  <ellipse cx="527.2538660821072" cy="157.0" rx="8.0" ry="12.0"
           transform="rotate(60.00000000000001 527.2538660821072 157.0)"
           fill="none" stroke="#ff6b35" stroke-width="4"
           filter="url(#subtle-glow)" opacity="0.95"/>

  <ellipse cx="527.2538660821072" cy="157.0" rx="6.0" ry="10.0"
           transform="rotate(60.00000000000001 527.2538660821072 157.0)"
           fill="none" stroke="#ff8c42" stroke-width="2" opacity="0.7"/>

  <ellipse cx="545.4196736194167" cy="149.66666666666666" rx="8.0" ry="12.0"
           transform="rotate(-29.999999999999996 545.4196736194167 149.66666666666666)"
           fill="#000" opacity="0.3"/>

  <ellipse cx="543.4196736194167" cy="147.66666666666666" rx="8.0" ry="12.0"
           transform="rotate(-29.999999999999996 543.4196736194167 147.66666666666666)"
           fill="none" stroke="#ff6b35" stroke-width="4"
           filter="url(#subtle-glow)" opacity="0.95"/>

  <ellipse cx="543.4196736194167" cy="147.66666666666666" rx="6.0" ry="10.0"
           transform="rotate(-29.999999999999996 543.4196736194167 147.66666666666666)"
           fill="none" stroke="#ff8c42" stroke-width="2" opacity="0.7"/>

  <ellipse cx="561.5854811567262" cy="140.33333333333334" rx="8.0" ry="12.0"
           transform="rotate(60.00000000000001 561.5854811567262 140.33333333333334)"
           fill="#000" opacity="0.3"/>

  <ellipse cx="559.5854811567262" cy="138.33333333333334" rx="8.0" ry="12.0"
           transform="rotate(60.00000000000001 559.5854811567262 138.33333333333334)"
           fill="none" stroke="#ff6b35" stroke-width="4"
           filter="url(#subtle-glow)" opacity="0.95"/>

  <ellipse cx="559.5854811567262" cy="138.33333333333334" rx="6.0" ry="10.0"
           transform="rotate(60.00000000000001 559.5854811567262 138.33333333333334)"
           fill="none" stroke="#ff8c42" stroke-width="2" opacity="0.7"/>

  <ellipse cx="577.7512886940358" cy="131.0" rx="8.0" ry="12.0"
           transform="rotate(-29.999999999999996 577.7512886940358 131.0)"
           fill="#000" opacity="0.3"/>

  <ellipse cx="575.7512886940358" cy="129.0" rx="8.0" ry="12.0"
           transform="rotate(-29.999999999999996 575.7512886940358 129.0)"
           fill="none" stroke="#ff6b35" stroke-width="4"
           filter="url(#subtle-glow)" opacity="0.95"/>

  <ellipse cx="575.7512886940358" cy="129.0" rx="6.0" ry="10.0"
           transform="rotate(-29.999999999999996 575.7512886940358 129.0)"
           fill="none" stroke="#ff8c42" stroke-width="2" opacity="0.7"/>

  <ellipse cx="593.9170962313452" cy="121.66666666666664" rx="8.0" ry="12.0"
           transform="rotate(60.00000000000001 593.9170962313452 121.66666666666664)"
           fill="#000" opacity="0.3"/>

  <ellipse cx="591.9170962313452" cy="119.66666666666664" rx="8.0" ry="12.0"
           transform="rotate(60.00000000000001 591.9170962313452 119.66666666666664)"
           fill="none" stroke="#ff6b35" stroke-width="4"
           filter="url(#subtle-glow)" opacity="0.95"/>

  <ellipse cx="591.9170962313452" cy="119.66666666666664" rx="6.0" ry="10.0"
           transform="rotate(60.00000000000001 591.9170962313452 119.66666666666664)"
           fill="none" stroke="#ff8c42" stroke-width="2" opacity="0.7"/>
  <!-- Technology Nodes -->
<rect x="494.0" y="69.0"
         width="220" height="100" rx="8"
         fill="#000" opacity="0.3"/>
<rect x="490.0" y="65.0"
         width="220" height="100" rx="8"
         fill="#0d0d0d"/>
<rect x="490.0" y="65.0"
         width="220" height="100" rx="8"
         fill="url(#metalGrad)" opacity="0.4"/>
<rect x="490.0" y="65.0"
         width="220" height="100" rx="8"
         fill="none" stroke="#ff6b35" stroke-width="3" filter="url(#subtle-glow)"/>
<circle cx="502.0" cy="77.0" r="5" fill="url(#rivetGrad)"/>
<circle cx="502.0" cy="77.0" r="2.5" fill="#1a1a1a"/>
<circle cx="502.0" cy="77.0" r="1" fill="#555"/>
<circle cx="502.0" cy="153.0" r="5" fill="url(#rivetGrad)"/>
<circle cx="502.0" cy="153.0" r="2.5" fill="#1a1a1a"/>
<circle cx="502.0" cy="153.0" r="1" fill="#555"/>
<circle cx="698.0" cy="77.0" r="5" fill="url(#rivetGrad)"/>
<circle cx="698.0" cy="77.0" r="2.5" fill="#1a1a1a"/>
<circle cx="698.0" cy="77.0" r="1" fill="#555"/>
<circle cx="698.0" cy="153.0" r="5" fill="url(#rivetGrad)"/>
<circle cx="698.0" cy="153.0" r="2.5" fill="#1a1a1a"/>
<circle cx="698.0" cy="153.0" r="1" fill="#555"/>
<text x="600.0" y="103.0" fill="#ff6b35"
         font-family="'Courier New', monospace" font-size="22" font-weight="bold"
         text-anchor="middle">Python</text>
<rect x="520.0" y="129.0" width="160" height="12"
         rx="6" fill="#0a0a0a" stroke="#333" stroke-width="1"/>
<rect x="520.0" y="129.0" width="56.0" height="12"
             rx="6" fill="#ff6b35" opacity="0.9"/>
<text x="600.0" y="151.0" fill="#cccccc"
         font-family="'Courier New', monospace" font-size="16" font-weight="bold"
         text-anchor="middle">35.0%</text>
<rect x="736.4871130596428" y="209.0"
         width="220" height="100" rx="8"
         fill="#000" opacity="0.3"/>
<rect x="732.4871130596428" y="205.0"
         width="220" height="100" rx="8"
         fill="#0d0d0d"/>
<rect x="732.4871130596428" y="205.0"
         width="220" height="100" rx="8"
         fill="url(#metalGrad)" opacity="0.4"/>
<rect x="732.4871130596428" y="205.0"
         width="220" height="100" rx="8"
         fill="none" stroke="#ff8c42" stroke-width="2.5" filter="url(#subtle-glow)"/>
<circle cx="744.4871130596428" cy="217.0" r="5" fill="url(#rivetGrad)"/>
<circle cx="744.4871130596428" cy="217.0" r="2.5" fill="#1a1a1a"/>
<circle cx="744.4871130596428" cy="217.0" r="1" fill="#555"/>
<circle cx="744.4871130596428" cy="293.0" r="5" fill="url(#rivetGrad)"/>
<circle cx="744.4871130596428" cy="293.0" r="2.5" fill="#1a1a1a"/>
<circle cx="744.4871130596428" cy="293.0" r="1" fill="#555"/>
<circle cx="940.4871130596428" cy="217.0" r="5" fill="url(#rivetGrad)"/>
<circle cx="940.4871130596428" cy="217.0" r="2.5" fill="#1a1a1a"/>
<circle cx="940.4871130596428" cy="217.0" r="1" fill="#555"/>
<circle cx="940.4871130596428" cy="293.0" r="5" fill="url(#rivetGrad)"/>
<circle cx="940.4871130596428" cy="293.0" r="2.5" fill="#1a1a1a"/>
<circle cx="940.4871130596428" cy="293.0" r="1" fill="#555"/>
<text x="842.4871130596428" y="243.0" fill="#ff8c42"
         font-family="'Courier New', monospace" font-size="22" font-weight="bold"
         text-anchor="middle">JavaScript</text>
<rect x="762.4871130596428" y="269.0" width="160" height="12"
         rx="6" fill="#0a0a0a" stroke="#333" stroke-width="1"/>
<rect x="762.4871130596428" y="269.0" width="40.0" height="12"
             rx="6" fill="#ff8c42" opacity="0.9"/>
<text x="842.4871130596428" y="291.0" fill="#cccccc"
         font-family="'Courier New', monospace" font-size="16" font-weight="bold"
         text-anchor="middle">25.0%</text>
<rect x="736.4871130596429" y="489.0"
         width="220" height="100" rx="8"
         fill="#000" opacity="0.3"/>
<rect x="732.4871130596429" y="485.0"
         width="220" height="100" rx="8"
         fill="#0d0d0d"/>
<rect x="732.4871130596429" y="485.0"
         width="220" height="100" rx="8"
         fill="url(#metalGrad)" opacity="0.4"/>
<rect x="732.4871130596429" y="485.0"
         width="220" height="100" rx="8"
         fill="none" stroke="#ffa552" stroke-width="2" filter="url(#subtle-glow)"/>
<circle cx="744.4871130596429" cy="497.0" r="5" fill="url(#rivetGrad)"/>
<circle cx="744.4871130596429" cy="497.0" r="2.5" fill="#1a1a1a"/>
<circle cx="744.4871130596429" cy="497.0" r="1" fill="#555"/>
<circle cx="744.4871130596429" cy="573.0" r="5" fill="url(#rivetGrad)"/>
<circle cx="744.4871130596429" cy="573.0" r="2.5" fill="#1a1a1a"/>
<circle cx="744.4871130596429" cy="573.0" r="1" fill="#555"/>
<circle cx="940.4871130596429" cy="497.0" r="5" fill="url(#rivetGrad)"/>
<circle cx="940.4871130596429" cy="497.0" r="2.5" fill="#1a1a1a"/>
<circle cx="940.4871130596429" cy="497.0" r="1" fill="#555"/>
<circle cx="940.4871130596429" cy="573.0" r="5" fill="url(#rivetGrad)"/>
<circle cx="940.4871130596429" cy="573.0" r="2.5" fill="#1a1a1a"/>
<circle cx="940.4871130596429" cy="573.0" r="1" fill="#555"/>
<text x="842.4871130596429" y="523.0" fill="#ffa552"
         font-family="'Courier New', monospace" font-size="22" font-weight="bold"
         text-anchor="middle">TypeScript</text>
<rect x="762.4871130596429" y="549.0" width="160" height="12"
         rx="6" fill="#0a0a0a" stroke="#333" stroke-width="1"/>
<rect x="762.4871130596429" y="549.0" width="24.0" height="12"
             rx="6" fill="#ffa552" opacity="0.9"/>
<text x="842.4871130596429" y="571.0" fill="#cccccc"
         font-family="'Courier New', monospace" font-size="16" font-weight="bold"
         text-anchor="middle">15.0%</text>
<rect x="494.0" y="629.0"
         width="220" height="100" rx="8"
         fill="#000" opacity="0.3"/>
<rect x="490.0" y="625.0"
         width="220" height="100" rx="8"
         fill="#0d0d0d"/>
<rect x="490.0" y="625.0"
         width="220" height="100" rx="8"
         fill="url(#metalGrad)" opacity="0.4"/>
<rect x="490.0" y="625.0"
         width="220" height="100" rx="8"
         fill="none" stroke="#ffa552" stroke-width="2" filter="url(#subtle-glow)"/>
<circle cx="502.0" cy="637.0" r="5" fill="url(#rivetGrad)"/>
<circle cx="502.0" cy="637.0" r="2.5" fill="#1a1a1a"/>
<circle cx="502.0" cy="637.0" r="1" fill="#555"/>
<circle cx="502.0" cy="713.0" r="5" fill="url(#rivetGrad)"/>
<circle cx="502.0" cy="713.0" r="2.5" fill="#1a1a1a"/>
<circle cx="502.0" cy="713.0" r="1" fill="#555"/>
<circle cx="698.0" cy="637.0" r="5" fill="url(#rivetGrad)"/>
<circle cx="698.0" cy="637.0" r="2.5" fill="#1a1a1a"/>
<circle cx="698.0" cy="637.0" r="1" fill="#555"/>
<circle cx="698.0" cy="713.0" r="5" fill="url(#rivetGrad)"/>
<circle cx="698.0" cy="713.0" r="2.5" fill="#1a1a1a"/>
<circle cx="698.0" cy="713.0" r="1" fill="#555"/>
<text x="600.0" y="663.0" fill="#ffa552"
         font-family="'Courier New', monospace" font-size="22" font-weight="bold"
         text-anchor="middle">Rust</text>
<rect x="520.0" y="689.0" width="160" height="12"
         rx="6" fill="#0a0a0a" stroke="#333" stroke-width="1"/>
<rect x="520.0" y="689.0" width="19.2" height="12"
             rx="6" fill="#ffa552" opacity="0.9"/>
<text x="600.0" y="711.0" fill="#cccccc"
         font-family="'Courier New', monospace" font-size="16" font-weight="bold"
         text-anchor="middle">12.0%</text>
<rect x="251.51288694035725" y="489.0000000000001"
         width="220" height="100" rx="8"
         fill="#000" opacity="0.3"/>
<rect x="247.51288694035725" y="485.0000000000001"
         width="220" height="100" rx="8"
         fill="#0d0d0d"/>
<rect x="247.51288694035725" y="485.0000000000001"
         width="220" height="100" rx="8"
         fill="url(#metalGrad)" opacity="0.4"/>
<rect x="247.51288694035725" y="485.0000000000001"
         width="220" height="100" rx="8"
         fill="none" stroke="#ffa552" stroke-width="2" filter="url(#subtle-glow)"/>
<circle cx="259.51288694035725" cy="497.0000000000001" r="5" fill="url(#rivetGrad)"/>
<circle cx="259.51288694035725" cy="497.0000000000001" r="2.5" fill="#1a1a1a"/>
<circle cx="259.51288694035725" cy="497.0000000000001" r="1" fill="#555"/>
<circle cx="259.51288694035725" cy="573.0000000000001" r="5" fill="url(#rivetGrad)"/>
<circle cx="259.51288694035725" cy="573.0000000000001" r="2.5" fill="#1a1a1a"/>
<circle cx="259.51288694035725" cy="573.0000000000001" r="1" fill="#555"/>
<circle cx="455.51288694035725" cy="497.0000000000001" r="5" fill="url(#rivetGrad)"/>
<circle cx="455.51288694035725" cy="497.0000000000001" r="2.5" fill="#1a1a1a"/>
<circle cx="455.51288694035725" cy="497.0000000000001" r="1" fill="#555"/>
<circle cx="455.51288694035725" cy="573.0000000000001" r="5" fill="url(#rivetGrad)"/>
<circle cx="455.51288694035725" cy="573.0000000000001" r="2.5" fill="#1a1a1a"/>
<circle cx="455.51288694035725" cy="573.0000000000001" r="1" fill="#555"/>
<text x="357.51288694035725" y="523.0000000000001" fill="#ffa552"
         font-family="'Courier New', monospace" font-size="22" font-weight="bold"
         text-anchor="middle">Shell</text>
<rect x="277.51288694035725" y="549.0000000000001" width="160" height="12"
         rx="6" fill="#0a0a0a" stroke="#333" stroke-width="1"/>
<rect x="277.51288694035725" y="549.0000000000001" width="12.8" height="12"
             rx="6" fill="#ffa552" opacity="0.9"/>
<text x="357.51288694035725" y="571.0000000000001" fill="#cccccc"
         font-family="'Courier New', monospace" font-size="16" font-weight="bold"
         text-anchor="middle">8.0%</text>
<rect x="251.5128869403572" y="208.99999999999997"
         width="220" height="100" rx="8"
         fill="#000" opacity="0.3"/>
<rect x="247.5128869403572" y="204.99999999999997"
         width="220" height="100" rx="8"
         fill="#0d0d0d"/>
<rect x="247.5128869403572" y="204.99999999999997"
         width="220" height="100" rx="8"
         fill="url(#metalGrad)" opacity="0.4"/>
<rect x="247.5128869403572" y="204.99999999999997"
         width="220" height="100" rx="8"
         fill="none" stroke="#ffa552" stroke-width="2" filter="url(#subtle-glow)"/>
<circle cx="259.5128869403572" cy="216.99999999999997" r="5" fill="url(#rivetGrad)"/>
<circle cx="259.5128869403572" cy="216.99999999999997" r="2.5" fill="#1a1a1a"/>
<circle cx="259.5128869403572" cy="216.99999999999997" r="1" fill="#555"/>
<circle cx="259.5128869403572" cy="293.0" r="5" fill="url(#rivetGrad)"/>
<circle cx="259.5128869403572" cy="293.0" r="2.5" fill="#1a1a1a"/>
<circle cx="259.5128869403572" cy="293.0" r="1" fill="#555"/>
<circle cx="455.5128869403572" cy="216.99999999999997" r="5" fill="url(#rivetGrad)"/>
<circle cx="455.5128869403572" cy="216.99999999999997" r="2.5" fill="#1a1a1a"/>
<circle cx="455.5128869403572" cy="216.99999999999997" r="1" fill="#555"/>
<circle cx="455.5128869403572" cy="293.0" r="5" fill="url(#rivetGrad)"/>
<circle cx="455.5128869403572" cy="293.0" r="2.5" fill="#1a1a1a"/>
<circle cx="455.5128869403572" cy="293.0" r="1" fill="#555"/>
<text x="357.5128869403572" y="242.99999999999997" fill="#ffa552"
         font-family="'Courier New', monospace" font-size="22" font-weight="bold"
         text-anchor="middle">Markdown</text>
<rect x="277.5128869403572" y="269.0" width="160" height="12"
         rx="6" fill="#0a0a0a" stroke="#333" stroke-width="1"/>
<rect x="277.5128869403572" y="269.0" width="8.0" height="12"
             rx="6" fill="#ffa552" opacity="0.9"/>
<text x="357.5128869403572" y="291.0" fill="#cccccc"
         font-family="'Courier New', monospace" font-size="16" font-weight="bold"
         text-anchor="middle">5.0%</text>

  <!-- Title Panel -->
  <rect x="200.0" y="30" width="800" height="60" fill="#1a1a1a" opacity="0.8" rx="6"/>
  <rect x="200.0" y="30" width="800" height="60" fill="none" stroke="#ff6b35" stroke-width="2" opacity="0.3" rx="6"/>
  <text x="600.0" y="58" fill="#ff6b35" filter="url(#subtle-glow)"
        font-family="'Courier New', monospace" font-size="28" font-weight="bold" text-anchor="middle" letter-spacing="3">
    DEPENDENCY CHAINS
  </text>
  <text x="600.0" y="78" fill="#888888"
        font-family="'Courier New', monospace" font-size="12" text-anchor="middle" letter-spacing="1">
    BINDING AGREEMENTS ENFORCED ACROSS GOVERNED DOMAINS
  </text>

  <!-- Footer Panel -->
  <rect x="0" y="680" width="1200" height="70" fill="#1a1a1a" opacity="0.75"/>
  <line x1="0" y1="680" x2="1200" y2="680" stroke="#ff6b35" stroke-width="1" opacity="0.4"/>
  <text x="600.0" y="718" fill="#cccccc"
        font-family="'Courier New', monospace" font-size="16" text-anchor="middle" font-weight="bold">
    6 PRIMARY DOMAINS  7 ENFORCED LINKAGES
  </text>
</svg>