<svg width="800" height="400" xmlns="http://www.w3.org/2000/svg"><rect width="100%" height="100%" fill="#0B0C10"/><circle cx="200" cy="50" r="15" fill="#3776AB" opacity="0.8"/><text x="230" y="55" fill="#FFFFFF" font-size="14" font-family="Arial">Python</text><circle cx="400" cy="70" r="15" fill="#3776AB" opacity="0.6"/><line x1="215" y1="50" x2="385" y2="70" stroke="#3776AB" stroke-width="2" opacity="0.4"/><circle cx="200" cy="90" r="15" fill="#00599C" opacity="0.8"/><text x="230" y="95" fill="#FFFFFF" font-size="14" font-family="Arial">C++</text><circle cx="400" cy="110" r="15" fill="#00599C" opacity="0.6"/><line x1="215" y1="90" x2="385" y2="110" stroke="#00599C" stroke-width="2" opacity="0.4"/><circle cx="200" cy="130" r="15" fill="#6EE7B7" opacity="0.8"/><text x="230" y="135" fill="#FFFFFF" font-size="14" font-family="Arial">C</text><circle cx="400" cy="150" r="15" fill="#6EE7B7" opacity="0.6"/><line x1="215" y1="130" x2="385" y2="150" stroke="#6EE7B7" stroke-width="2" opacity="0.4"/><circle cx="200" cy="170" r="15" fill="#6EE7B7" opacity="0.8"/><text x="230" y="175" fill="#FFFFFF" font-size="14" font-family="Arial">Cuda</text><circle cx="400" cy="190" r="15" fill="#6EE7B7" opacity="0.6"/><line x1="215" y1="170" x2="385" y2="190" stroke="#6EE7B7" stroke-width="2" opacity="0.4"/><circle cx="200" cy="210" r="15" fill="#6EE7B7" opacity="0.8"/><text x="230" y="215" fill="#FFFFFF" font-size="14" font-family="Arial">XSLT</text><circle cx="400" cy="230" r="15" fill="#6EE7B7" opacity="0.6"/><line x1="215" y1="210" x2="385" y2="230" stroke="#6EE7B7" stroke-width="2" opacity="0.4"/><circle cx="200" cy="250" r="15" fill="#6EE7B7" opacity="0.8"/><text x="230" y="255" fill="#FFFFFF" font-size="14" font-family="Arial">CMake</text><circle cx="400" cy="270" r="15" fill="#6EE7B7" opacity="0.6"/><line x1="215" y1="250" x2="385" y2="270" stroke="#6EE7B7" stroke-width="2" opacity="0.4"/><circle cx="200" cy="290" r="15" fill="#F7DF1E" opacity="0.8"/><text x="230" y="295" fill="#FFFFFF" font-size="14" font-family="Arial">JavaScript</text><circle cx="400" cy="310" r="15" fill="#F7DF1E" opacity="0.6"/><line x1="215" y1="290" x2="385" y2="310" stroke="#F7DF1E" stroke-width="2" opacity="0.4"/><circle cx="200" cy="330" r="15" fill="#1572B6" opacity="0.8"/><text x="230" y="335" fill="#FFFFFF" font-size="14" font-family="Arial">CSS</text><circle cx="400" cy="350" r="15" fill="#1572B6" opacity="0.6"/><line x1="215" y1="330" x2="385" y2="350" stroke="#1572B6" stroke-width="2" opacity="0.4"/><text x="400" y="30" fill="#ECEFF4" font-size="18" font-family="Arial" text-anchor="middle">🧬 Repository DNA Helix</text></svg>