<svg width="1200" height="500" xmlns="http://www.w3.org/2000/svg">
  <defs>
    <filter id="glow" x="-50%" y="-50%" width="200%" height="200%">
      <feGaussianBlur stdDeviation="3" result="coloredBlur"/>
      <feMerge>
        <feMergeNode in="coloredBlur"/>
        <feMergeNode in="SourceGraphic"/>
      </feMerge>
    </filter>
  </defs>

  <!-- Background -->
  <rect width="1200" height="500" fill="#1a1a1a"/>

  <!-- Grid -->
<line x1="0" y1="0" x2="0" y2="500" stroke="#2a2a2a" stroke-width="1" opacity="0.2"/>
<line x1="50" y1="0" x2="50" y2="500" stroke="#2a2a2a" stroke-width="1" opacity="0.2"/>
<line x1="100" y1="0" x2="100" y2="500" stroke="#2a2a2a" stroke-width="1" opacity="0.2"/>
<line x1="150" y1="0" x2="150" y2="500" stroke="#2a2a2a" stroke-width="1" opacity="0.2"/>
<line x1="200" y1="0" x2="200" y2="500" stroke="#2a2a2a" stroke-width="1" opacity="0.2"/>
<line x1="250" y1="0" x2="250" y2="500" stroke="#2a2a2a" stroke-width="1" opacity="0.2"/>
<line x1="300" y1="0" x2="300" y2="500" stroke="#2a2a2a" stroke-width="1" opacity="0.2"/>
<line x1="350" y1="0" x2="350" y2="500" stroke="#2a2a2a" stroke-width="1" opacity="0.2"/>
<line x1="400" y1="0" x2="400" y2="500" stroke="#2a2a2a" stroke-width="1" opacity="0.2"/>
<line x1="450" y1="0" x2="450" y2="500" stroke="#2a2a2a" stroke-width="1" opacity="0.2"/>
<line x1="500" y1="0" x2="500" y2="500" stroke="#2a2a2a" stroke-width="1" opacity="0.2"/>
<line x1="550" y1="0" x2="550" y2="500" stroke="#2a2a2a" stroke-width="1" opacity="0.2"/>
<line x1="600" y1="0" x2="600" y2="500" stroke="#2a2a2a" stroke-width="1" opacity="0.2"/>
<line x1="650" y1="0" x2="650" y2="500" stroke="#2a2a2a" stroke-width="1" opacity="0.2"/>
<line x1="700" y1="0" x2="700" y2="500" stroke="#2a2a2a" stroke-width="1" opacity="0.2"/>
<line x1="750" y1="0" x2="750" y2="500" stroke="#2a2a2a" stroke-width="1" opacity="0.2"/>
<line x1="800" y1="0" x2="800" y2="500" stroke="#2a2a2a" stroke-width="1" opacity="0.2"/>
<line x1="850" y1="0" x2="850" y2="500" stroke="#2a2a2a" stroke-width="1" opacity="0.2"/>
<line x1="900" y1="0" x2="900" y2="500" stroke="#2a2a2a" stroke-width="1" opacity="0.2"/>
<line x1="950" y1="0" x2="950" y2="500" stroke="#2a2a2a" stroke-width="1" opacity="0.2"/>
<line x1="1000" y1="0" x2="1000" y2="500" stroke="#2a2a2a" stroke-width="1" opacity="0.2"/>
<line x1="1050" y1="0" x2="1050" y2="500" stroke="#2a2a2a" stroke-width="1" opacity="0.2"/>
<line x1="1100" y1="0" x2="1100" y2="500" stroke="#2a2a2a" stroke-width="1" opacity="0.2"/>
<line x1="1150" y1="0" x2="1150" y2="500" stroke="#2a2a2a" stroke-width="1" opacity="0.2"/>
<line x1="0" y1="0" x2="1200" y2="0" stroke="#2a2a2a" stroke-width="1" opacity="0.2"/>
<line x1="0" y1="50" x2="1200" y2="50" stroke="#2a2a2a" stroke-width="1" opacity="0.2"/>
<line x1="0" y1="100" x2="1200" y2="100" stroke="#2a2a2a" stroke-width="1" opacity="0.2"/>
<line x1="0" y1="150" x2="1200" y2="150" stroke="#2a2a2a" stroke-width="1" opacity="0.2"/>
<line x1="0" y1="200" x2="1200" y2="200" stroke="#2a2a2a" stroke-width="1" opacity="0.2"/>
<line x1="0" y1="250" x2="1200" y2="250" stroke="#2a2a2a" stroke-width="1" opacity="0.2"/>
<line x1="0" y1="300" x2="1200" y2="300" stroke="#2a2a2a" stroke-width="1" opacity="0.2"/>
<line x1="0" y1="350" x2="1200" y2="350" stroke="#2a2a2a" stroke-width="1" opacity="0.2"/>
<line x1="0" y1="400" x2="1200" y2="400" stroke="#2a2a2a" stroke-width="1" opacity="0.2"/>
<line x1="0" y1="450" x2="1200" y2="450" stroke="#2a2a2a" stroke-width="1" opacity="0.2"/>

  <!-- Title -->
  <rect x="50" y="20" width="1100" height="50" fill="#2a2a2a" opacity="0.8"/>
  <line x1="50" y1="20" x2="1150" y2="20" stroke="#ff6b35" stroke-width="2" filter="url(#glow)"/>
  <text x="600.0" y="52" fill="#ff6b35" filter="url(#glow)"
        font-family="'Courier New', monospace" font-size="38" font-weight="bold"
        text-anchor="middle" letter-spacing="3">
    GOVERNANCE MATRIX
  </text>

  <!-- Repo: DeepExtrema -->
  <rect x="60" y="100" width="260" height="160"
        fill="#2a2a2a" opacity="0.7"/>
  <rect x="60" y="100" width="260" height="160"
        fill="none" stroke="#4ade80" stroke-width="2"/>

  <!-- Status indicator -->
  <circle cx="75" cy="115" r="6" fill="#4ade80" filter="url(#glow)"/>

  <!-- Repo name -->
  <text x="90" y="120" fill="#ff8c42" filter="url(#glow)"
        font-family="'Courier New', monospace" font-size="16" font-weight="bold">
    DeepExtrema
  </text>

  <!-- Status text -->
  <text x="70" y="142" fill="#4ade80"
        font-family="'Courier New', monospace" font-size="14" font-weight="bold">
    ACTIVE
  </text>

  <!-- Language -->
  <text x="70" y="165" fill="#cccccc"
        font-family="'Courier New', monospace" font-size="13">
    LANG: Python
  </text>

  <!-- Stars -->
  <text x="70" y="185" fill="#cccccc"
        font-family="'Courier New', monospace" font-size="13">
    ⭐ 10
  </text>

  <!-- Updated -->
  <text x="70" y="205" fill="#888888"
        font-family="'Courier New', monospace" font-size="11">
    UPDATED: 2026-01-10
  </text>

  <!-- Auth level -->
  <text x="70" y="235" fill="#888888"
        font-family="'Courier New', monospace" font-size="11">
    🌐 PUBLIC
  </text>

  <!-- Repo: ARES -->
  <rect x="340" y="100" width="260" height="160"
        fill="#2a2a2a" opacity="0.7"/>
  <rect x="340" y="100" width="260" height="160"
        fill="none" stroke="#4ade80" stroke-width="2"/>

  <!-- Status indicator -->
  <circle cx="355" cy="115" r="6" fill="#4ade80" filter="url(#glow)"/>

  <!-- Repo name -->
  <text x="370" y="120" fill="#ff8c42" filter="url(#glow)"
        font-family="'Courier New', monospace" font-size="16" font-weight="bold">
    ARES
  </text>

  <!-- Status text -->
  <text x="350" y="142" fill="#4ade80"
        font-family="'Courier New', monospace" font-size="14" font-weight="bold">
    ACTIVE
  </text>

  <!-- Language -->
  <text x="350" y="165" fill="#cccccc"
        font-family="'Courier New', monospace" font-size="13">
    LANG: Python
  </text>

  <!-- Stars -->
  <text x="350" y="185" fill="#cccccc"
        font-family="'Courier New', monospace" font-size="13">
    ⭐ 5
  </text>

  <!-- Updated -->
  <text x="350" y="205" fill="#888888"
        font-family="'Courier New', monospace" font-size="11">
    UPDATED: 2026-01-08
  </text>

  <!-- Auth level -->
  <text x="350" y="235" fill="#888888"
        font-family="'Courier New', monospace" font-size="11">
    🌐 PUBLIC
  </text>

  <!-- Footer -->
  <rect x="0" y="460" width="1200" height="40" fill="#2a2a2a" opacity="0.8"/>
  <line x1="0" y1="460" x2="1200" y2="460" stroke="#ff6b35" stroke-width="1" opacity="0.5"/>
  <text x="600.0" y="485" fill="#cccccc"
        font-family="'Courier New', monospace" font-size="17" text-anchor="middle">
    <tspan fill="#4ade80" font-weight="bold">2</tspan> ACTIVE •
    <tspan fill="#fbbf24" font-weight="bold">0</tspan> STANDBY •
    <tspan fill="#ef4444" font-weight="bold">0</tspan> DORMANT •
    TOTAL: <tspan fill="#ff6b35" font-weight="bold">2</tspan> SYSTEMS
  </text>
</svg>