<svg width="1200" height="550" xmlns="http://www.w3.org/2000/svg">
  <defs>
    <filter id="glow" x="-50%" y="-50%" width="200%" height="200%">
      <feGaussianBlur stdDeviation="2" result="coloredBlur"/>
      <feMerge>
        <feMergeNode in="coloredBlur"/>
        <feMergeNode in="SourceGraphic"/>
      </feMerge>
    </filter>
  </defs>

  <!-- Background -->
  <rect width="1200" height="550" fill="#1a1a1a"/>

  <!-- Grid -->
<line x1="0" y1="0" x2="0" y2="550" stroke="#2a2a2a" stroke-width="1" opacity="0.2"/>
<line x1="50" y1="0" x2="50" y2="550" stroke="#2a2a2a" stroke-width="1" opacity="0.2"/>
<line x1="100" y1="0" x2="100" y2="550" stroke="#2a2a2a" stroke-width="1" opacity="0.2"/>
<line x1="150" y1="0" x2="150" y2="550" stroke="#2a2a2a" stroke-width="1" opacity="0.2"/>
<line x1="200" y1="0" x2="200" y2="550" stroke="#2a2a2a" stroke-width="1" opacity="0.2"/>
<line x1="250" y1="0" x2="250" y2="550" stroke="#2a2a2a" stroke-width="1" opacity="0.2"/>
<line x1="300" y1="0" x2="300" y2="550" stroke="#2a2a2a" stroke-width="1" opacity="0.2"/>
<line x1="350" y1="0" x2="350" y2="550" stroke="#2a2a2a" stroke-width="1" opacity="0.2"/>
<line x1="400" y1="0" x2="400" y2="550" stroke="#2a2a2a" stroke-width="1" opacity="0.2"/>
<line x1="450" y1="0" x2="450" y2="550" stroke="#2a2a2a" stroke-width="1" opacity="0.2"/>
<line x1="500" y1="0" x2="500" y2="550" stroke="#2a2a2a" stroke-width="1" opacity="0.2"/>
<line x1="550" y1="0" x2="550" y2="550" stroke="#2a2a2a" stroke-width="1" opacity="0.2"/>
<line x1="600" y1="0" x2="600" y2="550" stroke="#2a2a2a" stroke-width="1" opacity="0.2"/>
<line x1="650" y1="0" x2="650" y2="550" stroke="#2a2a2a" stroke-width="1" opacity="0.2"/>
<line x1="700" y1="0" x2="700" y2="550" stroke="#2a2a2a" stroke-width="1" opacity="0.2"/>
<line x1="750" y1="0" x2="750" y2="550" stroke="#2a2a2a" stroke-width="1" opacity="0.2"/>
<line x1="800" y1="0" x2="800" y2="550" stroke="#2a2a2a" stroke-width="1" opacity="0.2"/>
<line x1="850" y1="0" x2="850" y2="550" stroke="#2a2a2a" stroke-width="1" opacity="0.2"/>
<line x1="900" y1="0" x2="900" y2="550" stroke="#2a2a2a" stroke-width="1" opacity="0.2"/>
<line x1="950" y1="0" x2="950" y2="550" stroke="#2a2a2a" stroke-width="1" opacity="0.2"/>
<line x1="1000" y1="0" x2="1000" y2="550" stroke="#2a2a2a" stroke-width="1" opacity="0.2"/>
<line x1="1050" y1="0" x2="1050" y2="550" stroke="#2a2a2a" stroke-width="1" opacity="0.2"/>
<line x1="1100" y1="0" x2="1100" y2="550" stroke="#2a2a2a" stroke-width="1" opacity="0.2"/>
<line x1="1150" y1="0" x2="1150" y2="550" stroke="#2a2a2a" stroke-width="1" opacity="0.2"/>
<line x1="0" y1="0" x2="1200" y2="0" stroke="#2a2a2a" stroke-width="1" opacity="0.2"/>
<line x1="0" y1="50" x2="1200" y2="50" stroke="#2a2a2a" stroke-width="1" opacity="0.2"/>
<line x1="0" y1="100" x2="1200" y2="100" stroke="#2a2a2a" stroke-width="1" opacity="0.2"/>
<line x1="0" y1="150" x2="1200" y2="150" stroke="#2a2a2a" stroke-width="1" opacity="0.2"/>
<line x1="0" y1="200" x2="1200" y2="200" stroke="#2a2a2a" stroke-width="1" opacity="0.2"/>
<line x1="0" y1="250" x2="1200" y2="250" stroke="#2a2a2a" stroke-width="1" opacity="0.2"/>
<line x1="0" y1="300" x2="1200" y2="300" stroke="#2a2a2a" stroke-width="1" opacity="0.2"/>
<line x1="0" y1="350" x2="1200" y2="350" stroke="#2a2a2a" stroke-width="1" opacity="0.2"/>
<line x1="0" y1="400" x2="1200" y2="400" stroke="#2a2a2a" stroke-width="1" opacity="0.2"/>
<line x1="0" y1="450" x2="1200" y2="450" stroke="#2a2a2a" stroke-width="1" opacity="0.2"/>
<line x1="0" y1="500" x2="1200" y2="500" stroke="#2a2a2a" stroke-width="1" opacity="0.2"/>

  <!-- Title -->
  <rect x="50" y="20" width="1100" height="50" fill="#2a2a2a" opacity="0.8"/>
  <line x1="50" y1="20" x2="1150" y2="20" stroke="#ff6b35" stroke-width="2" filter="url(#glow)"/>
  <text x="600.0" y="52" fill="#ff6b35" filter="url(#glow)"
        font-family="'Courier New', monospace" font-size="38" font-weight="bold"
        text-anchor="middle" letter-spacing="3">
    GOVERNED DOMAINS
  </text>

  <!-- Languages -->
  <rect x="60" y="100" width="540" height="70"
        fill="#2a2a2a" opacity="0.7"/>
  <rect x="60" y="100" width="540" height="70"
        fill="none" stroke="#ff8c42" stroke-width="2"/>

  <!-- Category header -->
  <text x="75" y="125" fill="#ff6b35" filter="url(#glow)"
        font-family="'Courier New', monospace" font-size="17" font-weight="bold" letter-spacing="1">
    💬 LANGUAGES
  </text>

  <!-- Technologies -->

  <text x="75" y="148" fill="#888888"
        font-family="'Courier New', monospace" font-size="12">
    Python
  </text>

  <text x="133.2" y="148" fill="#888888"
        font-family="'Courier New', monospace" font-size="12">
    JavaScript
  </text>

  <text x="220.2" y="148" fill="#888888"
        font-family="'Courier New', monospace" font-size="12">
    TypeScript
  </text>

  <text x="307.2" y="148" fill="#888888"
        font-family="'Courier New', monospace" font-size="12">
    Rust
  </text>

  <text x="351.0" y="148" fill="#888888"
        font-family="'Courier New', monospace" font-size="12">
    Markdown
  </text>

  <!-- Infrastructure -->
  <rect x="620" y="100" width="540" height="70"
        fill="#2a2a2a" opacity="0.7"/>
  <rect x="620" y="100" width="540" height="70"
        fill="none" stroke="#ff8c42" stroke-width="2"/>

  <!-- Category header -->
  <text x="635" y="125" fill="#ff6b35" filter="url(#glow)"
        font-family="'Courier New', monospace" font-size="17" font-weight="bold" letter-spacing="1">
    ☁️ INFRASTRUCTURE
  </text>

  <!-- Technologies -->

  <text x="635" y="148" fill="#888888"
        font-family="'Courier New', monospace" font-size="12">
    Cloudflare
  </text>

  <text x="722.0" y="148" fill="#888888"
        font-family="'Courier New', monospace" font-size="12">
    Firebase
  </text>

  <text x="794.6" y="148" fill="#888888"
        font-family="'Courier New', monospace" font-size="12">
    Vercel
  </text>

  <!-- Runtime -->
  <rect x="60" y="180" width="540" height="70"
        fill="#2a2a2a" opacity="0.7"/>
  <rect x="60" y="180" width="540" height="70"
        fill="none" stroke="#ff8c42" stroke-width="2"/>

  <!-- Category header -->
  <text x="75" y="205" fill="#ff6b35" filter="url(#glow)"
        font-family="'Courier New', monospace" font-size="17" font-weight="bold" letter-spacing="1">
    ⚡ RUNTIME
  </text>

  <!-- Technologies -->

  <text x="75" y="228" fill="#888888"
        font-family="'Courier New', monospace" font-size="12">
    FastAPI
  </text>

  <text x="140.4" y="228" fill="#888888"
        font-family="'Courier New', monospace" font-size="12">
    Node.js
  </text>

  <!-- Data -->
  <rect x="620" y="180" width="540" height="70"
        fill="#2a2a2a" opacity="0.7"/>
  <rect x="620" y="180" width="540" height="70"
        fill="none" stroke="#ff8c42" stroke-width="2"/>

  <!-- Category header -->
  <text x="635" y="205" fill="#ff6b35" filter="url(#glow)"
        font-family="'Courier New', monospace" font-size="17" font-weight="bold" letter-spacing="1">
    🗄️ DATA
  </text>

  <!-- Technologies -->

  <text x="635" y="228" fill="#888888"
        font-family="'Courier New', monospace" font-size="12">
    MySQL
  </text>

  <text x="686.0" y="228" fill="#888888"
        font-family="'Courier New', monospace" font-size="12">
    Neo4J
  </text>

  <text x="737.0" y="228" fill="#888888"
        font-family="'Courier New', monospace" font-size="12">
    Redis
  </text>

  <text x="788.0" y="228" fill="#888888"
        font-family="'Courier New', monospace" font-size="12">
    Supabase
  </text>

  <!-- ML/Analysis -->
  <rect x="60" y="260" width="540" height="70"
        fill="#2a2a2a" opacity="0.7"/>
  <rect x="60" y="260" width="540" height="70"
        fill="none" stroke="#ff8c42" stroke-width="2"/>

  <!-- Category header -->
  <text x="75" y="285" fill="#ff6b35" filter="url(#glow)"
        font-family="'Courier New', monospace" font-size="17" font-weight="bold" letter-spacing="1">
    🧠 ML/ANALYSIS
  </text>

  <!-- Technologies -->

  <text x="75" y="308" fill="#888888"
        font-family="'Courier New', monospace" font-size="12">
    Matplotlib
  </text>

  <text x="162.0" y="308" fill="#888888"
        font-family="'Courier New', monospace" font-size="12">
    Keras
  </text>

  <text x="213.0" y="308" fill="#888888"
        font-family="'Courier New', monospace" font-size="12">
    NumPy
  </text>

  <text x="264.0" y="308" fill="#888888"
        font-family="'Courier New', monospace" font-size="12">
    Pandas
  </text>

  <text x="322.2" y="308" fill="#888888"
        font-family="'Courier New', monospace" font-size="12">
    Plotly
  </text>

  <text x="380.4" y="308" fill="#888888"
        font-family="'Courier New', monospace" font-size="12">
    scikit-learn
  </text>

  <text x="481.79999999999995" y="308" fill="#888888"
        font-family="'Courier New', monospace" font-size="12">
    SciPy
  </text>

  <text x="532.8" y="308" fill="#888888"
        font-family="'Courier New', monospace" font-size="12">
    TensorFlow
  </text>

  <!-- Orchestration -->
  <rect x="620" y="260" width="540" height="70"
        fill="#2a2a2a" opacity="0.7"/>
  <rect x="620" y="260" width="540" height="70"
        fill="none" stroke="#ff8c42" stroke-width="2"/>

  <!-- Category header -->
  <text x="635" y="285" fill="#ff6b35" filter="url(#glow)"
        font-family="'Courier New', monospace" font-size="17" font-weight="bold" letter-spacing="1">
    ⚙️ ORCHESTRATION
  </text>

  <!-- Technologies -->

  <text x="635" y="308" fill="#888888"
        font-family="'Courier New', monospace" font-size="12">
    Kubernetes
  </text>

  <text x="722.0" y="308" fill="#888888"
        font-family="'Courier New', monospace" font-size="12">
    GitHub
  </text>

  <text x="780.2" y="308" fill="#888888"
        font-family="'Courier New', monospace" font-size="12">
    Prometheus
  </text>

  <text x="867.2" y="308" fill="#888888"
        font-family="'Courier New', monospace" font-size="12">
    Raspberry Pi
  </text>

  <!-- Footer -->
  <rect x="0" y="510" width="1200" height="40" fill="#2a2a2a" opacity="0.8"/>
  <line x1="0" y1="510" x2="1200" y2="510" stroke="#ff6b35" stroke-width="1" opacity="0.5"/>
  <text x="600.0" y="535" fill="#cccccc"
        font-family="'Courier New', monospace" font-size="17" text-anchor="middle">
    TOTAL DOMAINS: <tspan fill="#ff6b35" font-weight="bold">26</tspan> •
    ACTIVE: <tspan fill="#ff6b35" font-weight="bold">0</tspan> •
    CATEGORIES: <tspan fill="#ff6b35" font-weight="bold">6</tspan>
  </text>
</svg>