<svg width="1200" height="300" xmlns="http://www.w3.org/2000/svg">
  <defs>
    <!-- Neon glow filter -->
    <filter id="neon-glow" x="-50%" y="-50%" width="200%" height="200%">
      <feGaussianBlur stdDeviation="3" result="coloredBlur"/>
      <feMerge>
        <feMergeNode in="coloredBlur"/>
        <feMergeNode in="coloredBlur"/>
        <feMergeNode in="SourceGraphic"/>
      </feMerge>
    </filter>

    <!-- Strong neon glow for emphasis -->
    <filter id="neon-glow-strong" x="-100%" y="-100%" width="300%" height="300%">
      <feGaussianBlur stdDeviation="5" result="coloredBlur"/>
      <feMerge>
        <feMergeNode in="coloredBlur"/>
        <feMergeNode in="coloredBlur"/>
        <feMergeNode in="coloredBlur"/>
        <feMergeNode in="SourceGraphic"/>
      </feMerge>
    </filter>

    <!-- Panel texture pattern -->
    <pattern id="panel-texture" width="100" height="100" patternUnits="userSpaceOnUse">
      <rect width="100" height="100" fill="#2a2a2a"/>
      <line x1="0" y1="0" x2="0" y2="100" stroke="#3a3a3a" stroke-width="1"/>
      <line x1="100" y1="0" x2="100" y2="100" stroke="#3a3a3a" stroke-width="1"/>
    </pattern>
  </defs>

  <!-- Background: Industrial steel panels -->
  <rect width="1200" height="300" fill="#1a1a1a"/>
  <rect width="1200" height="300" fill="url(#panel-texture)" opacity="0.3"/>

  <line x1="0" y1="0" x2="1200" y2="0" stroke="#3a3a3a" stroke-width="2" opacity="0.5"/>

  <line x1="0" y1="100.0" x2="1200" y2="100.0" stroke="#3a3a3a" stroke-width="2" opacity="0.5"/>

  <line x1="0" y1="200.0" x2="1200" y2="200.0" stroke="#3a3a3a" stroke-width="2" opacity="0.5"/>

  <line x1="0" y1="300" x2="1200" y2="300" stroke="#3a3a3a" stroke-width="2" opacity="0.5"/>

  <line x1="0" y1="0" x2="0" y2="300" stroke="#3a3a3a" stroke-width="2" opacity="0.5"/>

  <line x1="300.0" y1="0" x2="300.0" y2="300" stroke="#3a3a3a" stroke-width="2" opacity="0.5"/>

  <line x1="600.0" y1="0" x2="600.0" y2="300" stroke="#3a3a3a" stroke-width="2" opacity="0.5"/>

  <line x1="900.0" y1="0" x2="900.0" y2="300" stroke="#3a3a3a" stroke-width="2" opacity="0.5"/>

  <line x1="1200" y1="0" x2="1200" y2="300" stroke="#3a3a3a" stroke-width="2" opacity="0.5"/>

  <circle cx="300.0" cy="100.0" r="3" fill="#3a3a3a" opacity="0.7"/>
  <circle cx="300.0" cy="100.0" r="1.5" fill="#1a1a1a" opacity="0.5"/>

  <circle cx="300.0" cy="200.0" r="3" fill="#3a3a3a" opacity="0.7"/>
  <circle cx="300.0" cy="200.0" r="1.5" fill="#1a1a1a" opacity="0.5"/>

  <circle cx="600.0" cy="100.0" r="3" fill="#3a3a3a" opacity="0.7"/>
  <circle cx="600.0" cy="100.0" r="1.5" fill="#1a1a1a" opacity="0.5"/>

  <circle cx="600.0" cy="200.0" r="3" fill="#3a3a3a" opacity="0.7"/>
  <circle cx="600.0" cy="200.0" r="1.5" fill="#1a1a1a" opacity="0.5"/>

  <circle cx="900.0" cy="100.0" r="3" fill="#3a3a3a" opacity="0.7"/>
  <circle cx="900.0" cy="100.0" r="1.5" fill="#1a1a1a" opacity="0.5"/>

  <circle cx="900.0" cy="200.0" r="3" fill="#3a3a3a" opacity="0.7"/>
  <circle cx="900.0" cy="200.0" r="1.5" fill="#1a1a1a" opacity="0.5"/>

  <!-- Main Governance Gear -->
  <path d="M 660.00,150.00 L 644.14,158.78 L 655.43,172.96 L 637.42,175.00 L 642.43,192.43 L 625.00,187.42 L 622.96,205.43 L 608.78,194.14 L 600.00,210.00 L 591.22,194.14 L 577.04,205.43 L 575.00,187.42 L 557.57,192.43 L 562.58,175.00 L 544.57,172.96 L 555.86,158.78 L 540.00,150.00 L 555.86,141.22 L 544.57,127.04 L 562.58,125.00 L 557.57,107.57 L 575.00,112.58 L 577.04,94.57 L 591.22,105.86 L 600.00,90.00 L 608.78,105.86 L 622.96,94.57 L 625.00,112.58 L 642.43,107.57 L 637.42,125.00 L 655.43,127.04 L 644.14,141.22 Z" fill="none" stroke="#ff6b35" stroke-width="4" filter="url(#neon-glow-strong)">
    <animateTransform attributeName="transform" type="rotate" from="0 600.0 150.0"
                      to="360 600.0 150.0" dur="30s" repeatCount="indefinite"/>
  </path>
  <circle cx="600.0" cy="150.0" r="20" fill="none" stroke="#ff6b35"
          stroke-width="3" filter="url(#neon-glow)" opacity="0.9"/>
  <circle cx="600.0" cy="150.0" r="10" fill="#ff6b35" opacity="0.3"/>

  <path d="M 205.00,105.00 L 215.85,98.53 L 209.69,87.50 L 222.32,87.32 L 222.50,74.69 L 233.53,80.85 L 240.00,70.00 L 246.47,80.85 L 257.50,74.69 L 257.68,87.32 L 270.31,87.50 L 264.15,98.53 L 275.00,105.00 L 264.15,111.47 L 270.31,122.50 L 257.68,122.68 L 257.50,135.31 L 246.47,129.15 L 240.00,140.00 L 233.53,129.15 L 222.50,135.31 L 222.32,122.68 L 209.69,122.50 L 215.85,111.47 Z" fill="none" stroke="#ff8c42" stroke-width="3" filter="url(#neon-glow)">
    <animateTransform attributeName="transform" type="rotate" from="0 240.0 105.0"
                      to="-360 240.0 105.0" dur="15s" repeatCount="indefinite"/>
  </path>
  <circle cx="240.0" cy="105.0" r="8" fill="none" stroke="#ff8c42"
          stroke-width="2" filter="url(#neon-glow)"/>

  <path d="M 960.00,140.00 L 953.53,129.15 L 942.50,135.31 L 942.32,122.68 L 929.69,122.50 L 935.85,111.47 L 925.00,105.00 L 935.85,98.53 L 929.69,87.50 L 942.32,87.32 L 942.50,74.69 L 953.53,80.85 L 960.00,70.00 L 966.47,80.85 L 977.50,74.69 L 977.68,87.32 L 990.31,87.50 L 984.15,98.53 L 995.00,105.00 L 984.15,111.47 L 990.31,122.50 L 977.68,122.68 L 977.50,135.31 L 966.47,129.15 Z" fill="none" stroke="#ff8c42" stroke-width="3" filter="url(#neon-glow)">
    <animateTransform attributeName="transform" type="rotate" from="0 960.0 105.0"
                      to="-360 960.0 105.0" dur="15s" repeatCount="indefinite"/>
  </path>
  <circle cx="960.0" cy="105.0" r="8" fill="none" stroke="#ff8c42"
          stroke-width="2" filter="url(#neon-glow)"/>

  <path d="M 261.21,216.21 L 249.99,214.60 L 244.69,224.63 L 236.56,216.73 L 226.38,221.73 L 224.44,210.56 L 213.27,208.62 L 218.27,198.44 L 210.37,190.31 L 220.40,185.01 L 218.79,173.79 L 230.01,175.40 L 235.31,165.37 L 243.44,173.27 L 253.62,168.27 L 255.56,179.44 L 266.73,181.38 L 261.73,191.56 L 269.63,199.69 L 259.60,204.99 Z" fill="none" stroke="#ff8c42" stroke-width="3" filter="url(#neon-glow)">
    <animateTransform attributeName="transform" type="rotate" from="0 240.0 195.0"
                      to="-360 240.0 195.0" dur="15s" repeatCount="indefinite"/>
  </path>
  <circle cx="240.0" cy="195.0" r="8" fill="none" stroke="#ff8c42"
          stroke-width="2" filter="url(#neon-glow)"/>

  <path d="M 960.00,165.00 L 966.80,174.08 L 977.63,170.73 L 977.80,182.07 L 988.53,185.73 L 982.00,195.00 L 988.53,204.27 L 977.80,207.93 L 977.63,219.27 L 966.80,215.92 L 960.00,225.00 L 953.20,215.92 L 942.37,219.27 L 942.20,207.93 L 931.47,204.27 L 938.00,195.00 L 931.47,185.73 L 942.20,182.07 L 942.37,170.73 L 953.20,174.08 Z" fill="none" stroke="#ff8c42" stroke-width="3" filter="url(#neon-glow)">
    <animateTransform attributeName="transform" type="rotate" from="0 960.0 195.0"
                      to="-360 960.0 195.0" dur="15s" repeatCount="indefinite"/>
  </path>
  <circle cx="960.0" cy="195.0" r="8" fill="none" stroke="#ff8c42"
          stroke-width="2" filter="url(#neon-glow)"/>

  <!-- Access Control Lock -->
  <g opacity="0.9">
    
    <path d="M 172.5,36.25
             a 7.5,12.5 0 0 1 15.0,0"
          fill="none" stroke="#ff6b35" stroke-width="3" filter="url(#neon-glow)"/>

    <rect x="167.5" y="36.25" width="25" height="17.5"
          rx="3" fill="none" stroke="#ff6b35" stroke-width="3" filter="url(#neon-glow)"/>

    <circle cx="180.0" cy="43.0" r="3" fill="#ff6b35" filter="url(#neon-glow)"/>
    <rect x="178.5" y="43.0" width="3" height="8" fill="#ff6b35" filter="url(#neon-glow)"/>
  </g>

  <!-- Access Control Lock -->
  <g opacity="0.9">
    
    <path d="M 1012.5,36.25
             a 7.5,12.5 0 0 1 15.0,0"
          fill="none" stroke="#ff6b35" stroke-width="3" filter="url(#neon-glow)"/>

    <rect x="1007.5" y="36.25" width="25" height="17.5"
          rx="3" fill="none" stroke="#ff6b35" stroke-width="3" filter="url(#neon-glow)"/>

    <circle cx="1020.0" cy="43.0" r="3" fill="#ff6b35" filter="url(#neon-glow)"/>
    <rect x="1018.5" y="43.0" width="3" height="8" fill="#ff6b35" filter="url(#neon-glow)"/>
  </g>

  <!-- Access Control Lock -->
  <g opacity="0.9">
    
    <path d="M 592.5,246.25
             a 7.5,12.5 0 0 1 15.0,0"
          fill="none" stroke="#ff6b35" stroke-width="3" filter="url(#neon-glow)"/>

    <rect x="587.5" y="246.25" width="25" height="17.5"
          rx="3" fill="none" stroke="#ff6b35" stroke-width="3" filter="url(#neon-glow)"/>

    <circle cx="600.0" cy="253.0" r="3" fill="#ff6b35" filter="url(#neon-glow)"/>
    <rect x="598.5" y="253.0" width="3" height="8" fill="#ff6b35" filter="url(#neon-glow)"/>
  </g>

  <!-- Dependency Chain -->
  
    <ellipse cx="277.5" cy="105.625" rx="7.5" ry="4.0"
             fill="none" stroke="#ff6b35" stroke-width="2.5" filter="url(#neon-glow)"/>

    <ellipse cx="352.5" cy="106.875" rx="4.0" ry="7.5"
             fill="none" stroke="#ff6b35" stroke-width="2.5" filter="url(#neon-glow)"/>

    <ellipse cx="427.5" cy="108.125" rx="7.5" ry="4.0"
             fill="none" stroke="#ff6b35" stroke-width="2.5" filter="url(#neon-glow)"/>

    <ellipse cx="502.5" cy="109.375" rx="4.0" ry="7.5"
             fill="none" stroke="#ff6b35" stroke-width="2.5" filter="url(#neon-glow)"/>

  <!-- Dependency Chain -->
  
    <ellipse cx="922.5" cy="105.625" rx="7.5" ry="4.0"
             fill="none" stroke="#ff6b35" stroke-width="2.5" filter="url(#neon-glow)"/>

    <ellipse cx="847.5" cy="106.875" rx="4.0" ry="7.5"
             fill="none" stroke="#ff6b35" stroke-width="2.5" filter="url(#neon-glow)"/>

    <ellipse cx="772.5" cy="108.125" rx="7.5" ry="4.0"
             fill="none" stroke="#ff6b35" stroke-width="2.5" filter="url(#neon-glow)"/>

    <ellipse cx="697.5" cy="109.375" rx="4.0" ry="7.5"
             fill="none" stroke="#ff6b35" stroke-width="2.5" filter="url(#neon-glow)"/>

  <!-- Dependency Chain -->
  
    <ellipse cx="502.5" cy="190.625" rx="7.5" ry="4.0"
             fill="none" stroke="#ff6b35" stroke-width="2.5" filter="url(#neon-glow)"/>

    <ellipse cx="427.5" cy="191.875" rx="4.0" ry="7.5"
             fill="none" stroke="#ff6b35" stroke-width="2.5" filter="url(#neon-glow)"/>

    <ellipse cx="352.5" cy="193.125" rx="7.5" ry="4.0"
             fill="none" stroke="#ff6b35" stroke-width="2.5" filter="url(#neon-glow)"/>

    <ellipse cx="277.5" cy="194.375" rx="4.0" ry="7.5"
             fill="none" stroke="#ff6b35" stroke-width="2.5" filter="url(#neon-glow)"/>

  <!-- Dependency Chain -->
  
    <ellipse cx="697.5" cy="190.625" rx="7.5" ry="4.0"
             fill="none" stroke="#ff6b35" stroke-width="2.5" filter="url(#neon-glow)"/>

    <ellipse cx="772.5" cy="191.875" rx="4.0" ry="7.5"
             fill="none" stroke="#ff6b35" stroke-width="2.5" filter="url(#neon-glow)"/>

    <ellipse cx="847.5" cy="193.125" rx="7.5" ry="4.0"
             fill="none" stroke="#ff6b35" stroke-width="2.5" filter="url(#neon-glow)"/>

    <ellipse cx="922.5" cy="194.375" rx="4.0" ry="7.5"
             fill="none" stroke="#ff6b35" stroke-width="2.5" filter="url(#neon-glow)"/>

  <path d="M 50,150.0 L 180.0,150.0" stroke="#444444" stroke-width="2" opacity="0.3"/>
  <path d="M 50,150.0 L 180.0,150.0" stroke="#ff6b35" stroke-width="2" filter="url(#neon-glow)" opacity="0">
    <animate attributeName="opacity" values="0;0.5;0" dur="6s" begin="0s" repeatCount="indefinite"/>
  </path>

  <path d="M 1020.0,150.0 L 1150,150.0" stroke="#444444" stroke-width="2" opacity="0.3"/>
  <path d="M 1020.0,150.0 L 1150,150.0" stroke="#ff6b35" stroke-width="2" filter="url(#neon-glow)" opacity="0">
    <animate attributeName="opacity" values="0;0.5;0" dur="6s" begin="2s" repeatCount="indefinite"/>
  </path>

  <path d="M 600.0,30 L 600.0,45.0" stroke="#444444" stroke-width="2" opacity="0.3"/>
  <path d="M 600.0,30 L 600.0,45.0" stroke="#ff6b35" stroke-width="2" filter="url(#neon-glow)" opacity="0">
    <animate attributeName="opacity" values="0;0.5;0" dur="6s" begin="4s" repeatCount="indefinite"/>
  </path>

  <!-- Status Display Panel -->
  <rect x="0" y="240" width="1200" height="60" fill="#1a1a1a" opacity="0.8"/>
  <line x1="0" y1="240" x2="1200" y2="240" stroke="#ff6b35" stroke-width="1" filter="url(#neon-glow)"/>

  <text x="240.0" y="260" fill="#ff6b35" filter="url(#neon-glow)"
        font-family="'Courier New', monospace" font-size="17" font-weight="bold" text-anchor="middle">
    SYSTEMS: 0
  </text>

  <text x="480.0" y="260" fill="#ff6b35" filter="url(#neon-glow)"
        font-family="'Courier New', monospace" font-size="17" font-weight="bold" text-anchor="middle">
    COMMITS: 0
  </text>

  <text x="720.0" y="260" fill="#ff6b35" filter="url(#neon-glow)"
        font-family="'Courier New', monospace" font-size="17" font-weight="bold" text-anchor="middle">
    ⭐ 0
  </text>

  <text x="960.0" y="260" fill="#ff6b35" filter="url(#neon-glow)"
        font-family="'Courier New', monospace" font-size="17" font-weight="bold" text-anchor="middle">
    SYNC: 2026-01-11 23:17 UTC
  </text>

  <text x="600.0" y="285" fill="#cccccc"
        font-family="'Courier New', monospace" font-size="17" text-anchor="middle" opacity="0.6">
    GOVERNANCE STATUS: OPERATIONAL
  </text>

  <circle cx="30" cy="30" r="4" fill="#ff4500" filter="url(#neon-glow)">
    <animate attributeName="opacity" values="0.5;1;0.5" dur="2s" repeatCount="indefinite"/>
  </circle>

  <circle cx="1170" cy="30" r="4" fill="#ff4500" filter="url(#neon-glow)">
    <animate attributeName="opacity" values="0.5;1;0.5" dur="2s" repeatCount="indefinite"/>
  </circle>

  <circle cx="30" cy="220" r="4" fill="#ff4500" filter="url(#neon-glow)">
    <animate attributeName="opacity" values="0.5;1;0.5" dur="2s" repeatCount="indefinite"/>
  </circle>

  <circle cx="1170" cy="220" r="4" fill="#ff4500" filter="url(#neon-glow)">
    <animate attributeName="opacity" values="0.5;1;0.5" dur="2s" repeatCount="indefinite"/>
  </circle>
</svg>