<svg width="1200" height="300" xmlns="http://www.w3.org/2000/svg">
  <defs>
    <!-- Strong neon glow -->
    <filter id="strong-glow" x="-100%" y="-100%" width="300%" height="300%">
      <feGaussianBlur stdDeviation="4" result="coloredBlur"/>
      <feMerge>
        <feMergeNode in="coloredBlur"/>
        <feMergeNode in="coloredBlur"/>
        <feMergeNode in="coloredBlur"/>
        <feMergeNode in="SourceGraphic"/>
      </feMerge>
    </filter>

    <!-- Medium glow -->
    <filter id="medium-glow" x="-50%" y="-50%" width="200%" height="200%">
      <feGaussianBlur stdDeviation="3" result="coloredBlur"/>
      <feMerge>
        <feMergeNode in="coloredBlur"/>
        <feMergeNode in="coloredBlur"/>
        <feMergeNode in="SourceGraphic"/>
      </feMerge>
    </filter>

    <!-- Soft glow -->
    <filter id="soft-glow" x="-50%" y="-50%" width="200%" height="200%">
      <feGaussianBlur stdDeviation="2" result="coloredBlur"/>
      <feMerge>
        <feMergeNode in="coloredBlur"/>
        <feMergeNode in="SourceGraphic"/>
      </feMerge>
    </filter>
  </defs>
<rect width="1200" height="300" fill="#0d0d0d"/>

  <defs>
    <linearGradient id="metalGrad" x1="0%" y1="0%" x2="0%" y2="100%">
      <stop offset="0%" style="stop-color:#2a2a2a;stop-opacity:1" />
      <stop offset="50%" style="stop-color:#1a1a1a;stop-opacity:1" />
      <stop offset="100%" style="stop-color:#252525;stop-opacity:1" />
    </linearGradient>
    <radialGradient id="rivetGrad" cx="50%" cy="30%">
      <stop offset="0%" style="stop-color:#555;stop-opacity:1" />
      <stop offset="70%" style="stop-color:#333;stop-opacity:1" />
      <stop offset="100%" style="stop-color:#1a1a1a;stop-opacity:1" />
    </radialGradient>
  </defs>

  <rect x="40" y="40" width="300" height="220" fill="url(#metalGrad)" stroke="#111" stroke-width="2"/>
  <rect x="42" y="42" width="296" height="216" fill="none" stroke="#333" stroke-width="1" opacity="0.3"/>

  <circle cx="55" cy="55" r="6" fill="url(#rivetGrad)"/>
  <circle cx="55" cy="55" r="3" fill="#1a1a1a"/>
  <circle cx="55" cy="55" r="1.5" fill="#444"/>

  <circle cx="325" cy="55" r="6" fill="url(#rivetGrad)"/>
  <circle cx="325" cy="55" r="3" fill="#1a1a1a"/>
  <circle cx="325" cy="55" r="1.5" fill="#444"/>

  <circle cx="55" cy="245" r="6" fill="url(#rivetGrad)"/>
  <circle cx="55" cy="245" r="3" fill="#1a1a1a"/>
  <circle cx="55" cy="245" r="1.5" fill="#444"/>

  <circle cx="325" cy="245" r="6" fill="url(#rivetGrad)"/>
  <circle cx="325" cy="245" r="3" fill="#1a1a1a"/>
  <circle cx="325" cy="245" r="1.5" fill="#444"/>

  <rect x="360" y="40" width="480" height="220" fill="url(#metalGrad)" stroke="#111" stroke-width="2"/>
  <rect x="362" y="42" width="476" height="216" fill="none" stroke="#333" stroke-width="1" opacity="0.3"/>

  <circle cx="375" cy="55" r="6" fill="url(#rivetGrad)"/>
  <circle cx="375" cy="55" r="3" fill="#1a1a1a"/>
  <circle cx="375" cy="55" r="1.5" fill="#444"/>

  <circle cx="825" cy="55" r="6" fill="url(#rivetGrad)"/>
  <circle cx="825" cy="55" r="3" fill="#1a1a1a"/>
  <circle cx="825" cy="55" r="1.5" fill="#444"/>

  <circle cx="375" cy="245" r="6" fill="url(#rivetGrad)"/>
  <circle cx="375" cy="245" r="3" fill="#1a1a1a"/>
  <circle cx="375" cy="245" r="1.5" fill="#444"/>

  <circle cx="825" cy="245" r="6" fill="url(#rivetGrad)"/>
  <circle cx="825" cy="245" r="3" fill="#1a1a1a"/>
  <circle cx="825" cy="245" r="1.5" fill="#444"/>

  <rect x="860" y="40" width="300" height="220" fill="url(#metalGrad)" stroke="#111" stroke-width="2"/>
  <rect x="862" y="42" width="296" height="216" fill="none" stroke="#333" stroke-width="1" opacity="0.3"/>

  <circle cx="875" cy="55" r="6" fill="url(#rivetGrad)"/>
  <circle cx="875" cy="55" r="3" fill="#1a1a1a"/>
  <circle cx="875" cy="55" r="1.5" fill="#444"/>

  <circle cx="1145" cy="55" r="6" fill="url(#rivetGrad)"/>
  <circle cx="1145" cy="55" r="3" fill="#1a1a1a"/>
  <circle cx="1145" cy="55" r="1.5" fill="#444"/>

  <circle cx="875" cy="245" r="6" fill="url(#rivetGrad)"/>
  <circle cx="875" cy="245" r="3" fill="#1a1a1a"/>
  <circle cx="875" cy="245" r="1.5" fill="#444"/>

  <circle cx="1145" cy="245" r="6" fill="url(#rivetGrad)"/>
  <circle cx="1145" cy="245" r="3" fill="#1a1a1a"/>
  <circle cx="1145" cy="245" r="1.5" fill="#444"/>

  <line x1="350" y1="0" x2="350" y2="300" stroke="#0a0a0a" stroke-width="8"/>
  <line x1="850" y1="0" x2="850" y2="300" stroke="#0a0a0a" stroke-width="8"/>

  <line x1="50" y1="90.0" x2="500.0" y2="90.0"
        stroke="#ff6b35" stroke-width="2" opacity="0.3"/>

  <line x1="700.0" y1="90.0" x2="1150" y2="90.0"
        stroke="#ff6b35" stroke-width="2" opacity="0.3"/>

  <circle cx="80" cy="90.0" r="3" fill="#ff6b35" filter="url(#soft-glow)">
    <animate attributeName="opacity" values="0.3;1;0.3"
             dur="2s" begin="-0.6s" repeatCount="indefinite"/>
  </circle>

  <circle cx="1120" cy="90.0" r="3" fill="#ff6b35" filter="url(#soft-glow)">
    <animate attributeName="opacity" values="0.3;1;0.3"
             dur="2s" begin="-0.6s" repeatCount="indefinite"/>
  </circle>

  <line x1="50" y1="130.0" x2="500.0" y2="130.0"
        stroke="#ff6b35" stroke-width="2" opacity="0.3"/>

  <line x1="700.0" y1="130.0" x2="1150" y2="130.0"
        stroke="#ff6b35" stroke-width="2" opacity="0.3"/>

  <circle cx="80" cy="130.0" r="3" fill="#ff6b35" filter="url(#soft-glow)">
    <animate attributeName="opacity" values="0.3;1;0.3"
             dur="2s" begin="-0.2s" repeatCount="indefinite"/>
  </circle>

  <circle cx="1120" cy="130.0" r="3" fill="#ff6b35" filter="url(#soft-glow)">
    <animate attributeName="opacity" values="0.3;1;0.3"
             dur="2s" begin="-0.2s" repeatCount="indefinite"/>
  </circle>

  <line x1="50" y1="170.0" x2="500.0" y2="170.0"
        stroke="#ff6b35" stroke-width="2" opacity="0.3"/>

  <line x1="700.0" y1="170.0" x2="1150" y2="170.0"
        stroke="#ff6b35" stroke-width="2" opacity="0.3"/>

  <circle cx="80" cy="170.0" r="3" fill="#ff6b35" filter="url(#soft-glow)">
    <animate attributeName="opacity" values="0.3;1;0.3"
             dur="2s" begin="0.2s" repeatCount="indefinite"/>
  </circle>

  <circle cx="1120" cy="170.0" r="3" fill="#ff6b35" filter="url(#soft-glow)">
    <animate attributeName="opacity" values="0.3;1;0.3"
             dur="2s" begin="0.2s" repeatCount="indefinite"/>
  </circle>

  <line x1="50" y1="210.0" x2="500.0" y2="210.0"
        stroke="#ff6b35" stroke-width="2" opacity="0.3"/>

  <line x1="700.0" y1="210.0" x2="1150" y2="210.0"
        stroke="#ff6b35" stroke-width="2" opacity="0.3"/>

  <circle cx="80" cy="210.0" r="3" fill="#ff6b35" filter="url(#soft-glow)">
    <animate attributeName="opacity" values="0.3;1;0.3"
             dur="2s" begin="0.6s" repeatCount="indefinite"/>
  </circle>

  <circle cx="1120" cy="210.0" r="3" fill="#ff6b35" filter="url(#soft-glow)">
    <animate attributeName="opacity" values="0.3;1;0.3"
             dur="2s" begin="0.6s" repeatCount="indefinite"/>
  </circle>

  <ellipse cx="600.0" cy="96.875" rx="6.0" ry="10.0"
           transform="rotate(0.0 600.0 96.875)"
           fill="none" stroke="#ff6b35" stroke-width="3.5"
           filter="url(#medium-glow)" opacity="0.8"/>

  <ellipse cx="600.0" cy="96.875" rx="5.0" ry="9.0"
           transform="rotate(0.0 600.0 96.875)"
           fill="none" stroke="#ff8c42" stroke-width="1.5"
           filter="url(#soft-glow)" opacity="0.6"/>

  <ellipse cx="600.0" cy="90.625" rx="6.0" ry="10.0"
           transform="rotate(-90.0 600.0 90.625)"
           fill="none" stroke="#ff6b35" stroke-width="3.5"
           filter="url(#medium-glow)" opacity="0.8"/>

  <ellipse cx="600.0" cy="90.625" rx="5.0" ry="9.0"
           transform="rotate(-90.0 600.0 90.625)"
           fill="none" stroke="#ff8c42" stroke-width="1.5"
           filter="url(#soft-glow)" opacity="0.6"/>

  <ellipse cx="600.0" cy="84.375" rx="6.0" ry="10.0"
           transform="rotate(0.0 600.0 84.375)"
           fill="none" stroke="#ff6b35" stroke-width="3.5"
           filter="url(#medium-glow)" opacity="0.8"/>

  <ellipse cx="600.0" cy="84.375" rx="5.0" ry="9.0"
           transform="rotate(0.0 600.0 84.375)"
           fill="none" stroke="#ff8c42" stroke-width="1.5"
           filter="url(#soft-glow)" opacity="0.6"/>

  <ellipse cx="600.0" cy="78.125" rx="6.0" ry="10.0"
           transform="rotate(-90.0 600.0 78.125)"
           fill="none" stroke="#ff6b35" stroke-width="3.5"
           filter="url(#medium-glow)" opacity="0.8"/>

  <ellipse cx="600.0" cy="78.125" rx="5.0" ry="9.0"
           transform="rotate(-90.0 600.0 78.125)"
           fill="none" stroke="#ff8c42" stroke-width="1.5"
           filter="url(#soft-glow)" opacity="0.6"/>

  <ellipse cx="600.0" cy="71.875" rx="6.0" ry="10.0"
           transform="rotate(0.0 600.0 71.875)"
           fill="none" stroke="#ff6b35" stroke-width="3.5"
           filter="url(#medium-glow)" opacity="0.8"/>

  <ellipse cx="600.0" cy="71.875" rx="5.0" ry="9.0"
           transform="rotate(0.0 600.0 71.875)"
           fill="none" stroke="#ff8c42" stroke-width="1.5"
           filter="url(#soft-glow)" opacity="0.6"/>

  <ellipse cx="600.0" cy="65.625" rx="6.0" ry="10.0"
           transform="rotate(-90.0 600.0 65.625)"
           fill="none" stroke="#ff6b35" stroke-width="3.5"
           filter="url(#medium-glow)" opacity="0.8"/>

  <ellipse cx="600.0" cy="65.625" rx="5.0" ry="9.0"
           transform="rotate(-90.0 600.0 65.625)"
           fill="none" stroke="#ff8c42" stroke-width="1.5"
           filter="url(#soft-glow)" opacity="0.6"/>

  <ellipse cx="600.0" cy="59.375" rx="6.0" ry="10.0"
           transform="rotate(0.0 600.0 59.375)"
           fill="none" stroke="#ff6b35" stroke-width="3.5"
           filter="url(#medium-glow)" opacity="0.8"/>

  <ellipse cx="600.0" cy="59.375" rx="5.0" ry="9.0"
           transform="rotate(0.0 600.0 59.375)"
           fill="none" stroke="#ff8c42" stroke-width="1.5"
           filter="url(#soft-glow)" opacity="0.6"/>

  <ellipse cx="600.0" cy="53.125" rx="6.0" ry="10.0"
           transform="rotate(-90.0 600.0 53.125)"
           fill="none" stroke="#ff6b35" stroke-width="3.5"
           filter="url(#medium-glow)" opacity="0.8"/>

  <ellipse cx="600.0" cy="53.125" rx="5.0" ry="9.0"
           transform="rotate(-90.0 600.0 53.125)"
           fill="none" stroke="#ff8c42" stroke-width="1.5"
           filter="url(#soft-glow)" opacity="0.6"/>

  <ellipse cx="219.66666666666666" cy="150.0" rx="6.0" ry="10.0"
           transform="rotate(90.0 219.66666666666666 150.0)"
           fill="none" stroke="#ff6b35" stroke-width="3.5"
           filter="url(#medium-glow)" opacity="0.8"/>

  <ellipse cx="219.66666666666666" cy="150.0" rx="5.0" ry="9.0"
           transform="rotate(90.0 219.66666666666666 150.0)"
           fill="none" stroke="#ff8c42" stroke-width="1.5"
           filter="url(#soft-glow)" opacity="0.6"/>

  <ellipse cx="239.0" cy="150.0" rx="6.0" ry="10.0"
           transform="rotate(0.0 239.0 150.0)"
           fill="none" stroke="#ff6b35" stroke-width="3.5"
           filter="url(#medium-glow)" opacity="0.8"/>

  <ellipse cx="239.0" cy="150.0" rx="5.0" ry="9.0"
           transform="rotate(0.0 239.0 150.0)"
           fill="none" stroke="#ff8c42" stroke-width="1.5"
           filter="url(#soft-glow)" opacity="0.6"/>

  <ellipse cx="258.3333333333333" cy="150.0" rx="6.0" ry="10.0"
           transform="rotate(90.0 258.3333333333333 150.0)"
           fill="none" stroke="#ff6b35" stroke-width="3.5"
           filter="url(#medium-glow)" opacity="0.8"/>

  <ellipse cx="258.3333333333333" cy="150.0" rx="5.0" ry="9.0"
           transform="rotate(90.0 258.3333333333333 150.0)"
           fill="none" stroke="#ff8c42" stroke-width="1.5"
           filter="url(#soft-glow)" opacity="0.6"/>

  <ellipse cx="277.6666666666667" cy="150.0" rx="6.0" ry="10.0"
           transform="rotate(0.0 277.6666666666667 150.0)"
           fill="none" stroke="#ff6b35" stroke-width="3.5"
           filter="url(#medium-glow)" opacity="0.8"/>

  <ellipse cx="277.6666666666667" cy="150.0" rx="5.0" ry="9.0"
           transform="rotate(0.0 277.6666666666667 150.0)"
           fill="none" stroke="#ff8c42" stroke-width="1.5"
           filter="url(#soft-glow)" opacity="0.6"/>

  <ellipse cx="297.0" cy="150.0" rx="6.0" ry="10.0"
           transform="rotate(90.0 297.0 150.0)"
           fill="none" stroke="#ff6b35" stroke-width="3.5"
           filter="url(#medium-glow)" opacity="0.8"/>

  <ellipse cx="297.0" cy="150.0" rx="5.0" ry="9.0"
           transform="rotate(90.0 297.0 150.0)"
           fill="none" stroke="#ff8c42" stroke-width="1.5"
           filter="url(#soft-glow)" opacity="0.6"/>

  <ellipse cx="316.3333333333333" cy="150.0" rx="6.0" ry="10.0"
           transform="rotate(0.0 316.3333333333333 150.0)"
           fill="none" stroke="#ff6b35" stroke-width="3.5"
           filter="url(#medium-glow)" opacity="0.8"/>

  <ellipse cx="316.3333333333333" cy="150.0" rx="5.0" ry="9.0"
           transform="rotate(0.0 316.3333333333333 150.0)"
           fill="none" stroke="#ff8c42" stroke-width="1.5"
           filter="url(#soft-glow)" opacity="0.6"/>

  <ellipse cx="335.6666666666667" cy="150.0" rx="6.0" ry="10.0"
           transform="rotate(90.0 335.6666666666667 150.0)"
           fill="none" stroke="#ff6b35" stroke-width="3.5"
           filter="url(#medium-glow)" opacity="0.8"/>

  <ellipse cx="335.6666666666667" cy="150.0" rx="5.0" ry="9.0"
           transform="rotate(90.0 335.6666666666667 150.0)"
           fill="none" stroke="#ff8c42" stroke-width="1.5"
           filter="url(#soft-glow)" opacity="0.6"/>

  <ellipse cx="355.0" cy="150.0" rx="6.0" ry="10.0"
           transform="rotate(0.0 355.0 150.0)"
           fill="none" stroke="#ff6b35" stroke-width="3.5"
           filter="url(#medium-glow)" opacity="0.8"/>

  <ellipse cx="355.0" cy="150.0" rx="5.0" ry="9.0"
           transform="rotate(0.0 355.0 150.0)"
           fill="none" stroke="#ff8c42" stroke-width="1.5"
           filter="url(#soft-glow)" opacity="0.6"/>

  <ellipse cx="374.3333333333333" cy="150.0" rx="6.0" ry="10.0"
           transform="rotate(90.0 374.3333333333333 150.0)"
           fill="none" stroke="#ff6b35" stroke-width="3.5"
           filter="url(#medium-glow)" opacity="0.8"/>

  <ellipse cx="374.3333333333333" cy="150.0" rx="5.0" ry="9.0"
           transform="rotate(90.0 374.3333333333333 150.0)"
           fill="none" stroke="#ff8c42" stroke-width="1.5"
           filter="url(#soft-glow)" opacity="0.6"/>

  <ellipse cx="393.6666666666667" cy="150.0" rx="6.0" ry="10.0"
           transform="rotate(0.0 393.6666666666667 150.0)"
           fill="none" stroke="#ff6b35" stroke-width="3.5"
           filter="url(#medium-glow)" opacity="0.8"/>

  <ellipse cx="393.6666666666667" cy="150.0" rx="5.0" ry="9.0"
           transform="rotate(0.0 393.6666666666667 150.0)"
           fill="none" stroke="#ff8c42" stroke-width="1.5"
           filter="url(#soft-glow)" opacity="0.6"/>

  <ellipse cx="413.0" cy="150.0" rx="6.0" ry="10.0"
           transform="rotate(90.0 413.0 150.0)"
           fill="none" stroke="#ff6b35" stroke-width="3.5"
           filter="url(#medium-glow)" opacity="0.8"/>

  <ellipse cx="413.0" cy="150.0" rx="5.0" ry="9.0"
           transform="rotate(90.0 413.0 150.0)"
           fill="none" stroke="#ff8c42" stroke-width="1.5"
           filter="url(#soft-glow)" opacity="0.6"/>

  <ellipse cx="432.3333333333333" cy="150.0" rx="6.0" ry="10.0"
           transform="rotate(0.0 432.3333333333333 150.0)"
           fill="none" stroke="#ff6b35" stroke-width="3.5"
           filter="url(#medium-glow)" opacity="0.8"/>

  <ellipse cx="432.3333333333333" cy="150.0" rx="5.0" ry="9.0"
           transform="rotate(0.0 432.3333333333333 150.0)"
           fill="none" stroke="#ff8c42" stroke-width="1.5"
           filter="url(#soft-glow)" opacity="0.6"/>

  <ellipse cx="451.6666666666667" cy="150.0" rx="6.0" ry="10.0"
           transform="rotate(90.0 451.6666666666667 150.0)"
           fill="none" stroke="#ff6b35" stroke-width="3.5"
           filter="url(#medium-glow)" opacity="0.8"/>

  <ellipse cx="451.6666666666667" cy="150.0" rx="5.0" ry="9.0"
           transform="rotate(90.0 451.6666666666667 150.0)"
           fill="none" stroke="#ff8c42" stroke-width="1.5"
           filter="url(#soft-glow)" opacity="0.6"/>

  <ellipse cx="471.0" cy="150.0" rx="6.0" ry="10.0"
           transform="rotate(0.0 471.0 150.0)"
           fill="none" stroke="#ff6b35" stroke-width="3.5"
           filter="url(#medium-glow)" opacity="0.8"/>

  <ellipse cx="471.0" cy="150.0" rx="5.0" ry="9.0"
           transform="rotate(0.0 471.0 150.0)"
           fill="none" stroke="#ff8c42" stroke-width="1.5"
           filter="url(#soft-glow)" opacity="0.6"/>

  <ellipse cx="490.3333333333333" cy="150.0" rx="6.0" ry="10.0"
           transform="rotate(90.0 490.3333333333333 150.0)"
           fill="none" stroke="#ff6b35" stroke-width="3.5"
           filter="url(#medium-glow)" opacity="0.8"/>

  <ellipse cx="490.3333333333333" cy="150.0" rx="5.0" ry="9.0"
           transform="rotate(90.0 490.3333333333333 150.0)"
           fill="none" stroke="#ff8c42" stroke-width="1.5"
           filter="url(#soft-glow)" opacity="0.6"/>

  <ellipse cx="980.3333333333334" cy="150.0" rx="6.0" ry="10.0"
           transform="rotate(270.0 980.3333333333334 150.0)"
           fill="none" stroke="#ff6b35" stroke-width="3.5"
           filter="url(#medium-glow)" opacity="0.8"/>

  <ellipse cx="980.3333333333334" cy="150.0" rx="5.0" ry="9.0"
           transform="rotate(270.0 980.3333333333334 150.0)"
           fill="none" stroke="#ff8c42" stroke-width="1.5"
           filter="url(#soft-glow)" opacity="0.6"/>

  <ellipse cx="961.0" cy="150.0" rx="6.0" ry="10.0"
           transform="rotate(180.0 961.0 150.0)"
           fill="none" stroke="#ff6b35" stroke-width="3.5"
           filter="url(#medium-glow)" opacity="0.8"/>

  <ellipse cx="961.0" cy="150.0" rx="5.0" ry="9.0"
           transform="rotate(180.0 961.0 150.0)"
           fill="none" stroke="#ff8c42" stroke-width="1.5"
           filter="url(#soft-glow)" opacity="0.6"/>

  <ellipse cx="941.6666666666667" cy="150.0" rx="6.0" ry="10.0"
           transform="rotate(270.0 941.6666666666667 150.0)"
           fill="none" stroke="#ff6b35" stroke-width="3.5"
           filter="url(#medium-glow)" opacity="0.8"/>

  <ellipse cx="941.6666666666667" cy="150.0" rx="5.0" ry="9.0"
           transform="rotate(270.0 941.6666666666667 150.0)"
           fill="none" stroke="#ff8c42" stroke-width="1.5"
           filter="url(#soft-glow)" opacity="0.6"/>

  <ellipse cx="922.3333333333334" cy="150.0" rx="6.0" ry="10.0"
           transform="rotate(180.0 922.3333333333334 150.0)"
           fill="none" stroke="#ff6b35" stroke-width="3.5"
           filter="url(#medium-glow)" opacity="0.8"/>

  <ellipse cx="922.3333333333334" cy="150.0" rx="5.0" ry="9.0"
           transform="rotate(180.0 922.3333333333334 150.0)"
           fill="none" stroke="#ff8c42" stroke-width="1.5"
           filter="url(#soft-glow)" opacity="0.6"/>

  <ellipse cx="903.0" cy="150.0" rx="6.0" ry="10.0"
           transform="rotate(270.0 903.0 150.0)"
           fill="none" stroke="#ff6b35" stroke-width="3.5"
           filter="url(#medium-glow)" opacity="0.8"/>

  <ellipse cx="903.0" cy="150.0" rx="5.0" ry="9.0"
           transform="rotate(270.0 903.0 150.0)"
           fill="none" stroke="#ff8c42" stroke-width="1.5"
           filter="url(#soft-glow)" opacity="0.6"/>

  <ellipse cx="883.6666666666667" cy="150.0" rx="6.0" ry="10.0"
           transform="rotate(180.0 883.6666666666667 150.0)"
           fill="none" stroke="#ff6b35" stroke-width="3.5"
           filter="url(#medium-glow)" opacity="0.8"/>

  <ellipse cx="883.6666666666667" cy="150.0" rx="5.0" ry="9.0"
           transform="rotate(180.0 883.6666666666667 150.0)"
           fill="none" stroke="#ff8c42" stroke-width="1.5"
           filter="url(#soft-glow)" opacity="0.6"/>

  <ellipse cx="864.3333333333334" cy="150.0" rx="6.0" ry="10.0"
           transform="rotate(270.0 864.3333333333334 150.0)"
           fill="none" stroke="#ff6b35" stroke-width="3.5"
           filter="url(#medium-glow)" opacity="0.8"/>

  <ellipse cx="864.3333333333334" cy="150.0" rx="5.0" ry="9.0"
           transform="rotate(270.0 864.3333333333334 150.0)"
           fill="none" stroke="#ff8c42" stroke-width="1.5"
           filter="url(#soft-glow)" opacity="0.6"/>

  <ellipse cx="845.0000000000001" cy="150.0" rx="6.0" ry="10.0"
           transform="rotate(180.0 845.0000000000001 150.0)"
           fill="none" stroke="#ff6b35" stroke-width="3.5"
           filter="url(#medium-glow)" opacity="0.8"/>

  <ellipse cx="845.0000000000001" cy="150.0" rx="5.0" ry="9.0"
           transform="rotate(180.0 845.0000000000001 150.0)"
           fill="none" stroke="#ff8c42" stroke-width="1.5"
           filter="url(#soft-glow)" opacity="0.6"/>

  <ellipse cx="825.6666666666667" cy="150.0" rx="6.0" ry="10.0"
           transform="rotate(270.0 825.6666666666667 150.0)"
           fill="none" stroke="#ff6b35" stroke-width="3.5"
           filter="url(#medium-glow)" opacity="0.8"/>

  <ellipse cx="825.6666666666667" cy="150.0" rx="5.0" ry="9.0"
           transform="rotate(270.0 825.6666666666667 150.0)"
           fill="none" stroke="#ff8c42" stroke-width="1.5"
           filter="url(#soft-glow)" opacity="0.6"/>

  <ellipse cx="806.3333333333334" cy="150.0" rx="6.0" ry="10.0"
           transform="rotate(180.0 806.3333333333334 150.0)"
           fill="none" stroke="#ff6b35" stroke-width="3.5"
           filter="url(#medium-glow)" opacity="0.8"/>

  <ellipse cx="806.3333333333334" cy="150.0" rx="5.0" ry="9.0"
           transform="rotate(180.0 806.3333333333334 150.0)"
           fill="none" stroke="#ff8c42" stroke-width="1.5"
           filter="url(#soft-glow)" opacity="0.6"/>

  <ellipse cx="787.0000000000001" cy="150.0" rx="6.0" ry="10.0"
           transform="rotate(270.0 787.0000000000001 150.0)"
           fill="none" stroke="#ff6b35" stroke-width="3.5"
           filter="url(#medium-glow)" opacity="0.8"/>

  <ellipse cx="787.0000000000001" cy="150.0" rx="5.0" ry="9.0"
           transform="rotate(270.0 787.0000000000001 150.0)"
           fill="none" stroke="#ff8c42" stroke-width="1.5"
           filter="url(#soft-glow)" opacity="0.6"/>

  <ellipse cx="767.6666666666667" cy="150.0" rx="6.0" ry="10.0"
           transform="rotate(180.0 767.6666666666667 150.0)"
           fill="none" stroke="#ff6b35" stroke-width="3.5"
           filter="url(#medium-glow)" opacity="0.8"/>

  <ellipse cx="767.6666666666667" cy="150.0" rx="5.0" ry="9.0"
           transform="rotate(180.0 767.6666666666667 150.0)"
           fill="none" stroke="#ff8c42" stroke-width="1.5"
           filter="url(#soft-glow)" opacity="0.6"/>

  <ellipse cx="748.3333333333334" cy="150.0" rx="6.0" ry="10.0"
           transform="rotate(270.0 748.3333333333334 150.0)"
           fill="none" stroke="#ff6b35" stroke-width="3.5"
           filter="url(#medium-glow)" opacity="0.8"/>

  <ellipse cx="748.3333333333334" cy="150.0" rx="5.0" ry="9.0"
           transform="rotate(270.0 748.3333333333334 150.0)"
           fill="none" stroke="#ff8c42" stroke-width="1.5"
           filter="url(#soft-glow)" opacity="0.6"/>

  <ellipse cx="729.0000000000001" cy="150.0" rx="6.0" ry="10.0"
           transform="rotate(180.0 729.0000000000001 150.0)"
           fill="none" stroke="#ff6b35" stroke-width="3.5"
           filter="url(#medium-glow)" opacity="0.8"/>

  <ellipse cx="729.0000000000001" cy="150.0" rx="5.0" ry="9.0"
           transform="rotate(180.0 729.0000000000001 150.0)"
           fill="none" stroke="#ff8c42" stroke-width="1.5"
           filter="url(#soft-glow)" opacity="0.6"/>

  <ellipse cx="709.6666666666667" cy="150.0" rx="6.0" ry="10.0"
           transform="rotate(270.0 709.6666666666667 150.0)"
           fill="none" stroke="#ff6b35" stroke-width="3.5"
           filter="url(#medium-glow)" opacity="0.8"/>

  <ellipse cx="709.6666666666667" cy="150.0" rx="5.0" ry="9.0"
           transform="rotate(270.0 709.6666666666667 150.0)"
           fill="none" stroke="#ff8c42" stroke-width="1.5"
           filter="url(#soft-glow)" opacity="0.6"/>

  <path d="M 690.00,150.00 L 688.89,164.08 L 669.14,160.95 L 668.07,166.34 L 687.51,171.01 L 683.15,184.44 L 664.67,176.79 L 676.74,197.02 L 659.68,186.57 L 656.63,191.14 L 672.81,202.90 L 663.64,213.64 L 649.50,199.50 L 652.90,222.81 L 641.14,206.63 L 636.57,209.68 L 647.02,226.74 L 634.44,233.15 L 626.79,214.67 L 621.01,237.51 L 616.34,218.07 L 610.95,219.14 L 614.08,238.89 L 600.00,240.00 L 600.00,220.00 L 585.92,238.89 L 589.05,219.14 L 583.66,218.07 L 578.99,237.51 L 565.56,233.15 L 573.21,214.67 L 552.98,226.74 L 563.43,209.68 L 558.86,206.63 L 547.10,222.81 L 536.36,213.64 L 550.50,199.50 L 527.19,202.90 L 543.37,191.14 L 540.32,186.57 L 523.26,197.02 L 516.85,184.44 L 535.33,176.79 L 512.49,171.01 L 531.93,166.34 L 530.86,160.95 L 511.11,164.08 L 510.00,150.00 L 530.00,150.00 L 511.11,135.92 L 530.86,139.05 L 531.93,133.66 L 512.49,128.99 L 516.85,115.56 L 535.33,123.21 L 523.26,102.98 L 540.32,113.43 L 543.37,108.86 L 527.19,97.10 L 536.36,86.36 L 550.50,100.50 L 547.10,77.19 L 558.86,93.37 L 563.43,90.32 L 552.98,73.26 L 565.56,66.85 L 573.21,85.33 L 578.99,62.49 L 583.66,81.93 L 589.05,80.86 L 585.92,61.11 L 600.00,60.00 L 600.00,80.00 L 614.08,61.11 L 610.95,80.86 L 616.34,81.93 L 621.01,62.49 L 634.44,66.85 L 626.79,85.33 L 647.02,73.26 L 636.57,90.32 L 641.14,93.37 L 652.90,77.19 L 663.64,86.36 L 649.50,100.50 L 672.81,97.10 L 656.63,108.86 L 659.68,113.43 L 676.74,102.98 L 683.15,115.56 L 664.67,123.21 L 687.51,128.99 L 668.07,133.66 L 669.14,139.05 L 688.89,135.92 L 690.00,150.00 L 670.00,150.00 Z" fill="#0a0a0a" opacity="0.5"
        transform="translate(4, 4)" />

  <path d="M 690.00,150.00 L 688.89,164.08 L 669.14,160.95 L 668.07,166.34 L 687.51,171.01 L 683.15,184.44 L 664.67,176.79 L 676.74,197.02 L 659.68,186.57 L 656.63,191.14 L 672.81,202.90 L 663.64,213.64 L 649.50,199.50 L 652.90,222.81 L 641.14,206.63 L 636.57,209.68 L 647.02,226.74 L 634.44,233.15 L 626.79,214.67 L 621.01,237.51 L 616.34,218.07 L 610.95,219.14 L 614.08,238.89 L 600.00,240.00 L 600.00,220.00 L 585.92,238.89 L 589.05,219.14 L 583.66,218.07 L 578.99,237.51 L 565.56,233.15 L 573.21,214.67 L 552.98,226.74 L 563.43,209.68 L 558.86,206.63 L 547.10,222.81 L 536.36,213.64 L 550.50,199.50 L 527.19,202.90 L 543.37,191.14 L 540.32,186.57 L 523.26,197.02 L 516.85,184.44 L 535.33,176.79 L 512.49,171.01 L 531.93,166.34 L 530.86,160.95 L 511.11,164.08 L 510.00,150.00 L 530.00,150.00 L 511.11,135.92 L 530.86,139.05 L 531.93,133.66 L 512.49,128.99 L 516.85,115.56 L 535.33,123.21 L 523.26,102.98 L 540.32,113.43 L 543.37,108.86 L 527.19,97.10 L 536.36,86.36 L 550.50,100.50 L 547.10,77.19 L 558.86,93.37 L 563.43,90.32 L 552.98,73.26 L 565.56,66.85 L 573.21,85.33 L 578.99,62.49 L 583.66,81.93 L 589.05,80.86 L 585.92,61.11 L 600.00,60.00 L 600.00,80.00 L 614.08,61.11 L 610.95,80.86 L 616.34,81.93 L 621.01,62.49 L 634.44,66.85 L 626.79,85.33 L 647.02,73.26 L 636.57,90.32 L 641.14,93.37 L 652.90,77.19 L 663.64,86.36 L 649.50,100.50 L 672.81,97.10 L 656.63,108.86 L 659.68,113.43 L 676.74,102.98 L 683.15,115.56 L 664.67,123.21 L 687.51,128.99 L 668.07,133.66 L 669.14,139.05 L 688.89,135.92 L 690.00,150.00 L 670.00,150.00 Z" fill="none" stroke="#ff6b35" stroke-width="4"
        filter="url(#strong-glow)">
    <animateTransform attributeName="transform" type="rotate"
      from="0 600.0 150.0" to="360 600.0 150.0" dur="40s" repeatCount="indefinite"/>
  </path>

  <circle cx="600.0" cy="150.0" r="65" fill="none"
          stroke="#ff6b35" stroke-width="3" filter="url(#strong-glow)" opacity="0.9"/>

  <circle cx="600.0" cy="150.0" r="50" fill="none"
          stroke="#ff6b35" stroke-width="2.5" filter="url(#strong-glow)" opacity="0.9"/>

  <circle cx="600.0" cy="150.0" r="35" fill="none"
          stroke="#ff6b35" stroke-width="2" filter="url(#strong-glow)" opacity="0.9"/>

  <circle cx="600.0" cy="150.0" r="25" fill="#1a1a1a" stroke="#ff6b35"
          stroke-width="3" filter="url(#strong-glow)"/>
  <circle cx="600.0" cy="150.0" r="15" fill="none" stroke="#ff8c42"
          stroke-width="2" filter="url(#medium-glow)">
    <animate attributeName="opacity" values="0.6;1;0.6" dur="3s" repeatCount="indefinite"/>
  </circle>

  <path d="M 588.625,57.75
           Q 588.625,36.75 600.0,36.75
           Q 611.375,36.75 611.375,57.75"
        fill="none" stroke="#ff6b35" stroke-width="6"
        stroke-linecap="round" filter="url(#strong-glow)"/>

  <path d="M 588.625,57.75
           Q 588.625,36.75 600.0,36.75
           Q 611.375,36.75 611.375,57.75"
        fill="none" stroke="#ff8c42" stroke-width="3"
        stroke-linecap="round" filter="url(#medium-glow)" opacity="0.8"/>

  <rect x="584.25" y="57.75"
        width="31.5" height="24.5" rx="5"
        fill="#1a1a1a" stroke="#ff6b35" stroke-width="4" filter="url(#strong-glow)"/>

  <rect x="590.25" y="63.75"
        width="19.5" height="12.5" rx="3"
        fill="none" stroke="#ff6b35" stroke-width="1.5" opacity="0.4"/>

  <circle cx="600.0" cy="65" r="5"
          fill="#ff6b35" filter="url(#strong-glow)"/>
  <path d="M 597.0,67 L 598.0,78
           L 602.0,78 L 603.0,67 Z"
        fill="#ff6b35" filter="url(#strong-glow)"/>

  <path d="M 168.625,137.75
           Q 168.625,116.75 180,116.75
           Q 191.375,116.75 191.375,137.75"
        fill="none" stroke="#ff6b35" stroke-width="6"
        stroke-linecap="round" filter="url(#strong-glow)"/>

  <path d="M 168.625,137.75
           Q 168.625,116.75 180,116.75
           Q 191.375,116.75 191.375,137.75"
        fill="none" stroke="#ff8c42" stroke-width="3"
        stroke-linecap="round" filter="url(#medium-glow)" opacity="0.8"/>

  <rect x="164.25" y="137.75"
        width="31.5" height="24.5" rx="5"
        fill="#1a1a1a" stroke="#ff6b35" stroke-width="4" filter="url(#strong-glow)"/>

  <rect x="170.25" y="143.75"
        width="19.5" height="12.5" rx="3"
        fill="none" stroke="#ff6b35" stroke-width="1.5" opacity="0.4"/>

  <circle cx="180" cy="145.0" r="5"
          fill="#ff6b35" filter="url(#strong-glow)"/>
  <path d="M 177,147.0 L 178,158.0
           L 182,158.0 L 183,147.0 Z"
        fill="#ff6b35" filter="url(#strong-glow)"/>

  <path d="M 1008.625,137.75
           Q 1008.625,116.75 1020,116.75
           Q 1031.375,116.75 1031.375,137.75"
        fill="none" stroke="#ff6b35" stroke-width="6"
        stroke-linecap="round" filter="url(#strong-glow)"/>

  <path d="M 1008.625,137.75
           Q 1008.625,116.75 1020,116.75
           Q 1031.375,116.75 1031.375,137.75"
        fill="none" stroke="#ff8c42" stroke-width="3"
        stroke-linecap="round" filter="url(#medium-glow)" opacity="0.8"/>

  <rect x="1004.25" y="137.75"
        width="31.5" height="24.5" rx="5"
        fill="#1a1a1a" stroke="#ff6b35" stroke-width="4" filter="url(#strong-glow)"/>

  <rect x="1010.25" y="143.75"
        width="19.5" height="12.5" rx="3"
        fill="none" stroke="#ff6b35" stroke-width="1.5" opacity="0.4"/>

  <circle cx="1020" cy="145.0" r="5"
          fill="#ff6b35" filter="url(#strong-glow)"/>
  <path d="M 1017,147.0 L 1018,158.0
           L 1022,158.0 L 1023,147.0 Z"
        fill="#ff6b35" filter="url(#strong-glow)"/>

  <!-- Stats -->
  <text x="60" y="280" fill="#ff6b35" filter="url(#soft-glow)"
        font-family="'Courier New', monospace" font-size="11" opacity="0.6">
    SYSTEMS: 0
  </text>
  <text x="980" y="280" fill="#ff6b35" filter="url(#soft-glow)"
        font-family="'Courier New', monospace" font-size="11" opacity="0.6" text-anchor="end">
    ENFORCEMENTS: 0
  </text>
</svg>