<svg width="1200" height="600" xmlns="http://www.w3.org/2000/svg">
  <defs>
    <filter id="glow" x="-50%" y="-50%" width="200%" height="200%">
      <feGaussianBlur stdDeviation="3" result="coloredBlur"/>
      <feMerge>
        <feMergeNode in="coloredBlur"/>
        <feMergeNode in="SourceGraphic"/>
      </feMerge>
    </filter>

    <filter id="strong-glow" x="-100%" y="-100%" width="300%" height="300%">
      <feGaussianBlur stdDeviation="5" result="coloredBlur"/>
      <feMerge>
        <feMergeNode in="coloredBlur"/>
        <feMergeNode in="coloredBlur"/>
        <feMergeNode in="SourceGraphic"/>
      </feMerge>
    </filter>
  </defs>

  <!-- Background -->
  <rect width="1200" height="600" fill="#1a1a1a"/>

  <!-- Grid pattern -->
<line x1="0" y1="0" x2="0" y2="600" stroke="#2a2a2a" stroke-width="1" opacity="0.3"/>
<line x1="50" y1="0" x2="50" y2="600" stroke="#2a2a2a" stroke-width="1" opacity="0.3"/>
<line x1="100" y1="0" x2="100" y2="600" stroke="#2a2a2a" stroke-width="1" opacity="0.3"/>
<line x1="150" y1="0" x2="150" y2="600" stroke="#2a2a2a" stroke-width="1" opacity="0.3"/>
<line x1="200" y1="0" x2="200" y2="600" stroke="#2a2a2a" stroke-width="1" opacity="0.3"/>
<line x1="250" y1="0" x2="250" y2="600" stroke="#2a2a2a" stroke-width="1" opacity="0.3"/>
<line x1="300" y1="0" x2="300" y2="600" stroke="#2a2a2a" stroke-width="1" opacity="0.3"/>
<line x1="350" y1="0" x2="350" y2="600" stroke="#2a2a2a" stroke-width="1" opacity="0.3"/>
<line x1="400" y1="0" x2="400" y2="600" stroke="#2a2a2a" stroke-width="1" opacity="0.3"/>
<line x1="450" y1="0" x2="450" y2="600" stroke="#2a2a2a" stroke-width="1" opacity="0.3"/>
<line x1="500" y1="0" x2="500" y2="600" stroke="#2a2a2a" stroke-width="1" opacity="0.3"/>
<line x1="550" y1="0" x2="550" y2="600" stroke="#2a2a2a" stroke-width="1" opacity="0.3"/>
<line x1="600" y1="0" x2="600" y2="600" stroke="#2a2a2a" stroke-width="1" opacity="0.3"/>
<line x1="650" y1="0" x2="650" y2="600" stroke="#2a2a2a" stroke-width="1" opacity="0.3"/>
<line x1="700" y1="0" x2="700" y2="600" stroke="#2a2a2a" stroke-width="1" opacity="0.3"/>
<line x1="750" y1="0" x2="750" y2="600" stroke="#2a2a2a" stroke-width="1" opacity="0.3"/>
<line x1="800" y1="0" x2="800" y2="600" stroke="#2a2a2a" stroke-width="1" opacity="0.3"/>
<line x1="850" y1="0" x2="850" y2="600" stroke="#2a2a2a" stroke-width="1" opacity="0.3"/>
<line x1="900" y1="0" x2="900" y2="600" stroke="#2a2a2a" stroke-width="1" opacity="0.3"/>
<line x1="950" y1="0" x2="950" y2="600" stroke="#2a2a2a" stroke-width="1" opacity="0.3"/>
<line x1="1000" y1="0" x2="1000" y2="600" stroke="#2a2a2a" stroke-width="1" opacity="0.3"/>
<line x1="1050" y1="0" x2="1050" y2="600" stroke="#2a2a2a" stroke-width="1" opacity="0.3"/>
<line x1="1100" y1="0" x2="1100" y2="600" stroke="#2a2a2a" stroke-width="1" opacity="0.3"/>
<line x1="1150" y1="0" x2="1150" y2="600" stroke="#2a2a2a" stroke-width="1" opacity="0.3"/>
<line x1="0" y1="0" x2="1200" y2="0" stroke="#2a2a2a" stroke-width="1" opacity="0.3"/>
<line x1="0" y1="50" x2="1200" y2="50" stroke="#2a2a2a" stroke-width="1" opacity="0.3"/>
<line x1="0" y1="100" x2="1200" y2="100" stroke="#2a2a2a" stroke-width="1" opacity="0.3"/>
<line x1="0" y1="150" x2="1200" y2="150" stroke="#2a2a2a" stroke-width="1" opacity="0.3"/>
<line x1="0" y1="200" x2="1200" y2="200" stroke="#2a2a2a" stroke-width="1" opacity="0.3"/>
<line x1="0" y1="250" x2="1200" y2="250" stroke="#2a2a2a" stroke-width="1" opacity="0.3"/>
<line x1="0" y1="300" x2="1200" y2="300" stroke="#2a2a2a" stroke-width="1" opacity="0.3"/>
<line x1="0" y1="350" x2="1200" y2="350" stroke="#2a2a2a" stroke-width="1" opacity="0.3"/>
<line x1="0" y1="400" x2="1200" y2="400" stroke="#2a2a2a" stroke-width="1" opacity="0.3"/>
<line x1="0" y1="450" x2="1200" y2="450" stroke="#2a2a2a" stroke-width="1" opacity="0.3"/>
<line x1="0" y1="500" x2="1200" y2="500" stroke="#2a2a2a" stroke-width="1" opacity="0.3"/>
<line x1="0" y1="550" x2="1200" y2="550" stroke="#2a2a2a" stroke-width="1" opacity="0.3"/>

  <!-- Title -->
  <rect x="100" y="30" width="1000" height="80" fill="#2a2a2a" opacity="0.8"/>
  <line x1="100" y1="30" x2="1100" y2="30" stroke="#ff6b35" stroke-width="3" filter="url(#glow)"/>
  <text x="600.0" y="75" fill="#ff6b35" filter="url(#strong-glow)"
        font-family="'Courier New', monospace" font-size="32" font-weight="bold"
        text-anchor="middle" letter-spacing="8">
    SYSTEM ARCHITECT
  </text>
  <text x="600.0" y="98" fill="#888888"
        font-family="'Courier New', monospace" font-size="12"
        text-anchor="middle" letter-spacing="2">
    AUTHORITY ENCODED AS INFRASTRUCTURE
  </text>

  <!-- Operational Mandate -->
  <rect x="50" y="150" width="1100" height="120" fill="#2a2a2a" opacity="0.6"/>
  <rect x="50" y="150" width="1100" height="120" fill="none" stroke="#ff8c42" stroke-width="2"/>

  <text x="80" y="175" fill="#ff6b35" filter="url(#glow)"
        font-family="'Courier New', monospace" font-size="14" font-weight="bold" letter-spacing="2">
    ▸ OPERATIONAL MANDATE
  </text>

  <text x="80" y="200" fill="#cccccc"
        font-family="'Courier New', monospace" font-size="11">
    <tspan x="80" dy="0">AI systems: agent-based &amp; multi-agent designs, data quality workflows, operational ML</tspan>
    <tspan x="80" dy="18">Projects: software-only to robotics-adjacent (LiDAR perception)</tspan>
    <tspan x="80" dy="18">Approach: First principles thinking, system behavior, reliability, non-ideal conditions</tspan>
  </text>

  <!-- Active Processes -->
  <rect x="50" y="300" width="530" height="140" fill="#2a2a2a" opacity="0.6"/>
  <rect x="50" y="300" width="530" height="140" fill="none" stroke="#ff8c42" stroke-width="2"/>

  <text x="80" y="325" fill="#ff6b35" filter="url(#glow)"
        font-family="'Courier New', monospace" font-size="14" font-weight="bold" letter-spacing="2">
    ▸ ACTIVE PROCESSES
  </text>

  <text x="80" y="360" fill="#ff8c42" filter="url(#glow)"
        font-family="'Courier New', monospace" font-size="12" font-weight="bold">
    ARES
  </text>
  <text x="80" y="378" fill="#cccccc"
        font-family="'Courier New', monospace" font-size="10">
    2D LiDAR + ML hand-gesture control
  </text>

  <text x="80" y="408" fill="#ff8c42" filter="url(#glow)"
        font-family="'Courier New', monospace" font-size="12" font-weight="bold">
    SHERLOCK
  </text>
  <text x="80" y="426" fill="#cccccc"
        font-family="'Courier New', monospace" font-size="10">
    Agentic data analysis to report + ML models
  </text>

  <!-- Expertise -->
  <rect x="620" y="300" width="530" height="140" fill="#2a2a2a" opacity="0.6"/>
  <rect x="620" y="300" width="530" height="140" fill="none" stroke="#ff8c42" stroke-width="2"/>

  <text x="650" y="325" fill="#ff6b35" filter="url(#glow)"
        font-family="'Courier New', monospace" font-size="14" font-weight="bold" letter-spacing="2">
    ▸ EXPERTISE JURISDICTIONS
  </text>

  <text x="650" y="355" fill="#cccccc"
        font-family="'Courier New', monospace" font-size="11">
    <tspan x="650" dy="0">✓ Agent orchestration + evaluation frameworks</tspan>
    <tspan x="650" dy="20">✓ LiDAR perception + gesture classification</tspan>
    <tspan x="650" dy="20">✓ Production ML (FastAPI • Docker • Kubernetes)</tspan>
  </text>

  <!-- Learning Domains -->
  <rect x="50" y="470" width="530" height="100" fill="#2a2a2a" opacity="0.6"/>
  <rect x="50" y="470" width="530" height="100" fill="none" stroke="#ff8c42" stroke-width="2"/>

  <text x="80" y="495" fill="#ff6b35" filter="url(#glow)"
        font-family="'Courier New', monospace" font-size="14" font-weight="bold" letter-spacing="2">
    ▸ ACTIVE LEARNING
  </text>

  <text x="80" y="520" fill="#cccccc"
        font-family="'Courier New', monospace" font-size="10">
    <tspan x="80" dy="0">LangChain • Agent Systems • LLM Architectures</tspan>
    <tspan x="80" dy="16">JavaScript • TypeScript • ROS2 • Rust</tspan>
  </text>

  <!-- Collaboration -->
  <rect x="620" y="470" width="530" height="100" fill="#2a2a2a" opacity="0.6"/>
  <rect x="620" y="470" width="530" height="100" fill="none" stroke="#ff8c42" stroke-width="2"/>

  <text x="650" y="495" fill="#ff6b35" filter="url(#glow)"
        font-family="'Courier New', monospace" font-size="14" font-weight="bold" letter-spacing="2">
    ▸ COLLABORATION PROTOCOLS
  </text>

  <text x="650" y="520" fill="#cccccc"
        font-family="'Courier New', monospace" font-size="10">
    <tspan x="650" dy="0">[AUTHORIZED] OSS research: agentic analytics, robotics</tspan>
    <tspan x="650" dy="16">[LOCATION] NYC preferred • Remote OK</tspan>
    <tspan x="650" dy="16">[REQUIRED] Architecture review • Pair programming</tspan>
  </text>
</svg>